gub5-110.ufo
<glyph name="exclam" format="1">
  <unicode hex="0021"/>
  <advance width="210"/>
  <outline>
    <contour>
      <point x="127" y="175" type="line"/>
      <point x="172" y="541"/>
      <point x="175" y="598"/>
      <point x="175" y="601" type="curve" smooth="yes"/>
      <point x="175" y="610" type="line" smooth="yes"/>
      <point x="175" y="675"/>
      <point x="151" y="708"/>
      <point x="105" y="708" type="curve" smooth="yes"/>
      <point x="58" y="708"/>
      <point x="34" y="675"/>
      <point x="34" y="610" type="curve" smooth="yes"/>
      <point x="34" y="599" type="line"/>
      <point x="82" y="175" type="line"/>
    </contour>
    <contour>
      <point x="105" y="134" type="line"/>
      <point x="63" y="134"/>
      <point x="30" y="102"/>
      <point x="30" y="60" type="curve" smooth="yes"/>
      <point x="30" y="21"/>
      <point x="63" y="-12"/>
      <point x="105" y="-12" type="curve" smooth="yes"/>
      <point x="148" y="-12"/>
      <point x="180" y="21"/>
      <point x="180" y="60" type="curve" smooth="yes"/>
      <point x="180" y="102"/>
      <point x="148" y="134"/>
      <point x="105" y="134" type="curve"/>
    </contour>
  </outline>
</glyph>
<glyph name="quotedbl" format="1">
  <unicode hex="0022"/>
  <advance width="361"/>
  <outline>
    <contour>
      <point x="35" y="613" type="line"/>
      <point x="35" y="614" type="line"/>
      <point x="62" y="436" type="line"/>
      <point x="116" y="436" type="line"/>
      <point x="150" y="641" type="line"/>
      <point x="150" y="708"/>
      <point x="102" y="708"/>
      <point x="90" y="708" type="curve" smooth="yes"/>
      <point x="70" y="708"/>
      <point x="30" y="708"/>
      <point x="30" y="641" type="curve"/>
    </contour>
    <contour>
      <point x="215" y="613" type="line"/>
      <point x="215" y="614" type="line"/>
      <point x="243" y="436" type="line"/>
      <point x="297" y="436" type="line"/>
      <point x="331" y="641" type="line"/>
      <point x="331" y="708"/>
      <point x="283" y="708"/>
      <point x="271" y="708" type="curve" smooth="yes"/>
      <point x="251" y="708"/>
      <point x="211" y="708"/>
      <point x="211" y="641" type="curve"/>
    </contour>
  </outline>
</glyph>
<glyph name="numbersign" format="1">
  <unicode hex="0023"/>
  <advance width="587"/>
  <outline>
    <contour>
      <point x="491" y="694" type="line"/>
      <point x="398" y="694" type="line"/>
      <point x="365" y="492" type="line"/>
      <point x="268" y="492" type="line"/>
      <point x="300" y="694" type="line"/>
      <point x="207" y="694" type="line"/>
      <point x="176" y="492" type="line"/>
      <point x="58" y="492" type="line"/>
      <point x="58" y="409" type="line"/>
      <point x="162" y="409" type="line"/>
      <point x="146" y="299" type="line"/>
      <point x="30" y="299" type="line"/>
      <point x="30" y="215" type="line"/>
      <point x="132" y="215" type="line"/>
      <point x="99" y="0" type="line"/>
      <point x="190" y="0" type="line"/>
      <point x="225" y="215" type="line"/>
      <point x="322" y="215" type="line"/>
      <point x="289" y="0" type="line"/>
      <point x="383" y="0" type="line"/>
      <point x="416" y="215" type="line"/>
      <point x="532" y="215" type="line"/>
      <point x="532" y="299" type="line"/>
      <point x="430" y="299" type="line"/>
      <point x="447" y="409" type="line"/>
      <point x="557" y="409" type="line"/>
      <point x="557" y="492" type="line"/>
      <point x="459" y="492" type="line"/>
    </contour>
    <contour>
      <point x="256" y="409" type="line"/>
      <point x="353" y="409" type="line"/>
      <point x="336" y="299" type="line"/>
      <point x="237" y="299" type="line"/>
    </contour>
  </outline>
</glyph>
<glyph name="dollar" format="1">
  <unicode hex="0024"/>
  <advance width="508"/>
  <outline>
    <contour>
      <point x="447" y="501" type="line"/>
      <point x="447" y="633" type="line"/>
      <point x="402" y="668"/>
      <point x="348" y="689"/>
      <point x="286" y="693" type="curve" name="hr01"/>
      <point x="286" y="758" type="line"/>
      <point x="216" y="758" type="line"/>
      <point x="216" y="692" type="line"/>
      <point x="107" y="680"/>
      <point x="38" y="616"/>
      <point x="38" y="523" type="curve" smooth="yes"/>
      <point x="38" y="449"/>
      <point x="81" y="394"/>
      <point x="174" y="340" type="curve"/>
      <point x="216" y="317" type="line"/>
      <point x="216" y="62" type="line"/>
      <point x="142" y="69"/>
      <point x="96" y="118"/>
      <point x="78" y="211" type="curve"/>
      <point x="30" y="211" type="line"/>
      <point x="30" y="57" type="line"/>
      <point x="92" y="22"/>
      <point x="148" y="4"/>
      <point x="216" y="1" type="curve"/>
      <point x="216" y="-87" type="line"/>
      <point x="286" y="-87" type="line"/>
      <point x="286" y="2" type="line"/>
      <point x="400" y="15"/>
      <point x="478" y="90"/>
      <point x="478" y="193" type="curve" smooth="yes"/>
      <point x="478" y="276"/>
      <point x="435" y="334"/>
      <point x="335" y="392" type="curve" smooth="yes"/>
      <point x="286" y="420" type="line"/>
      <point x="286" y="633" type="line" name="hr02"/>
      <point x="344" y="621"/>
      <point x="385" y="574"/>
      <point x="398" y="501" type="curve"/>
    </contour>
    <contour>
      <point x="364" y="168" type="line" name="hr03"/>
      <point x="364" y="114"/>
      <point x="335" y="77"/>
      <point x="286" y="64" type="curve"/>
      <point x="286" y="276" type="line"/>
      <point x="341" y="243"/>
      <point x="364" y="211"/>
      <point x="364" y="168" type="curve"/>
    </contour>
    <contour>
      <point x="150" y="552" type="line"/>
      <point x="150" y="593"/>
      <point x="176" y="624"/>
      <point x="216" y="633" type="curve"/>
      <point x="216" y="460" type="line"/>
      <point x="167" y="492"/>
      <point x="150" y="515"/>
      <point x="150" y="552" type="curve"/>
    </contour>
  </outline>
</glyph>
<glyph name="percent" format="1">
  <unicode hex="0025"/>
  <advance width="809"/>
  <outline>
    <contour>
      <point x="566" y="717" type="line"/>
      <point x="528" y="674"/>
      <point x="487" y="657"/>
      <point x="421" y="657" type="curve" smooth="yes"/>
      <point x="373" y="657"/>
      <point x="349" y="672"/>
      <point x="327" y="687" type="curve" smooth="yes"/>
      <point x="306" y="700"/>
      <point x="287" y="711"/>
      <point x="257" y="711" type="curve" smooth="yes"/>
      <point x="145" y="711"/>
      <point x="30" y="587"/>
      <point x="30" y="465" type="curve" smooth="yes"/>
      <point x="30" y="380"/>
      <point x="81" y="326"/>
      <point x="156" y="326" type="curve" smooth="yes"/>
      <point x="268" y="326"/>
      <point x="377" y="453"/>
      <point x="377" y="584" type="curve" smooth="yes"/>
      <point x="377" y="592"/>
      <point x="377" y="599"/>
      <point x="376" y="605" type="curve"/>
      <point x="388" y="603"/>
      <point x="402" y="603"/>
      <point x="420" y="603" type="curve" smooth="yes"/>
      <point x="456" y="603"/>
      <point x="480" y="604"/>
      <point x="507" y="613" type="curve"/>
      <point x="156" y="-17" type="line"/>
      <point x="244" y="-17" type="line"/>
      <point x="655" y="717" type="line"/>
    </contour>
    <contour>
      <point x="662" y="371" type="line" name="hr01"/>
      <point x="543" y="371"/>
      <point x="429" y="253"/>
      <point x="429" y="126" type="curve" smooth="yes"/>
      <point x="429" y="33"/>
      <point x="475" y="-17"/>
      <point x="558" y="-17" type="curve" smooth="yes"/>
      <point x="670" y="-17"/>
      <point x="779" y="108"/>
      <point x="779" y="242" type="curve" smooth="yes"/>
      <point x="779" y="324"/>
      <point x="735" y="371"/>
      <point x="662" y="371" type="curve"/>
    </contour>
    <contour>
      <point x="673" y="304" type="line"/>
      <point x="698" y="304"/>
      <point x="716" y="278"/>
      <point x="716" y="237" type="curve" smooth="yes"/>
      <point x="716" y="145"/>
      <point x="643" y="42"/>
      <point x="578" y="42" type="curve" smooth="yes"/>
      <point x="552" y="42"/>
      <point x="538" y="65"/>
      <point x="538" y="106" type="curve" smooth="yes"/>
      <point x="538" y="202"/>
      <point x="609" y="304"/>
      <point x="673" y="304" type="curve"/>
    </contour>
    <contour>
      <point x="284" y="639" type="line"/>
      <point x="283" y="640" type="line" smooth="yes"/>
      <point x="298" y="631"/>
      <point x="313" y="624"/>
      <point x="313" y="582" type="curve" smooth="yes"/>
      <point x="313" y="485"/>
      <point x="245" y="388"/>
      <point x="178" y="388" type="curve" smooth="yes" name="hr02"/>
      <point x="153" y="388"/>
      <point x="139" y="408"/>
      <point x="139" y="448" type="curve" smooth="yes"/>
      <point x="139" y="531"/>
      <point x="199" y="626"/>
      <point x="261" y="651" type="curve"/>
      <point x="267" y="646"/>
      <point x="275" y="642"/>
      <point x="284" y="639" type="curve"/>
    </contour>
  </outline>
</glyph>
<glyph name="ampersand" format="1">
  <unicode hex="0026"/>
  <advance width="808"/>
  <outline>
    <contour>
      <point x="485" y="457" type="line"/>
      <point x="485" y="408" type="line"/>
      <point x="532" y="405"/>
      <point x="549" y="396"/>
      <point x="549" y="375" type="curve" smooth="yes"/>
      <point x="549" y="339"/>
      <point x="519" y="275"/>
      <point x="474" y="221" type="curve"/>
      <point x="441" y="265"/>
      <point x="399" y="329"/>
      <point x="368" y="391" type="curve"/>
      <point x="472" y="443"/>
      <point x="518" y="497"/>
      <point x="518" y="572" type="curve" smooth="yes"/>
      <point x="518" y="649"/>
      <point x="455" y="708"/>
      <point x="369" y="708" type="curve" smooth="yes"/>
      <point x="274" y="708"/>
      <point x="193" y="629"/>
      <point x="193" y="536" type="curve" smooth="yes"/>
      <point x="193" y="495"/>
      <point x="204" y="448"/>
      <point x="226" y="394" type="curve"/>
      <point x="82" y="319"/>
      <point x="30" y="258"/>
      <point x="30" y="164" type="curve" smooth="yes"/>
      <point x="30" y="55"/>
      <point x="106" y="-12"/>
      <point x="224" y="-12" type="curve" smooth="yes"/>
      <point x="305" y="-12"/>
      <point x="375" y="15"/>
      <point x="436" y="71" type="curve"/>
      <point x="489" y="15"/>
      <point x="547" y="-12"/>
      <point x="610" y="-12" type="curve" smooth="yes"/>
      <point x="678" y="-12"/>
      <point x="724" y="26"/>
      <point x="778" y="118" type="curve"/>
      <point x="740" y="153" type="line"/>
      <point x="704" y="108"/>
      <point x="681" y="88"/>
      <point x="655" y="88" type="curve" smooth="yes" name="hr01"/>
      <point x="611" y="88"/>
      <point x="568" y="111"/>
      <point x="522" y="165" type="curve"/>
      <point x="543" y="191"/>
      <point x="561" y="219"/>
      <point x="583" y="256" type="curve" smooth="yes"/>
      <point x="621" y="320"/>
      <point x="631" y="337"/>
      <point x="633" y="341" type="curve" smooth="yes"/>
      <point x="663" y="390"/>
      <point x="666" y="399"/>
      <point x="739" y="409" type="curve"/>
      <point x="739" y="457" type="line"/>
    </contour>
    <contour>
      <point x="389" y="120" type="line"/>
      <point x="353" y="87"/>
      <point x="316" y="71"/>
      <point x="278" y="71" type="curve" smooth="yes" name="hr02"/>
      <point x="215" y="71"/>
      <point x="160" y="128"/>
      <point x="160" y="195" type="curve" smooth="yes"/>
      <point x="160" y="253"/>
      <point x="194" y="302"/>
      <point x="253" y="333" type="curve"/>
      <point x="302" y="244"/>
      <point x="338" y="183"/>
      <point x="389" y="120" type="curve"/>
    </contour>
    <contour>
      <point x="308" y="569" type="line"/>
      <point x="308" y="616"/>
      <point x="330" y="644"/>
      <point x="366" y="644" type="curve" smooth="yes"/>
      <point x="402" y="644"/>
      <point x="429" y="615"/>
      <point x="429" y="572" type="curve" smooth="yes"/>
      <point x="429" y="521"/>
      <point x="400" y="483"/>
      <point x="339" y="450" type="curve"/>
      <point x="320" y="493"/>
      <point x="308" y="536"/>
      <point x="308" y="569" type="curve"/>
    </contour>
  </outline>
</glyph>
<glyph name="quotesingle" format="1">
  <unicode hex="0027"/>
  <advance width="180"/>
  <outline>
    <contour>
      <point x="35" y="613" type="line"/>
      <point x="35" y="614" type="line"/>
      <point x="62" y="436" type="line"/>
      <point x="116" y="436" type="line"/>
      <point x="150" y="641" type="line"/>
      <point x="150" y="708"/>
      <point x="103" y="708"/>
      <point x="90" y="708" type="curve" smooth="yes"/>
      <point x="70" y="708"/>
      <point x="30" y="708"/>
      <point x="30" y="641" type="curve"/>
    </contour>
  </outline>
</glyph>
<glyph name="parenleft" format="1">
  <unicode hex="0028"/>
  <advance width="354"/>
  <outline>
    <contour>
      <point x="299" y="723" type="line"/>
      <point x="120" y="611"/>
      <point x="30" y="463"/>
      <point x="30" y="277" type="curve" smooth="yes"/>
      <point x="30" y="93"/>
      <point x="111" y="-50"/>
      <point x="293" y="-177" type="curve"/>
      <point x="322" y="-138" type="line"/>
      <point x="195" y="-23"/>
      <point x="150" y="85"/>
      <point x="150" y="286" type="curve" smooth="yes"/>
      <point x="150" y="459"/>
      <point x="186" y="573"/>
      <point x="324" y="678" type="curve"/>
    </contour>
  </outline>
</glyph>
<glyph name="parenright" format="1">
  <unicode hex="0029"/>
  <advance width="354"/>
  <outline>
    <contour>
      <point x="30" y="678" type="line"/>
      <point x="165" y="578"/>
      <point x="204" y="466"/>
      <point x="204" y="286" type="curve" smooth="yes"/>
      <point x="204" y="85"/>
      <point x="159" y="-23"/>
      <point x="32" y="-138" type="curve"/>
      <point x="61" y="-177" type="line"/>
      <point x="241" y="-49"/>
      <point x="324" y="93"/>
      <point x="324" y="277" type="curve" smooth="yes"/>
      <point x="324" y="463"/>
      <point x="235" y="611"/>
      <point x="55" y="723" type="curve"/>
    </contour>
  </outline>
</glyph>
<glyph name="asterisk" format="1">
  <unicode hex="002A"/>
  <advance width="479"/>
  <outline>
    <contour>
      <point x="89" y="464" type="line"/>
      <point x="78" y="463"/>
      <point x="65" y="460"/>
      <point x="58" y="456" type="curve"/>
      <point x="39" y="448"/>
      <point x="30" y="430"/>
      <point x="30" y="413" type="curve" smooth="yes"/>
      <point x="30" y="404"/>
      <point x="33" y="393"/>
      <point x="39" y="383" type="curve" smooth="yes"/>
      <point x="38" y="384" type="line" smooth="yes"/>
      <point x="49" y="366"/>
      <point x="68" y="356"/>
      <point x="88" y="356" type="curve" smooth="yes"/>
      <point x="99" y="356"/>
      <point x="108" y="359"/>
      <point x="117" y="363" type="curve"/>
      <point x="122" y="367"/>
      <point x="127" y="371"/>
      <point x="130" y="376" type="curve"/>
      <point x="138" y="383" type="line"/>
      <point x="171" y="417"/>
      <point x="183" y="427"/>
      <point x="209" y="445" type="curve" name="hr01"/>
      <point x="208" y="412"/>
      <point x="204" y="399"/>
      <point x="189" y="357" type="curve"/>
      <point x="187" y="347" type="line"/>
      <point x="184" y="340"/>
      <point x="182" y="335"/>
      <point x="182" y="328" type="curve" smooth="yes" name="hr02"/>
      <point x="182" y="299"/>
      <point x="207" y="276"/>
      <point x="239" y="276" type="curve" smooth="yes"/>
      <point x="273" y="276"/>
      <point x="297" y="299"/>
      <point x="297" y="328" type="curve" smooth="yes"/>
      <point x="297" y="335"/>
      <point x="295" y="340"/>
      <point x="293" y="348" type="curve" smooth="yes"/>
      <point x="290" y="357" type="line" smooth="yes"/>
      <point x="274" y="400"/>
      <point x="270" y="413"/>
      <point x="268" y="445" type="curve" name="hr03"/>
      <point x="296" y="427"/>
      <point x="307" y="417"/>
      <point x="341" y="382" type="curve" smooth="yes"/>
      <point x="348" y="375" type="line"/>
      <point x="352" y="369"/>
      <point x="356" y="364"/>
      <point x="362" y="362" type="curve" smooth="yes"/>
      <point x="371" y="358"/>
      <point x="380" y="356"/>
      <point x="389" y="356" type="curve" smooth="yes"/>
      <point x="408" y="356"/>
      <point x="428" y="365"/>
      <point x="439" y="383" type="curve" smooth="yes"/>
      <point x="445" y="394"/>
      <point x="448" y="404"/>
      <point x="448" y="412" type="curve" smooth="yes" name="hr04"/>
      <point x="448" y="430"/>
      <point x="437" y="446"/>
      <point x="418" y="456" type="curve" smooth="yes"/>
      <point x="421" y="455" type="line"/>
      <point x="415" y="460"/>
      <point x="401" y="463"/>
      <point x="387" y="464" type="curve"/>
      <point x="388" y="464" type="line"/>
      <point x="337" y="473"/>
      <point x="324" y="477"/>
      <point x="295" y="492" type="curve"/>
      <point x="325" y="506"/>
      <point x="338" y="510"/>
      <point x="390" y="520" type="curve"/>
      <point x="401" y="521"/>
      <point x="413" y="524"/>
      <point x="420" y="528" type="curve"/>
      <point x="419" y="528" type="line"/>
      <point x="439" y="537"/>
      <point x="449" y="555"/>
      <point x="449" y="572" type="curve" smooth="yes"/>
      <point x="449" y="581"/>
      <point x="446" y="592"/>
      <point x="439" y="602" type="curve"/>
      <point x="439" y="601" type="line"/>
      <point x="428" y="618"/>
      <point x="409" y="627"/>
      <point x="390" y="627" type="curve" smooth="yes"/>
      <point x="381" y="627"/>
      <point x="371" y="625"/>
      <point x="361" y="620" type="curve" smooth="yes"/>
      <point x="356" y="617"/>
      <point x="350" y="612"/>
      <point x="346" y="606" type="curve"/>
      <point x="340" y="601" type="line"/>
      <point x="308" y="567"/>
      <point x="297" y="558"/>
      <point x="269" y="539" type="curve"/>
      <point x="271" y="571"/>
      <point x="274" y="584"/>
      <point x="290" y="628" type="curve" smooth="yes"/>
      <point x="289" y="627" type="line" smooth="yes"/>
      <point x="294" y="638"/>
      <point x="298" y="648"/>
      <point x="298" y="656" type="curve" smooth="yes"/>
      <point x="298" y="686"/>
      <point x="274" y="708"/>
      <point x="240" y="708" type="curve" smooth="yes"/>
      <point x="208" y="708"/>
      <point x="183" y="686"/>
      <point x="183" y="656" type="curve" smooth="yes"/>
      <point x="183" y="656"/>
      <point x="187" y="644"/>
      <point x="189" y="634" type="curve" smooth="yes"/>
      <point x="190" y="632"/>
      <point x="190" y="629"/>
      <point x="190" y="627" type="curve"/>
      <point x="190" y="628" type="line"/>
      <point x="206" y="584"/>
      <point x="209" y="571"/>
      <point x="211" y="538" type="curve"/>
      <point x="184" y="556"/>
      <point x="171" y="565"/>
      <point x="139" y="600" type="curve"/>
      <point x="133" y="605" type="line" smooth="yes"/>
      <point x="127" y="611"/>
      <point x="139" y="614"/>
      <point x="114" y="621" type="curve" smooth="yes"/>
      <point x="105" y="624"/>
      <point x="97" y="626"/>
      <point x="88" y="626" type="curve" smooth="yes"/>
      <point x="69" y="626"/>
      <point x="51" y="617"/>
      <point x="40" y="600" type="curve"/>
      <point x="40" y="601" type="line"/>
      <point x="34" y="591"/>
      <point x="31" y="580"/>
      <point x="31" y="571" type="curve" smooth="yes"/>
      <point x="31" y="553"/>
      <point x="42" y="537"/>
      <point x="58" y="528" type="curve"/>
      <point x="88" y="519" type="line"/>
      <point x="140" y="509"/>
      <point x="154" y="504"/>
      <point x="184" y="491" type="curve"/>
      <point x="154" y="477"/>
      <point x="140" y="473"/>
      <point x="89" y="464" type="curve"/>
    </contour>
  </outline>
</glyph>
<glyph name="plus" format="1">
  <unicode hex="002B"/>
  <advance width="599"/>
  <outline>
    <contour>
      <point x="249" y="544" type="line"/>
      <point x="249" y="323" type="line"/>
      <point x="30" y="323" type="line"/>
      <point x="30" y="229" type="line"/>
      <point x="249" y="229" type="line"/>
      <point x="249" y="8" type="line"/>
      <point x="350" y="8" type="line"/>
      <point x="350" y="229" type="line"/>
      <point x="569" y="229" type="line"/>
      <point x="569" y="323" type="line"/>
      <point x="350" y="323" type="line"/>
      <point x="350" y="544" type="line"/>
    </contour>
  </outline>
</glyph>
<glyph name="comma" format="1">
  <unicode hex="002C"/>
  <advance width="233"/>
  <outline>
    <contour>
      <point x="65" y="-149" type="line"/>
      <point x="154" y="-102"/>
      <point x="203" y="-42"/>
      <point x="203" y="21" type="curve" smooth="yes"/>
      <point x="203" y="86"/>
      <point x="164" y="134"/>
      <point x="108" y="134" type="curve" smooth="yes"/>
      <point x="62" y="134"/>
      <point x="30" y="103"/>
      <point x="30" y="61" type="curve" smooth="yes"/>
      <point x="30" y="23"/>
      <point x="60" y="-8"/>
      <point x="100" y="-8" type="curve" smooth="yes"/>
      <point x="102" y="-8"/>
      <point x="106" y="-8"/>
      <point x="111" y="-6" type="curve" smooth="yes"/>
      <point x="109" y="-7" type="line" smooth="yes"/>
      <point x="114" y="-6"/>
      <point x="124" y="-4"/>
      <point x="125" y="-4" type="curve" smooth="yes" name="hr01"/>
      <point x="126" y="-4"/>
      <point x="126" y="-5"/>
      <point x="126" y="-8" type="curve" smooth="yes" name="hr02"/>
      <point x="126" y="-33"/>
      <point x="89" y="-75"/>
      <point x="40" y="-103" type="curve"/>
    </contour>
  </outline>
</glyph>
<glyph name="period" format="1">
  <unicode hex="002E"/>
  <advance width="210"/>
  <outline>
    <contour>
      <point x="104" y="134" type="line"/>
      <point x="60" y="134"/>
      <point x="30" y="102"/>
      <point x="30" y="60" type="curve" smooth="yes"/>
      <point x="30" y="21"/>
      <point x="60" y="-12"/>
      <point x="104" y="-12" type="curve" smooth="yes"/>
      <point x="147" y="-12"/>
      <point x="180" y="21"/>
      <point x="180" y="60" type="curve" smooth="yes"/>
      <point x="180" y="102"/>
      <point x="147" y="134"/>
      <point x="104" y="134" type="curve"/>
    </contour>
  </outline>
</glyph>
<glyph name="slash" format="1">
  <unicode hex="002F"/>
  <advance width="419"/>
  <outline>
    <contour>
      <point x="293" y="714" type="line"/>
      <point x="30" y="-108" type="line"/>
      <point x="126" y="-108" type="line"/>
      <point x="389" y="714" type="line"/>
    </contour>
  </outline>
</glyph>
<glyph name="zero" format="1">
  <unicode hex="0030"/>
  <advance width="547"/>
  <outline>
    <contour>
      <point x="273" y="708" type="line"/>
      <point x="128" y="708"/>
      <point x="30" y="559"/>
      <point x="30" y="347" type="curve" smooth="yes"/>
      <point x="30" y="133"/>
      <point x="128" y="-12"/>
      <point x="273" y="-12" type="curve" smooth="yes"/>
      <point x="416" y="-12"/>
      <point x="517" y="133"/>
      <point x="517" y="347" type="curve" smooth="yes"/>
      <point x="517" y="559"/>
      <point x="416" y="708"/>
      <point x="273" y="708" type="curve"/>
    </contour>
    <contour>
      <point x="273" y="648" type="line"/>
      <point x="352" y="648"/>
      <point x="385" y="558"/>
      <point x="385" y="347" type="curve" smooth="yes"/>
      <point x="385" y="135"/>
      <point x="352" y="46"/>
      <point x="273" y="46" type="curve" smooth="yes"/>
      <point x="193" y="46"/>
      <point x="161" y="135"/>
      <point x="161" y="347" type="curve" smooth="yes"/>
      <point x="161" y="558"/>
      <point x="193" y="648"/>
      <point x="273" y="648" type="curve"/>
    </contour>
  </outline>
</glyph>
<glyph name="one" format="1">
  <unicode hex="0031"/>
  <advance width="377"/>
  <outline>
    <contour>
      <point x="252" y="718" type="line"/>
      <point x="30" y="604" type="line"/>
      <point x="30" y="551" type="line"/>
      <point x="83" y="576"/>
      <point x="108" y="584"/>
      <point x="118" y="584" type="curve" smooth="yes"/>
      <point x="129" y="584"/>
      <point x="132" y="569"/>
      <point x="132" y="518" type="curve" smooth="yes" name="hr01"/>
      <point x="132" y="115" type="line" smooth="yes"/>
      <point x="132" y="66"/>
      <point x="114" y="50"/>
      <point x="38" y="47" type="curve"/>
      <point x="38" y="0" type="line"/>
      <point x="347" y="0" type="line"/>
      <point x="347" y="47" type="line"/>
      <point x="272" y="50"/>
      <point x="252" y="66"/>
      <point x="252" y="115" type="curve" smooth="yes"/>
    </contour>
  </outline>
</glyph>
<glyph name="two" format="1">
  <unicode hex="0032"/>
  <advance width="545"/>
  <outline>
    <contour>
      <point x="515" y="160" type="line"/>
      <point x="468" y="180" type="line"/>
      <point x="427" y="109"/>
      <point x="426" y="107"/>
      <point x="356" y="107" type="curve" smooth="yes"/>
      <point x="186" y="107" type="line"/>
      <point x="300" y="225" type="line" smooth="yes"/>
      <point x="422" y="350"/>
      <point x="461" y="427"/>
      <point x="461" y="513" type="curve" smooth="yes"/>
      <point x="461" y="624"/>
      <point x="378" y="708"/>
      <point x="263" y="708" type="curve" smooth="yes"/>
      <point x="150" y="708"/>
      <point x="68" y="648"/>
      <point x="30" y="484" type="curve"/>
      <point x="82" y="470" type="line"/>
      <point x="118" y="564"/>
      <point x="157" y="602"/>
      <point x="217" y="602" type="curve" smooth="yes"/>
      <point x="290" y="602"/>
      <point x="339" y="553"/>
      <point x="339" y="475" type="curve" smooth="yes"/>
      <point x="339" y="400"/>
      <point x="289" y="305"/>
      <point x="201" y="212" type="curve" smooth="yes"/>
      <point x="31" y="34" type="line"/>
      <point x="31" y="0" type="line"/>
      <point x="451" y="0" type="line"/>
    </contour>
  </outline>
</glyph>
<glyph name="three" format="1">
  <unicode hex="0033"/>
  <advance width="486"/>
  <outline>
    <contour>
      <point x="85" y="509" type="line"/>
      <point x="121" y="580"/>
      <point x="163" y="617"/>
      <point x="214" y="617" type="curve" smooth="yes"/>
      <point x="269" y="617"/>
      <point x="306" y="582"/>
      <point x="306" y="528" type="curve" smooth="yes"/>
      <point x="306" y="461"/>
      <point x="271" y="430"/>
      <point x="143" y="373" type="curve"/>
      <point x="143" y="332" type="line"/>
      <point x="279" y="331"/>
      <point x="347" y="283"/>
      <point x="347" y="191" type="curve" smooth="yes" name="hr01"/>
      <point x="347" y="111"/>
      <point x="300" y="55"/>
      <point x="233" y="55" type="curve" smooth="yes"/>
      <point x="216" y="55"/>
      <point x="180" y="73"/>
      <point x="151" y="87" type="curve" smooth="yes"/>
      <point x="125" y="99"/>
      <point x="102" y="110"/>
      <point x="89" y="110" type="curve" smooth="yes" name="hr02"/>
      <point x="58" y="110"/>
      <point x="33" y="87"/>
      <point x="33" y="59" type="curve" smooth="yes"/>
      <point x="33" y="11"/>
      <point x="77" y="-12"/>
      <point x="162" y="-12" type="curve" smooth="yes"/>
      <point x="338" y="-12"/>
      <point x="456" y="84"/>
      <point x="456" y="234" type="curve" smooth="yes"/>
      <point x="456" y="321"/>
      <point x="418" y="383"/>
      <point x="345" y="422" type="curve"/>
      <point x="398" y="463"/>
      <point x="423" y="506"/>
      <point x="423" y="561" type="curve" smooth="yes" name="hr03"/>
      <point x="423" y="650"/>
      <point x="355" y="708"/>
      <point x="252" y="708" type="curve" smooth="yes"/>
      <point x="142" y="708"/>
      <point x="73" y="647"/>
      <point x="30" y="522" type="curve"/>
    </contour>
  </outline>
</glyph>
<glyph name="four" format="1">
  <unicode hex="0034"/>
  <advance width="557"/>
  <outline>
    <contour>
      <point x="352" y="708" type="line"/>
      <point x="30" y="252" type="line"/>
      <point x="30" y="166" type="line"/>
      <point x="312" y="166" type="line"/>
      <point x="312" y="0" type="line"/>
      <point x="424" y="0" type="line"/>
      <point x="424" y="166" type="line"/>
      <point x="527" y="166" type="line"/>
      <point x="527" y="264" type="line"/>
      <point x="424" y="264" type="line"/>
      <point x="424" y="708" type="line"/>
    </contour>
    <contour>
      <point x="123" y="264" type="line"/>
      <point x="312" y="529" type="line"/>
      <point x="312" y="264" type="line"/>
    </contour>
  </outline>
</glyph>
<glyph name="five" format="1">
  <unicode hex="0035"/>
  <advance width="505"/>
  <outline>
    <contour>
      <point x="177" y="694" type="line"/>
      <point x="143" y="620"/>
      <point x="117" y="558"/>
      <point x="100" y="523" type="curve"/>
      <point x="65" y="444"/>
      <point x="63" y="445"/>
      <point x="63" y="436" type="curve" smooth="yes"/>
      <point x="63" y="423"/>
      <point x="72" y="414"/>
      <point x="91" y="412" type="curve" smooth="yes"/>
      <point x="261" y="399"/>
      <point x="351" y="329"/>
      <point x="351" y="209" type="curve" smooth="yes"/>
      <point x="351" y="120"/>
      <point x="298" y="54"/>
      <point x="231" y="54" type="curve" smooth="yes"/>
      <point x="218" y="54"/>
      <point x="205" y="58"/>
      <point x="191" y="69" type="curve"/>
      <point x="191" y="68" type="line"/>
      <point x="139" y="111"/>
      <point x="123" y="116"/>
      <point x="92" y="116" type="curve" smooth="yes" name="hr01"/>
      <point x="51" y="116"/>
      <point x="30" y="98"/>
      <point x="30" y="61" type="curve" smooth="yes"/>
      <point x="30" y="11"/>
      <point x="76" y="-12"/>
      <point x="167" y="-12" type="curve" smooth="yes"/>
      <point x="345" y="-12"/>
      <point x="461" y="91"/>
      <point x="461" y="257" type="curve" smooth="yes"/>
      <point x="461" y="411"/>
      <point x="372" y="496"/>
      <point x="177" y="527" type="curve"/>
      <point x="203" y="582" type="line"/>
      <point x="418" y="582" type="line"/>
      <point x="475" y="703" type="line"/>
      <point x="431" y="727" type="line"/>
      <point x="414" y="700"/>
      <point x="405" y="694"/>
      <point x="389" y="694" type="curve" smooth="yes"/>
    </contour>
  </outline>
</glyph>
<glyph name="six" format="1">
  <unicode hex="0036"/>
  <advance width="528"/>
  <outline>
    <contour>
      <point x="469" y="717" type="line"/>
      <point x="203" y="693"/>
      <point x="30" y="499"/>
      <point x="30" y="284" type="curve" smooth="yes"/>
      <point x="30" y="124"/>
      <point x="115" y="-12"/>
      <point x="269" y="-12" type="curve" smooth="yes"/>
      <point x="404" y="-12"/>
      <point x="498" y="91"/>
      <point x="498" y="235" type="curve" smooth="yes"/>
      <point x="498" y="372"/>
      <point x="422" y="456"/>
      <point x="302" y="456" type="curve" smooth="yes"/>
      <point x="261" y="456"/>
      <point x="222" y="446"/>
      <point x="185" y="426" type="curve"/>
      <point x="228" y="554"/>
      <point x="318" y="635"/>
      <point x="479" y="667" type="curve"/>
    </contour>
    <contour>
      <point x="258" y="381" type="line"/>
      <point x="329" y="381"/>
      <point x="371" y="315"/>
      <point x="371" y="201" type="curve" smooth="yes"/>
      <point x="371" y="102"/>
      <point x="338" y="46"/>
      <point x="280" y="46" type="curve" smooth="yes"/>
      <point x="207" y="46"/>
      <point x="160" y="134"/>
      <point x="160" y="271" type="curve" smooth="yes"/>
      <point x="160" y="358"/>
      <point x="198" y="381"/>
      <point x="258" y="381" type="curve"/>
    </contour>
  </outline>
</glyph>
<glyph name="seven" format="1">
  <unicode hex="0037"/>
  <advance width="530"/>
  <outline>
    <contour>
      <point x="98" y="694" type="line"/>
      <point x="30" y="526" type="line"/>
      <point x="76" y="501" type="line"/>
      <point x="122" y="577"/>
      <point x="136" y="587"/>
      <point x="183" y="587" type="curve" smooth="yes"/>
      <point x="398" y="587" type="line"/>
      <point x="174" y="-12" type="line"/>
      <point x="279" y="-12" type="line"/>
      <point x="500" y="660" type="line"/>
      <point x="500" y="694" type="line"/>
    </contour>
  </outline>
</glyph>
<glyph name="eight" format="1">
  <unicode hex="0038"/>
  <advance width="485"/>
  <outline>
    <contour>
      <point x="441" y="552" type="line"/>
      <point x="441" y="643"/>
      <point x="363" y="708"/>
      <point x="251" y="708" type="curve" smooth="yes"/>
      <point x="134" y="708"/>
      <point x="44" y="632"/>
      <point x="44" y="534" type="curve" smooth="yes"/>
      <point x="44" y="463"/>
      <point x="47" y="443"/>
      <point x="167" y="347" type="curve"/>
      <point x="69" y="290"/>
      <point x="30" y="239"/>
      <point x="30" y="164" type="curve" smooth="yes" name="hr01"/>
      <point x="30" y="58"/>
      <point x="118" y="-12"/>
      <point x="239" y="-12" type="curve" smooth="yes"/>
      <point x="367" y="-12"/>
      <point x="455" y="60"/>
      <point x="455" y="173" type="curve" smooth="yes"/>
      <point x="455" y="252"/>
      <point x="434" y="288"/>
      <point x="319" y="382" type="curve"/>
      <point x="404" y="432"/>
      <point x="441" y="486"/>
      <point x="441" y="552" type="curve" name="hr02"/>
    </contour>
    <contour>
      <point x="341" y="141" type="line"/>
      <point x="341" y="82"/>
      <point x="302" y="45"/>
      <point x="243" y="45" type="curve" smooth="yes"/>
      <point x="182" y="45"/>
      <point x="140" y="94"/>
      <point x="140" y="167" type="curve" smooth="yes"/>
      <point x="140" y="222"/>
      <point x="162" y="265"/>
      <point x="215" y="308" type="curve"/>
      <point x="322" y="227"/>
      <point x="341" y="197"/>
      <point x="341" y="141" type="curve"/>
    </contour>
    <contour>
      <point x="152" y="564" type="line" name="hr03"/>
      <point x="152" y="614"/>
      <point x="190" y="649"/>
      <point x="244" y="649" type="curve" smooth="yes"/>
      <point x="299" y="649"/>
      <point x="336" y="608"/>
      <point x="336" y="546" type="curve" smooth="yes"/>
      <point x="336" y="501"/>
      <point x="314" y="456"/>
      <point x="272" y="419" type="curve"/>
      <point x="161" y="501"/>
      <point x="152" y="518"/>
      <point x="152" y="564" type="curve"/>
    </contour>
  </outline>
</glyph>
<glyph name="nine" format="1">
  <unicode hex="0039"/>
  <advance width="524"/>
  <outline>
    <contour>
      <point x="58" y="-24" type="line"/>
      <point x="326" y="8"/>
      <point x="494" y="194"/>
      <point x="494" y="410" type="curve" smooth="yes"/>
      <point x="494" y="564"/>
      <point x="412" y="708"/>
      <point x="258" y="708" type="curve" smooth="yes"/>
      <point x="122" y="708"/>
      <point x="30" y="603"/>
      <point x="30" y="459" type="curve" smooth="yes"/>
      <point x="30" y="323"/>
      <point x="105" y="238"/>
      <point x="226" y="238" type="curve" smooth="yes"/>
      <point x="265" y="238"/>
      <point x="302" y="248"/>
      <point x="339" y="267" type="curve"/>
      <point x="297" y="139"/>
      <point x="207" y="57"/>
      <point x="49" y="28" type="curve"/>
    </contour>
    <contour>
      <point x="249" y="648" type="line"/>
      <point x="321" y="648"/>
      <point x="364" y="561"/>
      <point x="364" y="422" type="curve" smooth="yes"/>
      <point x="364" y="336"/>
      <point x="327" y="314"/>
      <point x="270" y="314" type="curve" smooth="yes"/>
      <point x="200" y="314"/>
      <point x="157" y="380"/>
      <point x="157" y="493" type="curve" smooth="yes"/>
      <point x="157" y="592"/>
      <point x="190" y="648"/>
      <point x="249" y="648" type="curve"/>
    </contour>
  </outline>
</glyph>
<glyph name="colon" format="1">
  <unicode hex="003A"/>
  <advance width="211"/>
  <outline>
    <contour>
      <point x="105" y="491" type="line"/>
      <point x="65" y="491"/>
      <point x="30" y="457"/>
      <point x="30" y="418" type="curve" smooth="yes"/>
      <point x="30" y="376"/>
      <point x="65" y="343"/>
      <point x="105" y="343" type="curve" smooth="yes"/>
      <point x="148" y="343"/>
      <point x="181" y="376"/>
      <point x="181" y="418" type="curve" smooth="yes"/>
      <point x="181" y="457"/>
      <point x="148" y="491"/>
      <point x="105" y="491" type="curve"/>
    </contour>
    <contour>
      <point x="105" y="134" type="line"/>
      <point x="65" y="134"/>
      <point x="30" y="102"/>
      <point x="30" y="60" type="curve" smooth="yes"/>
      <point x="30" y="21"/>
      <point x="65" y="-12"/>
      <point x="105" y="-12" type="curve" smooth="yes"/>
      <point x="148" y="-12"/>
      <point x="181" y="21"/>
      <point x="181" y="60" type="curve" smooth="yes"/>
      <point x="181" y="102"/>
      <point x="148" y="134"/>
      <point x="105" y="134" type="curve"/>
    </contour>
  </outline>
</glyph>
<glyph name="semicolon" format="1">
  <unicode hex="003B"/>
  <advance width="233"/>
  <outline>
    <contour>
      <point x="65" y="-149" type="line"/>
      <point x="154" y="-102"/>
      <point x="203" y="-42"/>
      <point x="203" y="21" type="curve" smooth="yes"/>
      <point x="203" y="86"/>
      <point x="164" y="134"/>
      <point x="108" y="134" type="curve" smooth="yes"/>
      <point x="62" y="134"/>
      <point x="30" y="103"/>
      <point x="30" y="61" type="curve" smooth="yes"/>
      <point x="30" y="23"/>
      <point x="60" y="-8"/>
      <point x="100" y="-8" type="curve" smooth="yes"/>
      <point x="100" y="-8"/>
      <point x="108" y="-7"/>
      <point x="111" y="-6" type="curve" smooth="yes"/>
      <point x="116" y="-5"/>
      <point x="121" y="-4"/>
      <point x="120" y="-4" type="curve" smooth="yes" name="hr01"/>
      <point x="124" y="-4"/>
      <point x="126" y="-5"/>
      <point x="126" y="-8" type="curve" smooth="yes" name="hr02"/>
      <point x="126" y="-33"/>
      <point x="89" y="-75"/>
      <point x="40" y="-103" type="curve"/>
    </contour>
    <contour>
      <point x="116" y="491" type="line"/>
      <point x="76" y="491"/>
      <point x="42" y="457"/>
      <point x="42" y="418" type="curve" smooth="yes" name="hr03"/>
      <point x="42" y="376"/>
      <point x="76" y="343"/>
      <point x="116" y="343" type="curve" smooth="yes"/>
      <point x="159" y="343"/>
      <point x="193" y="376"/>
      <point x="193" y="418" type="curve" smooth="yes"/>
      <point x="193" y="457"/>
      <point x="159" y="491"/>
      <point x="116" y="491" type="curve"/>
    </contour>
  </outline>
</glyph>
<glyph name="less" format="1">
  <unicode hex="003C"/>
  <advance width="604"/>
  <outline>
    <contour>
      <point x="574" y="565" type="line"/>
      <point x="30" y="314" type="line"/>
      <point x="30" y="240" type="line"/>
      <point x="574" y="-11" type="line"/>
      <point x="574" y="86" type="line"/>
      <point x="168" y="276" type="line"/>
      <point x="574" y="468" type="line"/>
    </contour>
  </outline>
</glyph>
<glyph name="equal" format="1">
  <unicode hex="003D"/>
  <advance width="599"/>
  <outline>
    <contour>
      <point x="30" y="228" type="line"/>
      <point x="30" y="132" type="line"/>
      <point x="569" y="132" type="line"/>
      <point x="569" y="228" type="line"/>
    </contour>
    <contour>
      <point x="30" y="420" type="line"/>
      <point x="30" y="325" type="line"/>
      <point x="569" y="325" type="line"/>
      <point x="569" y="420" type="line"/>
    </contour>
  </outline>
</glyph>
<glyph name="greater" format="1">
  <unicode hex="003E"/>
  <advance width="604"/>
  <outline>
    <contour>
      <point x="30" y="565" type="line"/>
      <point x="30" y="468" type="line"/>
      <point x="435" y="276" type="line"/>
      <point x="30" y="86" type="line"/>
      <point x="30" y="-11" type="line"/>
      <point x="574" y="240" type="line"/>
      <point x="574" y="314" type="line"/>
    </contour>
  </outline>
</glyph>
<glyph name="question" format="1">
  <unicode hex="003F"/>
  <advance width="441"/>
  <outline>
    <contour>
      <point x="240" y="164" type="line"/>
      <point x="254" y="275"/>
      <point x="325" y="356"/>
      <point x="343" y="376" type="curve" smooth="yes"/>
      <point x="349" y="384" type="line"/>
      <point x="347" y="380" type="line" smooth="yes"/>
      <point x="394" y="450"/>
      <point x="411" y="487"/>
      <point x="411" y="532" type="curve" smooth="yes"/>
      <point x="411" y="632"/>
      <point x="329" y="708"/>
      <point x="217" y="708" type="curve" smooth="yes"/>
      <point x="113" y="708"/>
      <point x="30" y="639"/>
      <point x="30" y="551" type="curve" smooth="yes"/>
      <point x="30" y="500"/>
      <point x="58" y="470"/>
      <point x="98" y="470" type="curve" smooth="yes"/>
      <point x="134" y="470"/>
      <point x="159" y="495"/>
      <point x="159" y="530" type="curve" smooth="yes"/>
      <point x="159" y="552"/>
      <point x="145" y="567"/>
      <point x="134" y="581" type="curve" smooth="yes"/>
      <point x="128" y="588"/>
      <point x="123" y="596"/>
      <point x="123" y="600" type="curve" smooth="yes" name="hr01"/>
      <point x="123" y="625"/>
      <point x="154" y="645"/>
      <point x="194" y="645" type="curve" smooth="yes"/>
      <point x="248" y="645"/>
      <point x="283" y="600"/>
      <point x="283" y="532" type="curve" smooth="yes"/>
      <point x="283" y="487"/>
      <point x="272" y="446"/>
      <point x="245" y="388" type="curve" smooth="yes"/>
      <point x="199" y="292"/>
      <point x="192" y="257"/>
      <point x="188" y="164" type="curve"/>
    </contour>
    <contour>
      <point x="215" y="134" type="line"/>
      <point x="175" y="134"/>
      <point x="141" y="102"/>
      <point x="141" y="60" type="curve" smooth="yes" name="hr02"/>
      <point x="141" y="21"/>
      <point x="175" y="-12"/>
      <point x="215" y="-12" type="curve" smooth="yes"/>
      <point x="258" y="-12"/>
      <point x="292" y="21"/>
      <point x="292" y="60" type="curve" smooth="yes"/>
      <point x="292" y="102"/>
      <point x="258" y="134"/>
      <point x="215" y="134" type="curve"/>
    </contour>
  </outline>
</glyph>
<glyph name="at" format="1">
  <unicode hex="0040"/>
  <advance width="916"/>
  <outline>
    <contour>
      <point x="609" y="514" type="line"/>
      <point x="603" y="495" type="line"/>
      <point x="588" y="513"/>
      <point x="566" y="521"/>
      <point x="532" y="521" type="curve" smooth="yes"/>
      <point x="390" y="520"/>
      <point x="225" y="330"/>
      <point x="225" y="166" type="curve" smooth="yes"/>
      <point x="225" y="88"/>
      <point x="275" y="33"/>
      <point x="349" y="33" type="curve" smooth="yes"/>
      <point x="410" y="33"/>
      <point x="460" y="61"/>
      <point x="506" y="120" type="curve"/>
      <point x="508" y="65"/>
      <point x="544" y="33"/>
      <point x="610" y="33" type="curve" smooth="yes"/>
      <point x="758" y="33"/>
      <point x="886" y="184"/>
      <point x="886" y="375" type="curve" smooth="yes"/>
      <point x="886" y="578"/>
      <point x="750" y="708"/>
      <point x="536" y="708" type="curve" smooth="yes"/>
      <point x="257" y="708"/>
      <point x="30" y="482"/>
      <point x="30" y="209" type="curve" smooth="yes"/>
      <point x="30" y="-11"/>
      <point x="188" y="-152"/>
      <point x="433" y="-152" type="curve" smooth="yes"/>
      <point x="544" y="-152"/>
      <point x="651" y="-124"/>
      <point x="750" y="-69" type="curve"/>
      <point x="713" y="-4" type="line"/>
      <point x="632" y="-59"/>
      <point x="543" y="-88"/>
      <point x="446" y="-88" type="curve" smooth="yes"/>
      <point x="265" y="-88"/>
      <point x="138" y="33"/>
      <point x="138" y="202" type="curve" smooth="yes"/>
      <point x="138" y="437"/>
      <point x="327" y="638"/>
      <point x="550" y="638" type="curve" smooth="yes"/>
      <point x="718" y="638"/>
      <point x="816" y="537"/>
      <point x="816" y="372" type="curve" smooth="yes"/>
      <point x="816" y="235"/>
      <point x="741" y="112"/>
      <point x="645" y="112" type="curve" smooth="yes"/>
      <point x="627" y="112"/>
      <point x="618" y="120"/>
      <point x="618" y="135" type="curve" smooth="yes"/>
      <point x="618" y="144"/>
      <point x="620" y="158"/>
      <point x="625" y="176" type="curve" smooth="yes"/>
      <point x="720" y="514" type="line"/>
    </contour>
    <contour>
      <point x="533" y="461" type="line"/>
      <point x="558" y="461"/>
      <point x="570" y="446"/>
      <point x="570" y="415" type="curve" smooth="yes"/>
      <point x="570" y="300"/>
      <point x="466" y="117"/>
      <point x="385" y="117" type="curve" smooth="yes"/>
      <point x="357" y="117"/>
      <point x="341" y="139"/>
      <point x="341" y="176" type="curve" smooth="yes"/>
      <point x="341" y="277"/>
      <point x="431" y="461"/>
      <point x="533" y="461" type="curve"/>
    </contour>
  </outline>
</glyph>
<glyph name="G" format="1">
  <unicode hex="0047"/>
  <advance width="772"/>
  <outline>
    <contour>
      <point x="663" y="708" type="line"/>
      <point x="600" y="708" type="line"/>
      <point x="593" y="686"/>
      <point x="583" y="674"/>
      <point x="572" y="674" type="curve" smooth="yes" name="hr01"/>
      <point x="551" y="674"/>
      <point x="516" y="683"/>
      <point x="481" y="691" type="curve"/>
      <point x="481" y="690" type="line"/>
      <point x="446" y="700"/>
      <point x="411" y="708"/>
      <point x="388" y="708" type="curve" smooth="yes" name="hr02"/>
      <point x="180" y="708"/>
      <point x="30" y="554"/>
      <point x="30" y="343" type="curve" smooth="yes"/>
      <point x="30" y="133"/>
      <point x="178" y="-12"/>
      <point x="399" y="-12" type="curve" smooth="yes"/>
      <point x="482" y="-12"/>
      <point x="592" y="19"/>
      <point x="670" y="63" type="curve"/>
      <point x="670" y="264" type="line" smooth="yes"/>
      <point x="670" y="317"/>
      <point x="682" y="331"/>
      <point x="742" y="339" type="curve"/>
      <point x="742" y="388" type="line"/>
      <point x="449" y="388" type="line"/>
      <point x="449" y="338" type="line"/>
      <point x="522" y="333"/>
      <point x="538" y="320"/>
      <point x="538" y="264" type="curve" smooth="yes"/>
      <point x="538" y="130" type="line" smooth="yes"/>
      <point x="538" y="74"/>
      <point x="506" y="60"/>
      <point x="415" y="60" type="curve" smooth="yes"/>
      <point x="273" y="60"/>
      <point x="180" y="171"/>
      <point x="180" y="340" type="curve" smooth="yes"/>
      <point x="180" y="525"/>
      <point x="263" y="635"/>
      <point x="401" y="635" type="curve" smooth="yes"/>
      <point x="500" y="635"/>
      <point x="569" y="578"/>
      <point x="606" y="464" type="curve"/>
      <point x="663" y="464" type="line"/>
    </contour>
  </outline>
</glyph>
<glyph name="H" format="1">
  <unicode hex="0048"/>
  <advance width="780"/>
  <outline>
    <contour>
      <point x="433" y="48" type="curve"/>
      <point x="433" y="0" type="line"/>
      <point x="750" y="0" type="line"/>
      <point x="750" y="48" type="line"/>
      <point x="676" y="58"/>
      <point x="661" y="64"/>
      <point x="661" y="124" type="curve" smooth="yes"/>
      <point x="661" y="571" type="line" smooth="yes"/>
      <point x="661" y="627"/>
      <point x="676" y="640"/>
      <point x="750" y="645" type="curve"/>
      <point x="750" y="694" type="line"/>
      <point x="433" y="694" type="line"/>
      <point x="433" y="645" type="line"/>
      <point x="508" y="640"/>
      <point x="523" y="627"/>
      <point x="523" y="571" type="curve" smooth="yes"/>
      <point x="523" y="391" type="line"/>
      <point x="259" y="391" type="line"/>
      <point x="259" y="571" type="line" smooth="yes"/>
      <point x="259" y="627"/>
      <point x="274" y="640"/>
      <point x="348" y="645" type="curve"/>
      <point x="348" y="694" type="line"/>
      <point x="30" y="694" type="line"/>
      <point x="30" y="645" type="line"/>
      <point x="105" y="640"/>
      <point x="121" y="627"/>
      <point x="121" y="571" type="curve" smooth="yes"/>
      <point x="121" y="124" type="line" smooth="yes"/>
      <point x="121" y="65"/>
      <point x="104" y="57"/>
      <point x="30" y="48" type="curve"/>
      <point x="30" y="0" type="line"/>
      <point x="348" y="0" type="line"/>
      <point x="348" y="48" type="line"/>
      <point x="274" y="58"/>
      <point x="259" y="64"/>
      <point x="259" y="124" type="curve" smooth="yes"/>
      <point x="259" y="319" type="line"/>
      <point x="523" y="319" type="line"/>
      <point x="523" y="124" type="line" smooth="yes"/>
      <point x="523" y="65"/>
      <point x="507" y="57"/>
    </contour>
  </outline>
</glyph>
<glyph name="Q" format="1">
  <unicode hex="0051"/>
  <advance width="764"/>
  <outline>
    <contour>
      <point x="734" y="-125" type="line"/>
      <point x="631" y="-122"/>
      <point x="527" y="-72"/>
      <point x="472" y="0" type="curve"/>
      <point x="626" y="41"/>
      <point x="722" y="176"/>
      <point x="722" y="347" type="curve" smooth="yes"/>
      <point x="722" y="556"/>
      <point x="575" y="708"/>
      <point x="377" y="708" type="curve" smooth="yes"/>
      <point x="173" y="708"/>
      <point x="30" y="557"/>
      <point x="30" y="347" type="curve" smooth="yes"/>
      <point x="30" y="184"/>
      <point x="123" y="46"/>
      <point x="270" y="2" type="curve" name="hr01"/>
      <point x="375" y="-131"/>
      <point x="472" y="-174"/>
      <point x="734" y="-174" type="curve"/>
    </contour>
    <contour>
      <point x="368" y="639" type="curve" smooth="yes"/>
      <point x="489" y="639"/>
      <point x="571" y="520"/>
      <point x="571" y="343" type="curve" smooth="yes"/>
      <point x="571" y="159"/>
      <point x="501" y="56"/>
      <point x="380" y="56" type="curve" smooth="yes" name="hr02"/>
      <point x="259" y="56"/>
      <point x="182" y="174"/>
      <point x="182" y="353" type="curve" smooth="yes"/>
      <point x="182" y="531"/>
      <point x="250" y="639"/>
    </contour>
  </outline>
</glyph>
<glyph name="Z" format="1">
  <unicode hex="005A"/>
  <advance width="689"/>
  <outline>
    <contour>
      <point x="74" y="492" type="line"/>
      <point x="112" y="492" type="line"/>
      <point x="137" y="596"/>
      <point x="168" y="623"/>
      <point x="282" y="623" type="curve" smooth="yes"/>
      <point x="454" y="623" type="line"/>
      <point x="30" y="33" type="line"/>
      <point x="30" y="0" type="line"/>
      <point x="629" y="0" type="line"/>
      <point x="659" y="208" type="line"/>
      <point x="601" y="208" type="line"/>
      <point x="565" y="96"/>
      <point x="534" y="71"/>
      <point x="424" y="71" type="curve" smooth="yes"/>
      <point x="220" y="71" type="line"/>
      <point x="639" y="662" type="line"/>
      <point x="639" y="694" type="line"/>
      <point x="74" y="694" type="line"/>
    </contour>
  </outline>
</glyph>
<glyph name="bracketleft" format="1">
  <unicode hex="005B"/>
  <advance width="306"/>
  <outline>
    <contour>
      <point x="276" y="-88" type="line"/>
      <point x="192" y="-88" type="line" smooth="yes"/>
      <point x="146" y="-88"/>
      <point x="142" y="-83"/>
      <point x="142" y="-35" type="curve" smooth="yes" name="hr01"/>
      <point x="142" y="597" type="line" smooth="yes"/>
      <point x="142" y="644"/>
      <point x="146" y="649"/>
      <point x="192" y="649" type="curve" smooth="yes"/>
      <point x="276" y="649" type="line" name="hr02"/>
      <point x="276" y="705" type="line"/>
      <point x="30" y="705" type="line"/>
      <point x="30" y="-143" type="line"/>
      <point x="276" y="-143" type="line"/>
    </contour>
  </outline>
</glyph>
<glyph name="backslash" format="1">
  <unicode hex="005C"/>
  <advance width="497"/>
  <outline>
    <contour>
      <point x="99" y="714" type="line"/>
      <point x="0" y="714" type="line"/>
      <point x="397" y="-108" type="line"/>
      <point x="497" y="-108" type="line"/>
    </contour>
  </outline>
</glyph>
<glyph name="bracketright" format="1">
  <unicode hex="005D"/>
  <advance width="306"/>
  <outline>
    <contour>
      <point x="276" y="-143" type="line"/>
      <point x="276" y="705" type="line"/>
      <point x="30" y="705" type="line"/>
      <point x="30" y="649" type="line"/>
      <point x="115" y="649" type="line" smooth="yes"/>
      <point x="160" y="649"/>
      <point x="164" y="644"/>
      <point x="164" y="597" type="curve" smooth="yes" name="hr01"/>
      <point x="164" y="-35" type="line" smooth="yes"/>
      <point x="164" y="-83"/>
      <point x="160" y="-88"/>
      <point x="115" y="-88" type="curve" smooth="yes"/>
      <point x="30" y="-88" type="line" name="hr02"/>
      <point x="30" y="-143" type="line"/>
    </contour>
  </outline>
</glyph>
<glyph name="asciicircum" format="1">
  <unicode hex="005E"/>
  <advance width="556"/>
  <outline>
    <contour>
      <point x="526" y="257" type="line"/>
      <point x="324" y="694" type="line"/>
      <point x="234" y="694" type="line"/>
      <point x="30" y="257" type="line"/>
      <point x="142" y="257" type="line"/>
      <point x="279" y="563" type="line"/>
      <point x="413" y="257" type="line"/>
    </contour>
  </outline>
</glyph>
<glyph name="underscore" format="1">
  <unicode hex="005F"/>
  <advance width="596"/>
  <outline>
    <contour>
      <point x="30" y="-53" type="line"/>
      <point x="30" y="-132" type="line"/>
      <point x="566" y="-132" type="line"/>
      <point x="566" y="-53" type="line"/>
    </contour>
  </outline>
</glyph>
<glyph name="grave" format="1">
  <unicode hex="0060"/>
  <advance width="420"/>
  <outline>
    <contour>
      <point x="352" y="508" type="line"/>
      <point x="195" y="667" type="line"/>
      <point x="187" y="675" type="line" smooth="yes"/>
      <point x="160" y="702"/>
      <point x="151" y="711"/>
      <point x="123" y="711" type="curve" smooth="yes"/>
      <point x="93" y="711"/>
      <point x="68" y="689"/>
      <point x="68" y="662" type="curve" smooth="yes"/>
      <point x="68" y="637"/>
      <point x="80" y="624"/>
      <point x="115" y="602" type="curve" smooth="yes"/>
      <point x="264" y="508" type="line"/>
    </contour>
  </outline>
</glyph>
<glyph name="b" format="1">
  <unicode hex="0062"/>
  <advance width="534"/>
  <outline>
    <contour>
      <point x="66" y="55" type="line"/>
      <point x="115" y="11"/>
      <point x="177" y="-11"/>
      <point x="249" y="-11" type="curve" smooth="yes"/>
      <point x="391" y="-11"/>
      <point x="501" y="105"/>
      <point x="501" y="260" type="curve" smooth="yes"/>
      <point x="501" y="391"/>
      <point x="419" y="491"/>
      <point x="308" y="491" type="curve" smooth="yes"/>
      <point x="264" y="491"/>
      <point x="226" y="476"/>
      <point x="186" y="439" type="curve"/>
      <point x="186" y="720" type="line"/>
      <point x="0" y="661" type="line"/>
      <point x="0" y="616" type="line"/>
      <point x="1" y="616"/>
      <point x="23" y="617"/>
      <point x="24" y="617" type="curve" smooth="yes"/>
      <point x="28" y="618"/>
      <point x="30" y="618"/>
      <point x="31" y="618" type="curve"/>
      <point x="40" y="618" type="line" smooth="yes"/>
      <point x="61" y="618"/>
      <point x="66" y="608"/>
      <point x="66" y="562" type="curve" smooth="yes"/>
    </contour>
    <contour>
      <point x="265" y="395" type="line"/>
      <point x="334" y="395"/>
      <point x="375" y="325"/>
      <point x="375" y="215" type="curve" smooth="yes"/>
      <point x="375" y="114"/>
      <point x="335" y="54"/>
      <point x="264" y="54" type="curve" smooth="yes"/>
      <point x="218" y="54"/>
      <point x="186" y="72"/>
      <point x="186" y="98" type="curve" smooth="yes"/>
      <point x="186" y="322" type="line"/>
      <point x="191" y="376"/>
      <point x="221" y="395"/>
      <point x="265" y="395" type="curve"/>
    </contour>
  </outline>
</glyph>
<glyph name="d" format="1">
  <unicode hex="0064"/>
  <advance width="560"/>
  <outline>
    <contour>
      <point x="530" y="91" type="line"/>
      <point x="489" y="91" type="line" smooth="yes"/>
      <point x="468" y="91"/>
      <point x="463" y="96"/>
      <point x="463" y="123" type="curve" smooth="yes"/>
      <point x="463" y="721" type="line"/>
      <point x="269" y="657" type="line"/>
      <point x="269" y="612" type="line"/>
      <point x="298" y="616"/>
      <point x="313" y="618"/>
      <point x="317" y="618" type="curve" smooth="yes"/>
      <point x="338" y="618"/>
      <point x="342" y="607"/>
      <point x="342" y="562" type="curve" smooth="yes"/>
      <point x="342" y="470" type="line"/>
      <point x="317" y="485"/>
      <point x="288" y="491"/>
      <point x="257" y="491" type="curve" smooth="yes"/>
      <point x="132" y="491"/>
      <point x="30" y="369"/>
      <point x="30" y="225" type="curve" smooth="yes"/>
      <point x="30" y="90"/>
      <point x="110" y="-11"/>
      <point x="227" y="-11" type="curve" smooth="yes"/>
      <point x="271" y="-11"/>
      <point x="309" y="5"/>
      <point x="342" y="33" type="curve"/>
      <point x="342" y="-19" type="line" name="hr01"/>
      <point x="486" y="38"/>
      <point x="499" y="42"/>
      <point x="505" y="43" type="curve"/>
      <point x="509" y="43"/>
      <point x="514" y="43"/>
      <point x="530" y="50" type="curve"/>
    </contour>
    <contour>
      <point x="342" y="139" type="line" smooth="yes"/>
      <point x="342" y="105"/>
      <point x="309" y="80"/>
      <point x="266" y="80" type="curve" smooth="yes" name="hr02"/>
      <point x="196" y="80"/>
      <point x="152" y="150"/>
      <point x="152" y="252" type="curve" smooth="yes"/>
      <point x="152" y="361"/>
      <point x="192" y="427"/>
      <point x="259" y="427" type="curve" smooth="yes"/>
      <point x="313" y="427"/>
      <point x="342" y="388"/>
      <point x="342" y="317" type="curve" smooth="yes"/>
    </contour>
  </outline>
</glyph>
<glyph name="f" format="1">
  <unicode hex="0066"/>
  <advance width="416"/>
  <outline>
    <contour>
      <point x="30" y="480" type="line"/>
      <point x="30" y="415" type="line"/>
      <point x="115" y="415" type="line"/>
      <point x="115" y="110" type="line" smooth="yes"/>
      <point x="115" y="63"/>
      <point x="100" y="45"/>
      <point x="59" y="45" type="curve" smooth="yes"/>
      <point x="30" y="45" type="line"/>
      <point x="30" y="0" type="line"/>
      <point x="321" y="0" type="line"/>
      <point x="321" y="45" type="line"/>
      <point x="292" y="45" type="line" smooth="yes"/>
      <point x="251" y="45"/>
      <point x="237" y="63"/>
      <point x="237" y="110" type="curve" smooth="yes"/>
      <point x="237" y="415" type="line"/>
      <point x="355" y="415" type="line"/>
      <point x="355" y="480" type="line"/>
      <point x="237" y="480" type="line"/>
      <point x="237" y="552" type="line" smooth="yes"/>
      <point x="237" y="627"/>
      <point x="244" y="651"/>
      <point x="274" y="651" type="curve" smooth="yes"/>
      <point x="284" y="651"/>
      <point x="296" y="636"/>
      <point x="307" y="621" type="curve" smooth="yes"/>
      <point x="324" y="599"/>
      <point x="340" y="577"/>
      <point x="371" y="577" type="curve" smooth="yes" name="hr01"/>
      <point x="404" y="577"/>
      <point x="429" y="600"/>
      <point x="429" y="631" type="curve" smooth="yes"/>
      <point x="429" y="677"/>
      <point x="376" y="711"/>
      <point x="306" y="711" type="curve" smooth="yes"/>
      <point x="189" y="711"/>
      <point x="115" y="626"/>
      <point x="115" y="487" type="curve" smooth="yes"/>
      <point x="115" y="480" type="line"/>
    </contour>
  </outline>
</glyph>
<glyph name="i" format="1">
  <unicode hex="0069"/>
  <advance width="331"/>
  <outline>
    <contour>
      <point x="30" y="391" type="line"/>
      <point x="34" y="391"/>
      <point x="57" y="392"/>
      <point x="61" y="392" type="curve"/>
      <point x="69" y="393"/>
      <point x="75" y="393"/>
      <point x="79" y="393" type="curve" smooth="yes"/>
      <point x="100" y="393"/>
      <point x="105" y="383"/>
      <point x="105" y="339" type="curve" smooth="yes" name="hr01"/>
      <point x="105" y="110" type="line" smooth="yes"/>
      <point x="105" y="63"/>
      <point x="92" y="45"/>
      <point x="54" y="45" type="curve" smooth="yes"/>
      <point x="30" y="45" type="line" name="hr02"/>
      <point x="30" y="0" type="line"/>
      <point x="301" y="0" type="line"/>
      <point x="301" y="45" type="line"/>
      <point x="278" y="45" type="line" smooth="yes"/>
      <point x="239" y="45"/>
      <point x="226" y="63"/>
      <point x="226" y="110" type="curve" smooth="yes"/>
      <point x="226" y="497" type="line"/>
      <point x="30" y="433" type="line"/>
    </contour>
    <contour>
      <point x="157" y="712" type="curve" smooth="yes"/>
      <point x="120" y="712"/>
      <point x="88" y="684"/>
      <point x="88" y="645" type="curve" smooth="yes" name="hr03"/>
      <point x="88" y="608"/>
      <point x="120" y="578"/>
      <point x="157" y="578" type="curve" smooth="yes"/>
      <point x="197" y="578"/>
      <point x="227" y="608"/>
      <point x="227" y="645" type="curve" smooth="yes"/>
      <point x="227" y="684"/>
      <point x="197" y="712"/>
    </contour>
  </outline>
</glyph>
<glyph name="j" format="1">
  <unicode hex="006A"/>
  <advance width="303"/>
  <outline>
    <contour>
      <point x="72" y="391" type="line"/>
      <point x="96" y="391" type="line"/>
      <point x="104" y="392"/>
      <point x="111" y="393"/>
      <point x="121" y="393" type="curve" smooth="yes"/>
      <point x="142" y="393"/>
      <point x="146" y="383"/>
      <point x="146" y="339" type="curve" smooth="yes"/>
      <point x="146" y="-64" type="line" smooth="yes"/>
      <point x="146" y="-127"/>
      <point x="137" y="-157"/>
      <point x="115" y="-157" type="curve" smooth="yes"/>
      <point x="104" y="-157"/>
      <point x="96" y="-142"/>
      <point x="86" y="-128" type="curve" smooth="yes"/>
      <point x="72" y="-108"/>
      <point x="60" y="-87"/>
      <point x="32" y="-87" type="curve" smooth="yes" name="hr01"/>
      <point x="-5" y="-87"/>
      <point x="-28" y="-109"/>
      <point x="-28" y="-144" type="curve" smooth="yes"/>
      <point x="-28" y="-188"/>
      <point x="16" y="-217"/>
      <point x="83" y="-217" type="curve" smooth="yes"/>
      <point x="202" y="-217"/>
      <point x="267" y="-136"/>
      <point x="267" y="15" type="curve" smooth="yes"/>
      <point x="267" y="497" type="line"/>
      <point x="72" y="434" type="line"/>
    </contour>
    <contour>
      <point x="204" y="712" type="line"/>
      <point x="163" y="712"/>
      <point x="135" y="684"/>
      <point x="135" y="645" type="curve" smooth="yes"/>
      <point x="135" y="608"/>
      <point x="163" y="578"/>
      <point x="204" y="578" type="curve" smooth="yes"/>
      <point x="241" y="578"/>
      <point x="273" y="608"/>
      <point x="273" y="645" type="curve" smooth="yes"/>
      <point x="273" y="684"/>
      <point x="241" y="712"/>
      <point x="204" y="712" type="curve"/>
    </contour>
  </outline>
</glyph>
<glyph name="o" format="1">
  <unicode hex="006F"/>
  <advance width="535"/>
  <outline>
    <contour>
      <point x="272" y="491" type="curve" smooth="yes"/>
      <point x="137" y="491"/>
      <point x="30" y="379"/>
      <point x="30" y="232" type="curve" smooth="yes"/>
      <point x="30" y="93"/>
      <point x="127" y="-11"/>
      <point x="261" y="-11" type="curve" smooth="yes"/>
      <point x="397" y="-11"/>
      <point x="505" y="103"/>
      <point x="505" y="252" type="curve" smooth="yes"/>
      <point x="505" y="389"/>
      <point x="406" y="491"/>
    </contour>
    <contour>
      <point x="250" y="427" type="curve" smooth="yes"/>
      <point x="328" y="427"/>
      <point x="377" y="340"/>
      <point x="377" y="211" type="curve" smooth="yes"/>
      <point x="377" y="110"/>
      <point x="343" y="54"/>
      <point x="282" y="54" type="curve" smooth="yes"/>
      <point x="207" y="54"/>
      <point x="157" y="142"/>
      <point x="157" y="273" type="curve" smooth="yes"/>
      <point x="157" y="367"/>
      <point x="190" y="427"/>
    </contour>
  </outline>
</glyph>
<glyph name="q" format="1">
  <unicode hex="0071"/>
  <advance width="569"/>
  <outline>
    <contour>
      <point x="464" y="516" type="line"/>
      <point x="382" y="461" type="line"/>
      <point x="342" y="484"/>
      <point x="314" y="491"/>
      <point x="274" y="491" type="curve" smooth="yes"/>
      <point x="132" y="491"/>
      <point x="30" y="376"/>
      <point x="30" y="224" type="curve" smooth="yes"/>
      <point x="30" y="79"/>
      <point x="99" y="-11"/>
      <point x="213" y="-11" type="curve" smooth="yes"/>
      <point x="264" y="-11"/>
      <point x="303" y="4"/>
      <point x="344" y="40" type="curve"/>
      <point x="344" y="-107" type="line" smooth="yes"/>
      <point x="344" y="-154"/>
      <point x="331" y="-172"/>
      <point x="298" y="-172" type="curve" smooth="yes"/>
      <point x="269" y="-172" type="line"/>
      <point x="269" y="-217" type="line"/>
      <point x="539" y="-217" type="line"/>
      <point x="539" y="-172" type="line"/>
      <point x="512" y="-172" type="line" smooth="yes"/>
      <point x="477" y="-172"/>
      <point x="464" y="-154"/>
      <point x="464" y="-107" type="curve" smooth="yes"/>
    </contour>
    <contour>
      <point x="344" y="353" type="line"/>
      <point x="344" y="135" type="line" smooth="yes"/>
      <point x="344" y="110"/>
      <point x="300" y="81"/>
      <point x="258" y="81" type="curve" smooth="yes"/>
      <point x="191" y="81"/>
      <point x="151" y="149"/>
      <point x="151" y="257" type="curve" smooth="yes"/>
      <point x="151" y="360"/>
      <point x="197" y="431"/>
      <point x="265" y="431" type="curve" smooth="yes"/>
      <point x="316" y="431"/>
      <point x="344" y="407"/>
      <point x="344" y="353" type="curve"/>
    </contour>
  </outline>
</glyph>
<glyph name="t" format="1">
  <unicode hex="0074"/>
  <advance width="368"/>
  <outline>
    <contour>
      <point x="210" y="610" type="line"/>
      <point x="170" y="610" type="line"/>
      <point x="133" y="545"/>
      <point x="88" y="494"/>
      <point x="30" y="453" type="curve"/>
      <point x="30" y="415" type="line"/>
      <point x="90" y="415" type="line"/>
      <point x="90" y="110" type="line" smooth="yes"/>
      <point x="90" y="24"/>
      <point x="118" y="-11"/>
      <point x="195" y="-11" type="curve" smooth="yes"/>
      <point x="248" y="-11"/>
      <point x="288" y="17"/>
      <point x="338" y="87" type="curve"/>
      <point x="295" y="120" type="line"/>
      <point x="269" y="84"/>
      <point x="255" y="75"/>
      <point x="240" y="75" type="curve" smooth="yes"/>
      <point x="218" y="75"/>
      <point x="210" y="78"/>
      <point x="210" y="167" type="curve" smooth="yes"/>
      <point x="210" y="415" type="line"/>
      <point x="308" y="415" type="line"/>
      <point x="308" y="480" type="line"/>
      <point x="210" y="480" type="line"/>
    </contour>
  </outline>
</glyph>
<glyph name="braceleft" format="1">
  <unicode hex="007B"/>
  <advance width="325"/>
  <outline>
    <contour>
      <point x="30" y="230" type="line"/>
      <point x="84" y="228"/>
      <point x="105" y="207"/>
      <point x="105" y="148" type="curve" smooth="yes"/>
      <point x="105" y="-21" type="line" smooth="yes"/>
      <point x="105" y="-155"/>
      <point x="141" y="-179"/>
      <point x="295" y="-186" type="curve" name="hr01"/>
      <point x="295" y="-135" type="line"/>
      <point x="232" y="-135"/>
      <point x="214" y="-113"/>
      <point x="214" y="-34" type="curve" smooth="yes" name="hr02"/>
      <point x="214" y="108" type="line" smooth="yes"/>
      <point x="214" y="192"/>
      <point x="203" y="234"/>
      <point x="166" y="255" type="curve"/>
      <point x="202" y="275"/>
      <point x="214" y="317"/>
      <point x="214" y="401" type="curve" smooth="yes"/>
      <point x="214" y="545" type="line" smooth="yes"/>
      <point x="214" y="623"/>
      <point x="232" y="645"/>
      <point x="295" y="645" type="curve" name="hr03"/>
      <point x="295" y="694" type="line"/>
      <point x="141" y="690"/>
      <point x="105" y="665"/>
      <point x="105" y="531" type="curve" smooth="yes"/>
      <point x="105" y="361" type="line" smooth="yes"/>
      <point x="105" y="303"/>
      <point x="84" y="282"/>
      <point x="30" y="279" type="curve"/>
    </contour>
  </outline>
</glyph>
<glyph name="bar" format="1">
  <unicode hex="007C"/>
  <advance width="125"/>
  <outline>
    <contour>
      <point x="30" y="-217" type="line"/>
      <point x="95" y="-217" type="line"/>
      <point x="95" y="850" type="line"/>
      <point x="30" y="850" type="line"/>
    </contour>
  </outline>
</glyph>
<glyph name="braceright" format="1">
  <unicode hex="007D"/>
  <advance width="326"/>
  <outline>
    <contour>
      <point x="296" y="279" type="line"/>
      <point x="242" y="282"/>
      <point x="220" y="303"/>
      <point x="220" y="361" type="curve" smooth="yes"/>
      <point x="220" y="531" type="line" smooth="yes"/>
      <point x="220" y="665"/>
      <point x="188" y="691"/>
      <point x="30" y="694" type="curve"/>
      <point x="30" y="645" type="line"/>
      <point x="97" y="645"/>
      <point x="111" y="623"/>
      <point x="111" y="545" type="curve" smooth="yes" name="hr01"/>
      <point x="111" y="401" type="line" smooth="yes"/>
      <point x="111" y="317"/>
      <point x="124" y="275"/>
      <point x="161" y="255" type="curve"/>
      <point x="124" y="233"/>
      <point x="111" y="191"/>
      <point x="111" y="108" type="curve" smooth="yes"/>
      <point x="111" y="-34" type="line" smooth="yes"/>
      <point x="111" y="-113"/>
      <point x="97" y="-135"/>
      <point x="30" y="-135" type="curve" name="hr02"/>
      <point x="30" y="-186" type="line"/>
      <point x="188" y="-180"/>
      <point x="220" y="-156"/>
      <point x="220" y="-21" type="curve" smooth="yes"/>
      <point x="220" y="148" type="line" smooth="yes"/>
      <point x="220" y="207"/>
      <point x="242" y="228"/>
      <point x="296" y="230" type="curve"/>
    </contour>
  </outline>
</glyph>
<glyph name="asciitilde" format="1">
  <unicode hex="007E"/>
  <advance width="607"/>
  <outline>
    <contour>
      <point x="520" y="454" type="line"/>
      <point x="483" y="390"/>
      <point x="449" y="359"/>
      <point x="420" y="359" type="curve" smooth="yes"/>
      <point x="414" y="359"/>
      <point x="365" y="377"/>
      <point x="316" y="396" type="curve"/>
      <point x="317" y="396" type="line"/>
      <point x="262" y="417"/>
      <point x="206" y="439"/>
      <point x="192" y="439" type="curve" smooth="yes" name="hr01"/>
      <point x="127" y="439"/>
      <point x="97" y="412"/>
      <point x="30" y="313" type="curve"/>
      <point x="86" y="241" type="line"/>
      <point x="138" y="320"/>
      <point x="156" y="341"/>
      <point x="191" y="341" type="curve" smooth="yes"/>
      <point x="201" y="341"/>
      <point x="240" y="324"/>
      <point x="281" y="307" type="curve" smooth="yes"/>
      <point x="333" y="284"/>
      <point x="391" y="261"/>
      <point x="417" y="261" type="curve" smooth="yes" name="hr02"/>
      <point x="476" y="261"/>
      <point x="533" y="304"/>
      <point x="577" y="383" type="curve"/>
    </contour>
  </outline>
</glyph>
<glyph name="exclamdown" format="1">
  <unicode hex="00A1"/>
  <advance width="210"/>
  <outline>
    <contour>
      <point x="111" y="341" type="line"/>
      <point x="82" y="341" type="line"/>
      <point x="34" y="-82" type="line"/>
      <point x="34" y="-94" type="line" smooth="yes"/>
      <point x="34" y="-159"/>
      <point x="58" y="-191"/>
      <point x="105" y="-191" type="curve" smooth="yes"/>
      <point x="152" y="-191"/>
      <point x="175" y="-159"/>
      <point x="175" y="-94" type="curve" smooth="yes"/>
      <point x="175" y="-83" type="line"/>
      <point x="175" y="-82"/>
      <point x="174" y="-79"/>
      <point x="174" y="-77" type="curve" smooth="yes"/>
      <point x="173" y="-54"/>
      <point x="164" y="41"/>
      <point x="129" y="328" type="curve"/>
    </contour>
    <contour>
      <point x="105" y="383" type="line"/>
      <point x="148" y="383"/>
      <point x="180" y="414"/>
      <point x="180" y="456" type="curve" smooth="yes"/>
      <point x="180" y="495"/>
      <point x="148" y="529"/>
      <point x="105" y="529" type="curve" smooth="yes"/>
      <point x="64" y="529"/>
      <point x="30" y="495"/>
      <point x="30" y="456" type="curve" smooth="yes"/>
      <point x="30" y="414"/>
      <point x="64" y="383"/>
      <point x="105" y="383" type="curve"/>
    </contour>
  </outline>
</glyph>
<glyph name="cent" format="1">
  <unicode hex="00A2"/>
  <advance width="496"/>
  <outline>
    <contour>
      <point x="237" y="-11" type="line"/>
      <point x="333" y="-11"/>
      <point x="397" y="41"/>
      <point x="466" y="171" type="curve"/>
      <point x="422" y="194" type="line"/>
      <point x="363" y="115"/>
      <point x="330" y="93"/>
      <point x="277" y="93" type="curve" smooth="yes"/>
      <point x="266" y="93"/>
      <point x="254" y="95"/>
      <point x="243" y="98" type="curve"/>
      <point x="325" y="339" type="line"/>
      <point x="337" y="318"/>
      <point x="358" y="307"/>
      <point x="382" y="307" type="curve" smooth="yes"/>
      <point x="419" y="307"/>
      <point x="447" y="333"/>
      <point x="447" y="373" type="curve" smooth="yes"/>
      <point x="447" y="409"/>
      <point x="417" y="448"/>
      <point x="371" y="470" type="curve"/>
      <point x="420" y="612" type="line"/>
      <point x="349" y="612" type="line"/>
      <point x="306" y="489" type="line"/>
      <point x="296" y="490"/>
      <point x="285" y="491"/>
      <point x="274" y="491" type="curve" smooth="yes"/>
      <point x="127" y="491"/>
      <point x="30" y="388"/>
      <point x="30" y="231" type="curve" smooth="yes"/>
      <point x="30" y="135"/>
      <point x="72" y="56"/>
      <point x="143" y="14" type="curve"/>
      <point x="92" y="-139" type="line"/>
      <point x="163" y="-139" type="line"/>
      <point x="207" y="-9" type="line"/>
      <point x="215" y="-11"/>
      <point x="225" y="-11"/>
      <point x="237" y="-11" type="curve"/>
    </contour>
    <contour>
      <point x="143" y="274" type="line"/>
      <point x="143" y="373"/>
      <point x="189" y="431"/>
      <point x="268" y="431" type="curve" smooth="yes"/>
      <point x="275" y="431"/>
      <point x="280" y="430"/>
      <point x="286" y="429" type="curve"/>
      <point x="186" y="137" type="line"/>
      <point x="159" y="172"/>
      <point x="143" y="219"/>
      <point x="143" y="274" type="curve"/>
    </contour>
  </outline>
</glyph>
<glyph name="sterling" format="1">
  <unicode hex="00A3"/>
  <advance width="580"/>
  <outline>
    <contour>
      <point x="45" y="405" type="line"/>
      <point x="45" y="328" type="line"/>
      <point x="151" y="328" type="line"/>
      <point x="153" y="316"/>
      <point x="154" y="305"/>
      <point x="156" y="295" type="curve" smooth="yes"/>
      <point x="168" y="210"/>
      <point x="169" y="200"/>
      <point x="169" y="175" type="curve"/>
      <point x="168" y="159" type="line"/>
      <point x="161" y="160"/>
      <point x="153" y="160"/>
      <point x="143" y="160" type="curve" smooth="yes"/>
      <point x="75" y="160"/>
      <point x="30" y="123"/>
      <point x="30" y="67" type="curve" smooth="yes"/>
      <point x="30" y="21"/>
      <point x="64" y="-12"/>
      <point x="117" y="-12" type="curve" smooth="yes"/>
      <point x="159" y="-12"/>
      <point x="188" y="2"/>
      <point x="217" y="41" type="curve"/>
      <point x="295" y="-5"/>
      <point x="312" y="-12"/>
      <point x="347" y="-12" type="curve" smooth="yes"/>
      <point x="355" y="-12" type="line" smooth="yes"/>
      <point x="442" y="-12"/>
      <point x="489" y="28"/>
      <point x="550" y="154" type="curve"/>
      <point x="510" y="181" type="line"/>
      <point x="467" y="122"/>
      <point x="434" y="103"/>
      <point x="377" y="103" type="curve" smooth="yes" name="hr01"/>
      <point x="343" y="103"/>
      <point x="304" y="113"/>
      <point x="259" y="132" type="curve"/>
      <point x="275" y="182"/>
      <point x="283" y="228"/>
      <point x="283" y="290" type="curve" smooth="yes"/>
      <point x="283" y="304"/>
      <point x="283" y="316"/>
      <point x="282" y="328" type="curve"/>
      <point x="402" y="328" type="line"/>
      <point x="402" y="405" type="line"/>
      <point x="273" y="405" type="line"/>
      <point x="271" y="429"/>
      <point x="270" y="445"/>
      <point x="269" y="458" type="curve" smooth="yes"/>
      <point x="267" y="476"/>
      <point x="266" y="486"/>
      <point x="266" y="494" type="curve" smooth="yes"/>
      <point x="266" y="515" type="line" smooth="yes"/>
      <point x="266" y="606"/>
      <point x="292" y="652"/>
      <point x="343" y="652" type="curve" smooth="yes"/>
      <point x="364" y="652"/>
      <point x="382" y="638"/>
      <point x="382" y="623" type="curve" smooth="yes"/>
      <point x="382" y="615"/>
      <point x="380" y="606"/>
      <point x="380" y="602" type="curve" smooth="yes"/>
      <point x="380" y="595" type="line" smooth="yes"/>
      <point x="380" y="558"/>
      <point x="400" y="534"/>
      <point x="439" y="534" type="curve" smooth="yes" name="hr02"/>
      <point x="478" y="534"/>
      <point x="509" y="561"/>
      <point x="509" y="601" type="curve" smooth="yes"/>
      <point x="509" y="660"/>
      <point x="443" y="708"/>
      <point x="358" y="708" type="curve" smooth="yes"/>
      <point x="222" y="708"/>
      <point x="140" y="611"/>
      <point x="140" y="453" type="curve" smooth="yes"/>
      <point x="140" y="435"/>
      <point x="140" y="422"/>
      <point x="142" y="405" type="curve"/>
    </contour>
    <contour>
      <point x="117" y="47" type="line"/>
      <point x="104" y="47"/>
      <point x="96" y="56"/>
      <point x="96" y="68" type="curve" smooth="yes"/>
      <point x="96" y="82"/>
      <point x="106" y="90"/>
      <point x="121" y="90" type="curve" smooth="yes"/>
      <point x="130" y="90"/>
      <point x="139" y="88"/>
      <point x="154" y="80" type="curve"/>
      <point x="148" y="61"/>
      <point x="133" y="47"/>
      <point x="117" y="47" type="curve"/>
    </contour>
  </outline>
</glyph>
<glyph name="currency" format="1">
  <unicode hex="00A4"/>
  <advance width="612"/>
  <outline>
    <contour>
      <point x="30" y="164" type="line"/>
      <point x="97" y="97" type="line"/>
      <point x="161" y="161" type="line"/>
      <point x="204" y="132"/>
      <point x="252" y="118"/>
      <point x="307" y="118" type="curve" smooth="yes"/>
      <point x="359" y="118"/>
      <point x="407" y="132"/>
      <point x="452" y="162" type="curve"/>
      <point x="515" y="97" type="line"/>
      <point x="582" y="164" type="line"/>
      <point x="518" y="227" type="line"/>
      <point x="550" y="273"/>
      <point x="565" y="321"/>
      <point x="565" y="373" type="curve" smooth="yes"/>
      <point x="565" y="425"/>
      <point x="550" y="473"/>
      <point x="518" y="517" type="curve"/>
      <point x="582" y="582" type="line"/>
      <point x="515" y="649" type="line"/>
      <point x="452" y="583" type="line"/>
      <point x="407" y="613"/>
      <point x="359" y="628"/>
      <point x="307" y="628" type="curve" smooth="yes"/>
      <point x="252" y="628"/>
      <point x="204" y="613"/>
      <point x="161" y="583" type="curve"/>
      <point x="97" y="649" type="line"/>
      <point x="30" y="582" type="line"/>
      <point x="93" y="517" type="line"/>
      <point x="63" y="472"/>
      <point x="48" y="424"/>
      <point x="48" y="373" type="curve" smooth="yes"/>
      <point x="48" y="320"/>
      <point x="63" y="273"/>
      <point x="93" y="227" type="curve"/>
    </contour>
    <contour>
      <point x="307" y="532" type="line"/>
      <point x="395" y="532"/>
      <point x="463" y="459"/>
      <point x="463" y="373" type="curve" smooth="yes"/>
      <point x="463" y="285"/>
      <point x="395" y="213"/>
      <point x="307" y="213" type="curve" smooth="yes" name="hr01"/>
      <point x="221" y="213"/>
      <point x="150" y="285"/>
      <point x="150" y="373" type="curve" smooth="yes"/>
      <point x="150" y="459"/>
      <point x="221" y="532"/>
      <point x="307" y="532" type="curve"/>
    </contour>
  </outline>
</glyph>
<glyph name="yen" format="1">
  <unicode hex="00A5"/>
  <advance width="640"/>
  <outline>
    <contour>
      <point x="233" y="629" type="line"/>
      <point x="233" y="637"/>
      <point x="251" y="642"/>
      <point x="289" y="645" type="curve"/>
      <point x="289" y="693" type="line"/>
      <point x="30" y="693" type="line"/>
      <point x="30" y="645" type="line"/>
      <point x="72" y="639"/>
      <point x="87" y="626"/>
      <point x="120" y="567" type="curve" smooth="yes"/>
      <point x="233" y="359" type="line"/>
      <point x="101" y="359" type="line"/>
      <point x="101" y="286" type="line"/>
      <point x="263" y="286" type="line"/>
      <point x="263" y="258" type="line"/>
      <point x="101" y="258" type="line"/>
      <point x="101" y="186" type="line"/>
      <point x="263" y="186" type="line"/>
      <point x="263" y="124" type="line" smooth="yes"/>
      <point x="263" y="65"/>
      <point x="246" y="57"/>
      <point x="172" y="48" type="curve"/>
      <point x="172" y="0" type="line"/>
      <point x="472" y="0" type="line"/>
      <point x="472" y="48" type="line"/>
      <point x="395" y="58"/>
      <point x="383" y="64"/>
      <point x="383" y="124" type="curve" smooth="yes"/>
      <point x="383" y="186" type="line"/>
      <point x="547" y="186" type="line"/>
      <point x="547" y="258" type="line"/>
      <point x="383" y="258" type="line"/>
      <point x="383" y="286" type="line"/>
      <point x="547" y="286" type="line"/>
      <point x="547" y="359" type="line"/>
      <point x="405" y="359" type="line"/>
      <point x="498" y="536" type="line" smooth="yes"/>
      <point x="536" y="608"/>
      <point x="560" y="629"/>
      <point x="610" y="648" type="curve"/>
      <point x="610" y="693" type="line"/>
      <point x="399" y="693" type="line"/>
      <point x="399" y="645" type="line"/>
      <point x="437" y="642"/>
      <point x="453" y="636"/>
      <point x="453" y="624" type="curve" smooth="yes"/>
      <point x="453" y="616"/>
      <point x="448" y="600"/>
      <point x="439" y="583" type="curve" smooth="yes"/>
      <point x="346" y="401" type="line"/>
      <point x="257" y="570" type="line" smooth="yes"/>
      <point x="241" y="600"/>
      <point x="233" y="621"/>
      <point x="233" y="629" type="curve"/>
    </contour>
  </outline>
</glyph>
<glyph name="brokenbar" format="1">
  <unicode hex="00A6"/>
  <advance width="157"/>
  <outline>
    <contour>
      <point x="127" y="-9" type="line"/>
      <point x="127" y="303" type="line"/>
      <point x="30" y="303" type="line"/>
      <point x="30" y="-9" type="line"/>
    </contour>
    <contour>
      <point x="30" y="703" type="line"/>
      <point x="30" y="425" type="line"/>
      <point x="127" y="425" type="line"/>
      <point x="127" y="703" type="line"/>
    </contour>
  </outline>
</glyph>
<glyph name="section" format="1">
  <unicode hex="00A7"/>
  <advance width="448"/>
  <outline>
    <contour>
      <point x="418" y="261" type="line"/>
      <point x="418" y="350"/>
      <point x="359" y="400"/>
      <point x="196" y="534" type="curve"/>
      <point x="197" y="534" type="line"/>
      <point x="175" y="554"/>
      <point x="161" y="579"/>
      <point x="161" y="599" type="curve" smooth="yes" name="hr01"/>
      <point x="161" y="631"/>
      <point x="189" y="655"/>
      <point x="227" y="655" type="curve" smooth="yes"/>
      <point x="252" y="655"/>
      <point x="272" y="646"/>
      <point x="272" y="635" type="curve"/>
      <point x="265" y="628" type="line" smooth="yes"/>
      <point x="254" y="616"/>
      <point x="240" y="601"/>
      <point x="240" y="581" type="curve" smooth="yes"/>
      <point x="240" y="546"/>
      <point x="268" y="523"/>
      <point x="304" y="523" type="curve" smooth="yes" name="hr02"/>
      <point x="344" y="523"/>
      <point x="371" y="551"/>
      <point x="371" y="595" type="curve" smooth="yes"/>
      <point x="371" y="659"/>
      <point x="311" y="708"/>
      <point x="228" y="708" type="curve" smooth="yes"/>
      <point x="134" y="708"/>
      <point x="69" y="652"/>
      <point x="69" y="569" type="curve" smooth="yes"/>
      <point x="69" y="518"/>
      <point x="73" y="493"/>
      <point x="138" y="434" type="curve"/>
      <point x="76" y="422"/>
      <point x="30" y="362"/>
      <point x="30" y="300" type="curve" smooth="yes" name="hr03"/>
      <point x="30" y="230"/>
      <point x="69" y="166"/>
      <point x="170" y="96" type="curve" smooth="yes"/>
      <point x="253" y="37"/>
      <point x="286" y="9"/>
      <point x="286" y="-34" type="curve" smooth="yes"/>
      <point x="286" y="-36" type="line" smooth="yes"/>
      <point x="286" y="-71"/>
      <point x="258" y="-96"/>
      <point x="219" y="-96" type="curve" smooth="yes"/>
      <point x="193" y="-96"/>
      <point x="165" y="-85"/>
      <point x="164" y="-74" type="curve" smooth="yes"/>
      <point x="164" y="-76"/>
      <point x="168" y="-70"/>
      <point x="173" y="-65" type="curve"/>
      <point x="172" y="-65" type="line"/>
      <point x="184" y="-52"/>
      <point x="197" y="-37"/>
      <point x="197" y="-21" type="curve" smooth="yes" name="hr04"/>
      <point x="197" y="16"/>
      <point x="168" y="40"/>
      <point x="133" y="40" type="curve" smooth="yes"/>
      <point x="92" y="40"/>
      <point x="61" y="8"/>
      <point x="61" y="-33" type="curve" smooth="yes"/>
      <point x="61" y="-98"/>
      <point x="128" y="-150"/>
      <point x="215" y="-150" type="curve" smooth="yes"/>
      <point x="311" y="-150"/>
      <point x="381" y="-87"/>
      <point x="381" y="-11" type="curve" smooth="yes"/>
      <point x="381" y="36"/>
      <point x="357" y="81"/>
      <point x="311" y="126" type="curve"/>
      <point x="372" y="137"/>
      <point x="418" y="192"/>
      <point x="418" y="261" type="curve"/>
    </contour>
    <contour>
      <point x="168" y="382" type="line"/>
      <point x="226" y="382"/>
      <point x="329" y="271"/>
      <point x="329" y="231" type="curve" smooth="yes"/>
      <point x="329" y="200"/>
      <point x="308" y="179"/>
      <point x="276" y="179" type="curve" smooth="yes"/>
      <point x="234" y="179"/>
      <point x="119" y="269"/>
      <point x="119" y="331" type="curve" smooth="yes" name="hr05"/>
      <point x="119" y="358"/>
      <point x="140" y="382"/>
      <point x="168" y="382" type="curve"/>
    </contour>
  </outline>
</glyph>
<glyph name="dieresis" format="1">
  <unicode hex="00A8"/>
  <advance width="420"/>
  <outline>
    <contour>
      <point x="111" y="655" type="line"/>
      <point x="72" y="655"/>
      <point x="42" y="626"/>
      <point x="42" y="590" type="curve" smooth="yes"/>
      <point x="42" y="555"/>
      <point x="74" y="525"/>
      <point x="111" y="525" type="curve" smooth="yes"/>
      <point x="147" y="525"/>
      <point x="178" y="554"/>
      <point x="178" y="590" type="curve" smooth="yes"/>
      <point x="178" y="626"/>
      <point x="147" y="655"/>
      <point x="111" y="655" type="curve"/>
    </contour>
    <contour>
      <point x="309" y="655" type="line"/>
      <point x="272" y="655"/>
      <point x="241" y="626"/>
      <point x="241" y="590" type="curve" smooth="yes"/>
      <point x="241" y="555"/>
      <point x="273" y="525"/>
      <point x="309" y="525" type="curve" smooth="yes"/>
      <point x="346" y="525"/>
      <point x="377" y="554"/>
      <point x="377" y="590" type="curve" smooth="yes"/>
      <point x="377" y="626"/>
      <point x="346" y="655"/>
      <point x="309" y="655" type="curve"/>
    </contour>
  </outline>
</glyph>
<glyph name="copyright" format="1">
  <unicode hex="00A9"/>
  <advance width="772"/>
  <outline>
    <contour>
      <point x="386" y="708" type="line"/>
      <point x="190" y="708"/>
      <point x="30" y="547"/>
      <point x="30" y="347" type="curve" smooth="yes"/>
      <point x="30" y="146"/>
      <point x="190" y="-12"/>
      <point x="386" y="-12" type="curve" smooth="yes"/>
      <point x="582" y="-12"/>
      <point x="742" y="146"/>
      <point x="742" y="347" type="curve" smooth="yes"/>
      <point x="742" y="547"/>
      <point x="582" y="708"/>
      <point x="386" y="708" type="curve"/>
    </contour>
    <contour>
      <point x="386" y="633" type="line"/>
      <point x="536" y="633"/>
      <point x="656" y="504"/>
      <point x="656" y="347" type="curve" smooth="yes"/>
      <point x="656" y="189"/>
      <point x="536" y="62"/>
      <point x="386" y="62" type="curve" smooth="yes"/>
      <point x="236" y="62"/>
      <point x="114" y="189"/>
      <point x="114" y="347" type="curve" smooth="yes"/>
      <point x="114" y="504"/>
      <point x="236" y="633"/>
      <point x="386" y="633" type="curve"/>
    </contour>
    <contour>
      <point x="562" y="395" type="line"/>
      <point x="562" y="559" type="line"/>
      <point x="509" y="559" type="line"/>
      <point x="499" y="540"/>
      <point x="498" y="538"/>
      <point x="499" y="538" type="curve" smooth="yes"/>
      <point x="482" y="538"/>
      <point x="467" y="543"/>
      <point x="452" y="548" type="curve" smooth="yes"/>
      <point x="434" y="553"/>
      <point x="416" y="559"/>
      <point x="396" y="559" type="curve" smooth="yes"/>
      <point x="265" y="559"/>
      <point x="177" y="470"/>
      <point x="177" y="344" type="curve" smooth="yes"/>
      <point x="177" y="218"/>
      <point x="261" y="135"/>
      <point x="393" y="135" type="curve" smooth="yes"/>
      <point x="463" y="135"/>
      <point x="519" y="163"/>
      <point x="574" y="224" type="curve"/>
      <point x="539" y="262" type="line"/>
      <point x="486" y="215"/>
      <point x="450" y="198"/>
      <point x="405" y="198" type="curve" smooth="yes"/>
      <point x="330" y="198"/>
      <point x="284" y="254"/>
      <point x="284" y="348" type="curve" smooth="yes"/>
      <point x="284" y="443"/>
      <point x="327" y="498"/>
      <point x="400" y="498" type="curve" smooth="yes"/>
      <point x="456" y="498"/>
      <point x="492" y="464"/>
      <point x="508" y="395" type="curve"/>
    </contour>
  </outline>
</glyph>
<glyph name="ordfeminine" format="1">
  <unicode hex="00AA"/>
  <advance width="366"/>
  <outline>
    <contour>
      <point x="290" y="487" type="line"/>
      <point x="286" y="480"/>
      <point x="282" y="476"/>
      <point x="280" y="472" type="curve"/>
      <point x="280" y="475" type="line"/>
      <point x="280" y="600" type="line" smooth="yes"/>
      <point x="280" y="675"/>
      <point x="246" y="708"/>
      <point x="165" y="708" type="curve" smooth="yes"/>
      <point x="97" y="708"/>
      <point x="44" y="671"/>
      <point x="44" y="624" type="curve" smooth="yes"/>
      <point x="44" y="595"/>
      <point x="62" y="576"/>
      <point x="92" y="576" type="curve" smooth="yes"/>
      <point x="125" y="576"/>
      <point x="142" y="595"/>
      <point x="142" y="624" type="curve" smooth="yes"/>
      <point x="142" y="627"/>
      <point x="140" y="632"/>
      <point x="139" y="638" type="curve" smooth="yes"/>
      <point x="138" y="641"/>
      <point x="137" y="643"/>
      <point x="137" y="646" type="curve" smooth="yes"/>
      <point x="137" y="650"/>
      <point x="149" y="655"/>
      <point x="158" y="655" type="curve" smooth="yes" name="hr01"/>
      <point x="176" y="655"/>
      <point x="184" y="640"/>
      <point x="184" y="611" type="curve" smooth="yes"/>
      <point x="184" y="602" type="line"/>
      <point x="71" y="561"/>
      <point x="30" y="531"/>
      <point x="30" y="476" type="curve" smooth="yes"/>
      <point x="30" y="432"/>
      <point x="68" y="396"/>
      <point x="116" y="396" type="curve" smooth="yes"/>
      <point x="140" y="396"/>
      <point x="162" y="404"/>
      <point x="196" y="426" type="curve"/>
      <point x="207" y="405"/>
      <point x="225" y="396"/>
      <point x="250" y="396" type="curve" smooth="yes"/>
      <point x="282" y="396"/>
      <point x="299" y="411"/>
      <point x="336" y="456" type="curve"/>
    </contour>
    <contour>
      <point x="321" y="278" type="line"/>
      <point x="321" y="356" type="line"/>
      <point x="32" y="356" type="line"/>
      <point x="32" y="278" type="line"/>
    </contour>
    <contour>
      <point x="151" y="468" type="line"/>
      <point x="138" y="468"/>
      <point x="131" y="479"/>
      <point x="131" y="497" type="curve" smooth="yes"/>
      <point x="131" y="516"/>
      <point x="146" y="532"/>
      <point x="184" y="548" type="curve"/>
      <point x="184" y="481" type="line"/>
      <point x="171" y="471"/>
      <point x="159" y="468"/>
      <point x="151" y="468" type="curve"/>
    </contour>
  </outline>
</glyph>
<glyph name="guillemotleft" format="1">
  <unicode hex="00AB"/>
  <advance width="519"/>
  <outline>
    <contour>
      <point x="146" y="357" type="line"/>
      <point x="30" y="251" type="line"/>
      <point x="90" y="197" type="line"/>
      <point x="208" y="94"/>
      <point x="240" y="61"/>
      <point x="251" y="50" type="curve" smooth="yes"/>
      <point x="259" y="41"/>
      <point x="261" y="39"/>
      <point x="270" y="39" type="curve" smooth="yes"/>
      <point x="289" y="39"/>
      <point x="297" y="49"/>
      <point x="297" y="65" type="curve" smooth="yes"/>
      <point x="297" y="81"/>
      <point x="224" y="183"/>
      <point x="168" y="251" type="curve"/>
      <point x="216" y="305"/>
      <point x="265" y="383"/>
      <point x="284" y="412" type="curve" smooth="yes"/>
      <point x="289" y="420"/>
      <point x="292" y="426"/>
      <point x="295" y="430" type="curve"/>
      <point x="295" y="448"/>
      <point x="282" y="457"/>
      <point x="267" y="457" type="curve" smooth="yes"/>
      <point x="258" y="457"/>
      <point x="251" y="455"/>
      <point x="245" y="449" type="curve" smooth="yes"/>
    </contour>
    <contour>
      <point x="338" y="357" type="line"/>
      <point x="219" y="251" type="line"/>
      <point x="282" y="197" type="line" smooth="yes"/>
      <point x="404" y="94"/>
      <point x="433" y="60"/>
      <point x="444" y="49" type="curve" smooth="yes"/>
      <point x="452" y="41"/>
      <point x="453" y="39"/>
      <point x="462" y="39" type="curve" smooth="yes"/>
      <point x="481" y="39"/>
      <point x="489" y="49"/>
      <point x="489" y="65" type="curve" smooth="yes"/>
      <point x="489" y="81"/>
      <point x="416" y="181"/>
      <point x="361" y="251" type="curve"/>
      <point x="402" y="300"/>
      <point x="449" y="372"/>
      <point x="472" y="406" type="curve"/>
      <point x="479" y="418"/>
      <point x="482" y="422"/>
      <point x="487" y="428" type="curve"/>
      <point x="487" y="450"/>
      <point x="474" y="457"/>
      <point x="459" y="457" type="curve" smooth="yes"/>
      <point x="451" y="457"/>
      <point x="443" y="455"/>
      <point x="436" y="450" type="curve"/>
    </contour>
  </outline>
</glyph>
<glyph name="logicalnot" format="1">
  <unicode hex="00AC"/>
  <advance width="599"/>
  <outline>
    <contour>
      <point x="30" y="422" type="line"/>
      <point x="30" y="327" type="line"/>
      <point x="468" y="327" type="line"/>
      <point x="468" y="120" type="line"/>
      <point x="569" y="120" type="line"/>
      <point x="569" y="422" type="line"/>
    </contour>
  </outline>
</glyph>
<glyph name="registered" format="1">
  <unicode hex="00AE"/>
  <advance width="772"/>
  <outline>
    <contour>
      <point x="386" y="708" type="line"/>
      <point x="191" y="708"/>
      <point x="30" y="547"/>
      <point x="30" y="347" type="curve" smooth="yes"/>
      <point x="30" y="146"/>
      <point x="191" y="-12"/>
      <point x="386" y="-12" type="curve" smooth="yes"/>
      <point x="582" y="-12"/>
      <point x="742" y="146"/>
      <point x="742" y="347" type="curve" smooth="yes"/>
      <point x="742" y="547"/>
      <point x="582" y="708"/>
      <point x="386" y="708" type="curve"/>
    </contour>
    <contour>
      <point x="386" y="633" type="line"/>
      <point x="536" y="633"/>
      <point x="656" y="504"/>
      <point x="656" y="347" type="curve" smooth="yes"/>
      <point x="656" y="284"/>
      <point x="637" y="226"/>
      <point x="605" y="179" type="curve"/>
      <point x="605" y="201" type="line"/>
      <point x="575" y="205"/>
      <point x="561" y="212"/>
      <point x="542" y="234" type="curve" smooth="yes"/>
      <point x="452" y="339" type="line"/>
      <point x="509" y="357"/>
      <point x="542" y="395"/>
      <point x="542" y="447" type="curve" smooth="yes"/>
      <point x="542" y="530"/>
      <point x="489" y="564"/>
      <point x="363" y="564" type="curve" smooth="yes"/>
      <point x="209" y="564" type="line"/>
      <point x="257" y="606"/>
      <point x="318" y="633"/>
      <point x="386" y="633" type="curve"/>
    </contour>
    <contour>
      <point x="242" y="488" type="line"/>
      <point x="242" y="230" type="line" smooth="yes"/>
      <point x="242" y="208"/>
      <point x="232" y="202"/>
      <point x="185" y="199" type="curve"/>
      <point x="185" y="155" type="line"/>
      <point x="141" y="206"/>
      <point x="114" y="273"/>
      <point x="114" y="347" type="curve" smooth="yes"/>
      <point x="114" y="421"/>
      <point x="141" y="488"/>
      <point x="185" y="538" type="curve"/>
      <point x="185" y="519" type="line" name="hr01"/>
      <point x="232" y="516"/>
      <point x="242" y="511"/>
      <point x="242" y="488" type="curve"/>
    </contour>
    <contour>
      <point x="482" y="155" type="line"/>
      <point x="586" y="155" type="line"/>
      <point x="536" y="98"/>
      <point x="465" y="62"/>
      <point x="386" y="62" type="curve" smooth="yes"/>
      <point x="306" y="62"/>
      <point x="235" y="98"/>
      <point x="185" y="155" type="curve"/>
      <point x="402" y="155" type="line"/>
      <point x="402" y="199" type="line"/>
      <point x="355" y="202"/>
      <point x="345" y="208"/>
      <point x="345" y="230" type="curve" smooth="yes"/>
      <point x="345" y="326" type="line"/>
    </contour>
    <contour>
      <point x="345" y="499" type="line" smooth="yes"/>
      <point x="345" y="504"/>
      <point x="345" y="504"/>
      <point x="366" y="504" type="curve" smooth="yes" name="hr02"/>
      <point x="413" y="504"/>
      <point x="436" y="484"/>
      <point x="436" y="446" type="curve" smooth="yes"/>
      <point x="436" y="402"/>
      <point x="411" y="384"/>
      <point x="345" y="384" type="curve"/>
    </contour>
  </outline>
</glyph>
<glyph name="uni00AF" format="1">
  <unicode hex="00AF"/>
  <advance width="420"/>
  <outline>
    <contour>
      <point x="36" y="633" type="line"/>
      <point x="36" y="548" type="line"/>
      <point x="384" y="548" type="line"/>
      <point x="384" y="633" type="line"/>
    </contour>
  </outline>
</glyph>
<glyph name="degree" format="1">
  <unicode hex="00B0"/>
  <advance width="397"/>
  <outline>
    <contour>
      <point x="199" y="708" type="line"/>
      <point x="107" y="708"/>
      <point x="30" y="633"/>
      <point x="30" y="542" type="curve" smooth="yes"/>
      <point x="30" y="451"/>
      <point x="107" y="376"/>
      <point x="199" y="376" type="curve" smooth="yes"/>
      <point x="291" y="376"/>
      <point x="367" y="451"/>
      <point x="367" y="542" type="curve" smooth="yes"/>
      <point x="367" y="633"/>
      <point x="291" y="708"/>
      <point x="199" y="708" type="curve"/>
    </contour>
    <contour>
      <point x="199" y="636" type="line"/>
      <point x="248" y="636"/>
      <point x="292" y="593"/>
      <point x="292" y="542" type="curve" smooth="yes"/>
      <point x="292" y="489"/>
      <point x="248" y="448"/>
      <point x="199" y="448" type="curve" smooth="yes"/>
      <point x="150" y="448"/>
      <point x="106" y="489"/>
      <point x="106" y="542" type="curve" smooth="yes"/>
      <point x="106" y="592"/>
      <point x="150" y="636"/>
      <point x="199" y="636" type="curve"/>
    </contour>
  </outline>
</glyph>
<glyph name="plusminus" format="1">
  <unicode hex="00B1"/>
  <advance width="599"/>
  <outline>
    <contour>
      <point x="569" y="96" type="line"/>
      <point x="350" y="96" type="line"/>
      <point x="350" y="310" type="line"/>
      <point x="569" y="310" type="line"/>
      <point x="569" y="405" type="line"/>
      <point x="350" y="405" type="line"/>
      <point x="350" y="625" type="line"/>
      <point x="249" y="625" type="line"/>
      <point x="249" y="405" type="line"/>
      <point x="30" y="405" type="line"/>
      <point x="30" y="310" type="line"/>
      <point x="249" y="310" type="line"/>
      <point x="249" y="96" type="line"/>
      <point x="30" y="96" type="line"/>
      <point x="30" y="0" type="line"/>
      <point x="569" y="0" type="line"/>
    </contour>
  </outline>
</glyph>
<glyph name="twosuperior" format="1">
  <unicode hex="00B2"/>
  <advance width="381"/>
  <outline>
    <contour>
      <point x="351" y="374" type="line"/>
      <point x="306" y="396" type="line"/>
      <point x="282" y="350"/>
      <point x="278" y="349"/>
      <point x="248" y="349" type="curve" smooth="yes"/>
      <point x="161" y="349" type="line"/>
      <point x="215" y="403" type="line" smooth="yes"/>
      <point x="291" y="478"/>
      <point x="315" y="523"/>
      <point x="315" y="578" type="curve" smooth="yes"/>
      <point x="315" y="652"/>
      <point x="260" y="702"/>
      <point x="185" y="702" type="curve" smooth="yes"/>
      <point x="102" y="702"/>
      <point x="59" y="661"/>
      <point x="30" y="556" type="curve"/>
      <point x="82" y="540" type="line"/>
      <point x="102" y="600"/>
      <point x="124" y="622"/>
      <point x="158" y="622" type="curve" smooth="yes"/>
      <point x="197" y="622"/>
      <point x="222" y="596"/>
      <point x="222" y="557" type="curve" smooth="yes"/>
      <point x="222" y="512"/>
      <point x="195" y="463"/>
      <point x="139" y="407" type="curve" smooth="yes"/>
      <point x="32" y="300" type="line"/>
      <point x="32" y="266" type="line"/>
      <point x="307" y="266" type="line"/>
    </contour>
  </outline>
</glyph>
<glyph name="threesuperior" format="1">
  <unicode hex="00B3"/>
  <advance width="340"/>
  <outline>
    <contour>
      <point x="79" y="563" type="line"/>
      <point x="102" y="609"/>
      <point x="125" y="629"/>
      <point x="152" y="629" type="curve" smooth="yes"/>
      <point x="181" y="629"/>
      <point x="199" y="612"/>
      <point x="199" y="587" type="curve" smooth="yes"/>
      <point x="199" y="556"/>
      <point x="175" y="523"/>
      <point x="99" y="504" type="curve"/>
      <point x="99" y="461" type="line" name="hr01"/>
      <point x="187" y="461"/>
      <point x="223" y="440"/>
      <point x="223" y="389" type="curve" smooth="yes"/>
      <point x="223" y="346"/>
      <point x="199" y="317"/>
      <point x="164" y="317" type="curve" smooth="yes"/>
      <point x="155" y="317"/>
      <point x="137" y="326"/>
      <point x="121" y="334" type="curve" smooth="yes"/>
      <point x="104" y="342"/>
      <point x="87" y="350"/>
      <point x="77" y="350" type="curve" smooth="yes" name="hr02"/>
      <point x="51" y="350"/>
      <point x="34" y="333"/>
      <point x="34" y="310" type="curve" smooth="yes"/>
      <point x="34" y="274"/>
      <point x="63" y="257"/>
      <point x="121" y="257" type="curve" smooth="yes"/>
      <point x="235" y="257"/>
      <point x="310" y="319"/>
      <point x="310" y="414" type="curve" smooth="yes"/>
      <point x="310" y="463"/>
      <point x="294" y="496"/>
      <point x="250" y="524" type="curve"/>
      <point x="277" y="548"/>
      <point x="290" y="576"/>
      <point x="290" y="606" type="curve" smooth="yes" name="hr03"/>
      <point x="290" y="665"/>
      <point x="245" y="702"/>
      <point x="177" y="702" type="curve" smooth="yes"/>
      <point x="105" y="702"/>
      <point x="55" y="661"/>
      <point x="30" y="579" type="curve"/>
    </contour>
  </outline>
</glyph>
<glyph name="acute" format="1">
  <unicode hex="00B4"/>
  <advance width="420"/>
  <outline>
    <contour>
      <point x="70" y="508" type="line"/>
      <point x="157" y="508" type="line"/>
      <point x="303" y="602" type="line" smooth="yes"/>
      <point x="339" y="626"/>
      <point x="350" y="637"/>
      <point x="350" y="662" type="curve" smooth="yes"/>
      <point x="350" y="689"/>
      <point x="325" y="711"/>
      <point x="295" y="711" type="curve" smooth="yes"/>
      <point x="267" y="711"/>
      <point x="257" y="701"/>
      <point x="227" y="670" type="curve" smooth="yes"/>
    </contour>
  </outline>
</glyph>
<glyph name="uni00B5" format="1">
  <unicode hex="00B5"/>
  <advance width="565"/>
  <outline>
    <contour>
      <point x="360" y="-14" type="line"/>
      <point x="376" y="-10"/>
      <point x="412" y="1"/>
      <point x="440" y="10" type="curve" smooth="yes"/>
      <point x="479" y="21"/>
      <point x="519" y="33"/>
      <point x="531" y="53" type="curve"/>
      <point x="534" y="50" type="line"/>
      <point x="534" y="59" type="line" smooth="yes"/>
      <point x="534" y="61"/>
      <point x="535" y="63"/>
      <point x="535" y="65" type="curve"/>
      <point x="534" y="65" type="line"/>
      <point x="534" y="80" type="line"/>
      <point x="475" y="80"/>
      <point x="463" y="89"/>
      <point x="463" y="134" type="curve" smooth="yes"/>
      <point x="463" y="467" type="line"/>
      <point x="448" y="481" type="line"/>
      <point x="412" y="476"/>
      <point x="360" y="473"/>
      <point x="309" y="473" type="curve" smooth="yes"/>
      <point x="272" y="473" type="line"/>
      <point x="272" y="425" type="line"/>
      <point x="302" y="425" type="line" smooth="yes"/>
      <point x="334" y="425"/>
      <point x="345" y="408"/>
      <point x="345" y="358" type="curve" smooth="yes"/>
      <point x="345" y="127" type="line"/>
      <point x="323" y="87"/>
      <point x="300" y="68"/>
      <point x="273" y="68" type="curve" smooth="yes"/>
      <point x="231" y="68"/>
      <point x="215" y="100"/>
      <point x="215" y="189" type="curve" smooth="yes"/>
      <point x="215" y="467" type="line"/>
      <point x="197" y="482" type="line" name="hr01"/>
      <point x="171" y="475"/>
      <point x="121" y="473"/>
      <point x="88" y="473" type="curve" smooth="yes" name="hr02"/>
      <point x="30" y="473" type="line"/>
      <point x="30" y="425" type="line"/>
      <point x="55" y="425" type="line" smooth="yes"/>
      <point x="86" y="425"/>
      <point x="97" y="408"/>
      <point x="97" y="358" type="curve" smooth="yes"/>
      <point x="97" y="204" type="line"/>
      <point x="96" y="52"/>
      <point x="96" y="52"/>
      <point x="76" y="-30" type="curve"/>
      <point x="68" y="-77"/>
      <point x="67" y="-94"/>
      <point x="67" y="-103" type="curve" smooth="yes" name="hr03"/>
      <point x="67" y="-147"/>
      <point x="94" y="-175"/>
      <point x="132" y="-175" type="curve" smooth="yes"/>
      <point x="172" y="-175"/>
      <point x="196" y="-150"/>
      <point x="196" y="-109" type="curve" smooth="yes"/>
      <point x="196" y="-97"/>
      <point x="188" y="-66"/>
      <point x="181" y="-35" type="curve" smooth="yes"/>
      <point x="179" y="-24"/>
      <point x="176" y="-13"/>
      <point x="173" y="-3" type="curve"/>
      <point x="188" y="-10"/>
      <point x="205" y="-12"/>
      <point x="224" y="-12" type="curve" smooth="yes" name="hr04"/>
      <point x="272" y="-12"/>
      <point x="308" y="3"/>
      <point x="345" y="39" type="curve"/>
      <point x="344" y="27"/>
      <point x="343" y="16"/>
      <point x="341" y="1" type="curve"/>
    </contour>
  </outline>
</glyph>
<glyph name="paragraph" format="1">
  <unicode hex="00B6"/>
  <advance width="468"/>
  <outline>
    <contour>
      <point x="438" y="694" type="line"/>
      <point x="260" y="694" type="line" smooth="yes"/>
      <point x="128" y="694"/>
      <point x="30" y="597"/>
      <point x="30" y="465" type="curve" smooth="yes"/>
      <point x="30" y="351"/>
      <point x="94" y="263"/>
      <point x="197" y="236" type="curve" name="hr01"/>
      <point x="197" y="-207" type="line"/>
      <point x="277" y="-207" type="line"/>
      <point x="277" y="620" type="line"/>
      <point x="318" y="620" type="line"/>
      <point x="318" y="-207" type="line"/>
      <point x="397" y="-207" type="line"/>
      <point x="397" y="620" type="line"/>
      <point x="438" y="620" type="line"/>
    </contour>
  </outline>
</glyph>
<glyph name="periodcentered" format="1">
  <unicode hex="00B7"/>
  <advance width="420"/>
  <outline>
    <contour>
      <point x="209" y="350" type="line"/>
      <point x="165" y="350"/>
      <point x="135" y="317"/>
      <point x="135" y="275" type="curve" smooth="yes"/>
      <point x="135" y="236"/>
      <point x="165" y="203"/>
      <point x="209" y="203" type="curve" smooth="yes"/>
      <point x="252" y="203"/>
      <point x="285" y="236"/>
      <point x="285" y="275" type="curve" smooth="yes"/>
      <point x="285" y="317"/>
      <point x="252" y="350"/>
      <point x="209" y="350" type="curve"/>
    </contour>
  </outline>
</glyph>
<glyph name="cedilla" format="1">
  <unicode hex="00B8"/>
  <advance width="420"/>
  <outline>
    <contour>
      <point x="181" y="33" type="line"/>
      <point x="131" y="-84" type="line"/>
      <point x="158" y="-103" type="line"/>
      <point x="174" y="-98"/>
      <point x="185" y="-96"/>
      <point x="194" y="-96" type="curve" smooth="yes"/>
      <point x="214" y="-96"/>
      <point x="225" y="-105"/>
      <point x="225" y="-120" type="curve" smooth="yes"/>
      <point x="225" y="-137"/>
      <point x="209" y="-145"/>
      <point x="184" y="-145" type="curve" smooth="yes"/>
      <point x="168" y="-145"/>
      <point x="141" y="-141"/>
      <point x="115" y="-131" type="curve"/>
      <point x="85" y="-188" type="line"/>
      <point x="131" y="-207"/>
      <point x="158" y="-212"/>
      <point x="189" y="-212" type="curve" smooth="yes"/>
      <point x="272" y="-212"/>
      <point x="334" y="-170"/>
      <point x="334" y="-113" type="curve" smooth="yes"/>
      <point x="334" y="-63"/>
      <point x="293" y="-28"/>
      <point x="232" y="-28" type="curve"/>
      <point x="231" y="-28" type="line"/>
      <point x="254" y="33" type="line" name="hr01"/>
    </contour>
  </outline>
</glyph>
<glyph name="onesuperior" format="1">
  <unicode hex="00B9"/>
  <advance width="274"/>
  <outline>
    <contour>
      <point x="186" y="715" type="line"/>
      <point x="30" y="638" type="line"/>
      <point x="30" y="586" type="line"/>
      <point x="67" y="602"/>
      <point x="89" y="610"/>
      <point x="94" y="611" type="curve" smooth="yes"/>
      <point x="92" y="610"/>
      <point x="92" y="602"/>
      <point x="92" y="582" type="curve" smooth="yes" name="hr01"/>
      <point x="92" y="342" type="line" smooth="yes"/>
      <point x="92" y="317"/>
      <point x="81" y="314"/>
      <point x="35" y="311" type="curve"/>
      <point x="35" y="266" type="line"/>
      <point x="244" y="266" type="line"/>
      <point x="244" y="311" type="line"/>
      <point x="197" y="314"/>
      <point x="186" y="317"/>
      <point x="186" y="342" type="curve" smooth="yes"/>
    </contour>
  </outline>
</glyph>
<glyph name="ordmasculine" format="1">
  <unicode hex="00BA"/>
  <advance width="382"/>
  <outline>
    <contour>
      <point x="196" y="708" type="line"/>
      <point x="104" y="708"/>
      <point x="30" y="638"/>
      <point x="30" y="548" type="curve" smooth="yes"/>
      <point x="30" y="461"/>
      <point x="99" y="396"/>
      <point x="188" y="396" type="curve" smooth="yes"/>
      <point x="281" y="396"/>
      <point x="352" y="468"/>
      <point x="352" y="558" type="curve" smooth="yes"/>
      <point x="352" y="645"/>
      <point x="288" y="708"/>
      <point x="196" y="708" type="curve"/>
    </contour>
    <contour>
      <point x="342" y="278" type="line"/>
      <point x="342" y="356" type="line"/>
      <point x="42" y="356" type="line"/>
      <point x="42" y="278" type="line"/>
    </contour>
    <contour>
      <point x="180" y="651" type="line"/>
      <point x="224" y="651"/>
      <point x="252" y="604"/>
      <point x="252" y="534" type="curve" smooth="yes"/>
      <point x="252" y="481"/>
      <point x="233" y="451"/>
      <point x="201" y="451" type="curve" smooth="yes"/>
      <point x="158" y="451"/>
      <point x="131" y="499"/>
      <point x="131" y="570" type="curve" smooth="yes"/>
      <point x="131" y="621"/>
      <point x="150" y="651"/>
      <point x="180" y="651" type="curve"/>
    </contour>
  </outline>
</glyph>
<glyph name="guillemotright" format="1">
  <unicode hex="00BB"/>
  <advance width="519"/>
  <outline>
    <contour>
      <point x="489" y="251" type="line"/>
      <point x="337" y="388"/>
      <point x="316" y="409"/>
      <point x="294" y="431" type="curve" smooth="yes"/>
      <point x="282" y="443" type="line" smooth="yes"/>
      <point x="273" y="453"/>
      <point x="261" y="458"/>
      <point x="251" y="458" type="curve" smooth="yes"/>
      <point x="234" y="458"/>
      <point x="224" y="450"/>
      <point x="224" y="433" type="curve" smooth="yes"/>
      <point x="224" y="423"/>
      <point x="302" y="311"/>
      <point x="350" y="251" type="curve"/>
      <point x="295" y="182"/>
      <point x="222" y="81"/>
      <point x="222" y="65" type="curve" smooth="yes"/>
      <point x="222" y="49"/>
      <point x="231" y="39"/>
      <point x="253" y="39" type="curve"/>
      <point x="271" y="46"/>
      <point x="273" y="49"/>
      <point x="284" y="61" type="curve" smooth="yes"/>
      <point x="297" y="77"/>
      <point x="328" y="109"/>
      <point x="428" y="197" type="curve" smooth="yes"/>
    </contour>
    <contour>
      <point x="299" y="251" type="line"/>
      <point x="257" y="286"/>
      <point x="150" y="381"/>
      <point x="109" y="418" type="curve"/>
      <point x="111" y="418" type="line"/>
      <point x="87" y="446"/>
      <point x="69" y="458"/>
      <point x="59" y="458" type="curve" smooth="yes"/>
      <point x="44" y="458"/>
      <point x="32" y="448"/>
      <point x="32" y="433" type="curve" smooth="yes"/>
      <point x="32" y="423"/>
      <point x="113" y="309"/>
      <point x="158" y="251" type="curve"/>
      <point x="102" y="181"/>
      <point x="30" y="81"/>
      <point x="30" y="65" type="curve" smooth="yes"/>
      <point x="30" y="49"/>
      <point x="38" y="39"/>
      <point x="59" y="39" type="curve"/>
      <point x="80" y="47"/>
      <point x="83" y="50"/>
      <point x="98" y="66" type="curve" smooth="yes"/>
      <point x="115" y="84"/>
      <point x="148" y="120"/>
      <point x="237" y="197" type="curve" smooth="yes"/>
    </contour>
  </outline>
</glyph>
<glyph name="onequarter" format="1">
  <unicode hex="00BC"/>
  <advance width="794"/>
  <outline>
    <contour>
      <point x="642" y="437" type="line"/>
      <point x="442" y="161" type="line"/>
      <point x="442" y="98" type="line"/>
      <point x="614" y="98" type="line"/>
      <point x="614" y="0" type="line"/>
      <point x="702" y="0" type="line"/>
      <point x="702" y="98" type="line"/>
      <point x="764" y="98" type="line"/>
      <point x="764" y="175" type="line"/>
      <point x="702" y="175" type="line"/>
      <point x="702" y="437" type="line"/>
    </contour>
    <contour>
      <point x="566" y="708" type="line"/>
      <point x="86" y="-12" type="line" name="hr01"/>
      <point x="187" y="-12" type="line"/>
      <point x="666" y="708" type="line"/>
    </contour>
    <contour>
      <point x="186" y="715" type="line" name="hr02"/>
      <point x="30" y="638" type="line"/>
      <point x="30" y="586" type="line"/>
      <point x="67" y="602"/>
      <point x="89" y="610"/>
      <point x="94" y="611" type="curve" smooth="yes"/>
      <point x="92" y="610"/>
      <point x="92" y="602"/>
      <point x="92" y="582" type="curve" smooth="yes" name="hr03"/>
      <point x="92" y="342" type="line" smooth="yes"/>
      <point x="92" y="317"/>
      <point x="81" y="314"/>
      <point x="35" y="311" type="curve"/>
      <point x="35" y="266" type="line"/>
      <point x="244" y="266" type="line"/>
      <point x="244" y="311" type="line"/>
      <point x="197" y="314"/>
      <point x="186" y="317"/>
      <point x="186" y="342" type="curve" smooth="yes"/>
    </contour>
    <contour>
      <point x="528" y="175" type="line"/>
      <point x="614" y="292" type="line"/>
      <point x="614" y="175" type="line"/>
    </contour>
  </outline>
</glyph>
<glyph name="onehalf" format="1">
  <unicode hex="00BD"/>
  <advance width="802"/>
  <outline>
    <contour>
      <point x="566" y="708" type="line"/>
      <point x="86" y="-12" type="line"/>
      <point x="187" y="-12" type="line"/>
      <point x="666" y="708" type="line"/>
    </contour>
    <contour>
      <point x="772" y="110" type="line"/>
      <point x="726" y="128" type="line"/>
      <point x="699" y="83"/>
      <point x="699" y="82"/>
      <point x="662" y="82" type="curve" smooth="yes" name="hr01"/>
      <point x="582" y="82" type="line"/>
      <point x="635" y="136" type="line"/>
      <point x="711" y="211"/>
      <point x="737" y="261"/>
      <point x="737" y="312" type="curve" smooth="yes"/>
      <point x="737" y="384"/>
      <point x="679" y="437"/>
      <point x="605" y="437" type="curve" smooth="yes"/>
      <point x="523" y="437"/>
      <point x="479" y="393"/>
      <point x="452" y="291" type="curve"/>
      <point x="501" y="275" type="line"/>
      <point x="523" y="335"/>
      <point x="544" y="357"/>
      <point x="578" y="357" type="curve" smooth="yes"/>
      <point x="617" y="357"/>
      <point x="642" y="330"/>
      <point x="642" y="292" type="curve" smooth="yes"/>
      <point x="642" y="290" type="line" smooth="yes"/>
      <point x="642" y="245"/>
      <point x="612" y="198"/>
      <point x="559" y="142" type="curve" smooth="yes"/>
      <point x="454" y="33" type="line"/>
      <point x="454" y="0" type="line"/>
      <point x="728" y="0" type="line"/>
    </contour>
    <contour>
      <point x="186" y="715" type="line"/>
      <point x="30" y="638" type="line"/>
      <point x="30" y="586" type="line"/>
      <point x="67" y="602"/>
      <point x="89" y="610"/>
      <point x="94" y="611" type="curve" smooth="yes"/>
      <point x="92" y="610"/>
      <point x="92" y="602"/>
      <point x="92" y="582" type="curve" smooth="yes" name="hr02"/>
      <point x="92" y="342" type="line" smooth="yes"/>
      <point x="92" y="317"/>
      <point x="81" y="314"/>
      <point x="35" y="311" type="curve"/>
      <point x="35" y="266" type="line"/>
      <point x="244" y="266" type="line"/>
      <point x="244" y="311" type="line"/>
      <point x="197" y="314"/>
      <point x="186" y="317"/>
      <point x="186" y="342" type="curve" smooth="yes"/>
    </contour>
  </outline>
</glyph>
<glyph name="threequarters" format="1">
  <unicode hex="00BE"/>
  <advance width="839"/>
  <outline>
    <contour>
      <point x="687" y="437" type="line"/>
      <point x="487" y="161" type="line"/>
      <point x="487" y="98" type="line"/>
      <point x="659" y="98" type="line"/>
      <point x="659" y="0" type="line"/>
      <point x="747" y="0" type="line"/>
      <point x="747" y="98" type="line"/>
      <point x="809" y="98" type="line"/>
      <point x="809" y="175" type="line"/>
      <point x="747" y="175" type="line"/>
      <point x="747" y="437" type="line"/>
    </contour>
    <contour>
      <point x="611" y="708" type="line"/>
      <point x="131" y="-12" type="line" name="hr01"/>
      <point x="232" y="-12" type="line"/>
      <point x="711" y="708" type="line"/>
    </contour>
    <contour>
      <point x="79" y="563" type="line"/>
      <point x="102" y="609"/>
      <point x="125" y="629"/>
      <point x="152" y="629" type="curve" smooth="yes" name="hr02"/>
      <point x="181" y="629"/>
      <point x="199" y="612"/>
      <point x="199" y="587" type="curve" smooth="yes"/>
      <point x="199" y="556"/>
      <point x="175" y="523"/>
      <point x="99" y="504" type="curve"/>
      <point x="99" y="461" type="line" name="hr03"/>
      <point x="187" y="461"/>
      <point x="223" y="440"/>
      <point x="223" y="389" type="curve" smooth="yes"/>
      <point x="223" y="346"/>
      <point x="199" y="317"/>
      <point x="164" y="317" type="curve" smooth="yes"/>
      <point x="155" y="317"/>
      <point x="137" y="326"/>
      <point x="121" y="334" type="curve" smooth="yes"/>
      <point x="104" y="342"/>
      <point x="87" y="350"/>
      <point x="77" y="350" type="curve" smooth="yes" name="hr04"/>
      <point x="51" y="350"/>
      <point x="34" y="333"/>
      <point x="34" y="310" type="curve" smooth="yes"/>
      <point x="34" y="274"/>
      <point x="63" y="257"/>
      <point x="121" y="257" type="curve" smooth="yes"/>
      <point x="235" y="257"/>
      <point x="310" y="319"/>
      <point x="310" y="414" type="curve" smooth="yes"/>
      <point x="310" y="463"/>
      <point x="294" y="496"/>
      <point x="250" y="524" type="curve"/>
      <point x="277" y="548"/>
      <point x="290" y="576"/>
      <point x="290" y="606" type="curve" smooth="yes" name="hr05"/>
      <point x="290" y="665"/>
      <point x="245" y="702"/>
      <point x="177" y="702" type="curve" smooth="yes"/>
      <point x="105" y="702"/>
      <point x="55" y="661"/>
      <point x="30" y="579" type="curve"/>
    </contour>
    <contour>
      <point x="573" y="175" type="line"/>
      <point x="659" y="292" type="line"/>
      <point x="659" y="175" type="line"/>
    </contour>
  </outline>
</glyph>
<glyph name="questiondown" format="1">
  <unicode hex="00BF"/>
  <advance width="441"/>
  <outline>
    <contour>
      <point x="200" y="314" type="line"/>
      <point x="194" y="257"/>
      <point x="175" y="202"/>
      <point x="145" y="162" type="curve" smooth="yes"/>
      <point x="81" y="80" type="line"/>
      <point x="46" y="28"/>
      <point x="30" y="-8"/>
      <point x="30" y="-55" type="curve" smooth="yes"/>
      <point x="30" y="-155"/>
      <point x="114" y="-230"/>
      <point x="224" y="-230" type="curve" smooth="yes"/>
      <point x="330" y="-230"/>
      <point x="411" y="-161"/>
      <point x="411" y="-73" type="curve" smooth="yes"/>
      <point x="411" y="-22"/>
      <point x="385" y="7"/>
      <point x="342" y="7" type="curve" smooth="yes"/>
      <point x="310" y="7"/>
      <point x="282" y="-16"/>
      <point x="282" y="-53" type="curve" smooth="yes"/>
      <point x="282" y="-72"/>
      <point x="295" y="-88"/>
      <point x="307" y="-102" type="curve" smooth="yes"/>
      <point x="314" y="-110"/>
      <point x="320" y="-118"/>
      <point x="320" y="-121" type="curve" smooth="yes" name="hr01"/>
      <point x="320" y="-147"/>
      <point x="288" y="-168"/>
      <point x="248" y="-168" type="curve" smooth="yes"/>
      <point x="194" y="-168"/>
      <point x="157" y="-122"/>
      <point x="157" y="-55" type="curve" smooth="yes"/>
      <point x="157" y="-11"/>
      <point x="168" y="34"/>
      <point x="195" y="90" type="curve" smooth="yes"/>
      <point x="241" y="185"/>
      <point x="251" y="219"/>
      <point x="254" y="314" type="curve"/>
    </contour>
    <contour>
      <point x="227" y="491" type="line"/>
      <point x="186" y="491"/>
      <point x="151" y="457"/>
      <point x="151" y="418" type="curve" smooth="yes" name="hr02"/>
      <point x="151" y="376"/>
      <point x="186" y="343"/>
      <point x="227" y="343" type="curve" smooth="yes"/>
      <point x="268" y="343"/>
      <point x="302" y="376"/>
      <point x="302" y="418" type="curve" smooth="yes"/>
      <point x="302" y="457"/>
      <point x="268" y="491"/>
      <point x="227" y="491" type="curve"/>
    </contour>
  </outline>
</glyph>
<glyph name="Agrave" format="1">
  <unicode hex="00C0"/>
  <advance width="788"/>
  <outline>
    <contour>
      <point x="412" y="708" type="line"/>
      <point x="369" y="708" type="line"/>
      <point x="144" y="178" type="line" smooth="yes"/>
      <point x="103" y="81"/>
      <point x="81" y="56"/>
      <point x="30" y="47" type="curve"/>
      <point x="30" y="0" type="line"/>
      <point x="266" y="0" type="line"/>
      <point x="266" y="49" type="line"/>
      <point x="216" y="53"/>
      <point x="199" y="58"/>
      <point x="199" y="74" type="curve" smooth="yes"/>
      <point x="199" y="112"/>
      <point x="226" y="171"/>
      <point x="227" y="173" type="curve" smooth="yes"/>
      <point x="245" y="214" type="line"/>
      <point x="483" y="214" type="line"/>
      <point x="526" y="108" type="line"/>
      <point x="532" y="91"/>
      <point x="536" y="76"/>
      <point x="536" y="69" type="curve" smooth="yes"/>
      <point x="536" y="57"/>
      <point x="520" y="54"/>
      <point x="467" y="49" type="curve"/>
      <point x="467" y="0" type="line"/>
      <point x="758" y="0" type="line"/>
      <point x="758" y="50" type="line"/>
      <point x="715" y="50"/>
      <point x="690" y="69"/>
      <point x="662" y="133" type="curve" smooth="yes"/>
    </contour>
    <contour>
      <point x="355" y="881" type="line"/>
      <point x="345" y="890" type="line" smooth="yes"/>
      <point x="317" y="918"/>
      <point x="311" y="925"/>
      <point x="283" y="925" type="curve" smooth="yes"/>
      <point x="250" y="925"/>
      <point x="228" y="904"/>
      <point x="228" y="877" type="curve" smooth="yes"/>
      <point x="228" y="851"/>
      <point x="238" y="841"/>
      <point x="275" y="817" type="curve" smooth="yes"/>
      <point x="421" y="723" type="line"/>
      <point x="508" y="723" type="line"/>
    </contour>
    <contour>
      <point x="365" y="499" type="line"/>
      <point x="453" y="287" type="line"/>
      <point x="275" y="287" type="line"/>
    </contour>
  </outline>
</glyph>
<glyph name="Atilde" format="1">
  <unicode hex="00C3"/>
  <advance width="788"/>
  <outline>
    <contour>
      <point x="412" y="708" type="line"/>
      <point x="369" y="708" type="line"/>
      <point x="144" y="178" type="line" smooth="yes"/>
      <point x="103" y="81"/>
      <point x="81" y="56"/>
      <point x="30" y="47" type="curve"/>
      <point x="30" y="0" type="line"/>
      <point x="266" y="0" type="line"/>
      <point x="266" y="49" type="line"/>
      <point x="216" y="53"/>
      <point x="199" y="58"/>
      <point x="199" y="74" type="curve" smooth="yes"/>
      <point x="199" y="106"/>
      <point x="222" y="158"/>
      <point x="227" y="171" type="curve" smooth="yes"/>
      <point x="226" y="170" type="line" smooth="yes"/>
      <point x="228" y="175"/>
      <point x="229" y="176"/>
      <point x="229" y="178" type="curve"/>
      <point x="245" y="214" type="line"/>
      <point x="483" y="214" type="line"/>
      <point x="526" y="108" type="line"/>
      <point x="532" y="91"/>
      <point x="536" y="76"/>
      <point x="536" y="69" type="curve" smooth="yes"/>
      <point x="536" y="57"/>
      <point x="520" y="54"/>
      <point x="467" y="49" type="curve"/>
      <point x="467" y="0" type="line"/>
      <point x="758" y="0" type="line"/>
      <point x="758" y="50" type="line"/>
      <point x="715" y="50"/>
      <point x="690" y="69"/>
      <point x="662" y="133" type="curve" smooth="yes"/>
    </contour>
    <contour>
      <point x="271" y="748" type="line"/>
      <point x="282" y="779"/>
      <point x="298" y="795"/>
      <point x="319" y="795" type="curve" smooth="yes"/>
      <point x="337" y="795"/>
      <point x="361" y="783"/>
      <point x="383" y="773" type="curve"/>
      <point x="406" y="761"/>
      <point x="429" y="751"/>
      <point x="447" y="751" type="curve" smooth="yes" name="hr01"/>
      <point x="518" y="751"/>
      <point x="568" y="801"/>
      <point x="581" y="885" type="curve"/>
      <point x="518" y="885" type="line"/>
      <point x="508" y="854"/>
      <point x="491" y="839"/>
      <point x="470" y="839" type="curve" smooth="yes"/>
      <point x="460" y="839"/>
      <point x="439" y="848"/>
      <point x="417" y="859" type="curve" smooth="yes"/>
      <point x="418" y="858" type="line" smooth="yes"/>
      <point x="392" y="870"/>
      <point x="365" y="883"/>
      <point x="342" y="883" type="curve" smooth="yes" name="hr02"/>
      <point x="271" y="883"/>
      <point x="222" y="832"/>
      <point x="210" y="748" type="curve"/>
    </contour>
    <contour>
      <point x="365" y="499" type="line"/>
      <point x="453" y="287" type="line"/>
      <point x="275" y="287" type="line"/>
    </contour>
  </outline>
</glyph>
<glyph name="Adieresis" format="1">
  <unicode hex="00C4"/>
  <advance width="788"/>
  <outline>
    <contour>
      <point x="412" y="708" type="line"/>
      <point x="369" y="708" type="line"/>
      <point x="144" y="178" type="line" smooth="yes"/>
      <point x="103" y="81"/>
      <point x="81" y="56"/>
      <point x="30" y="47" type="curve"/>
      <point x="30" y="0" type="line"/>
      <point x="266" y="0" type="line"/>
      <point x="266" y="49" type="line"/>
      <point x="216" y="53"/>
      <point x="199" y="58"/>
      <point x="199" y="74" type="curve" smooth="yes"/>
      <point x="199" y="112"/>
      <point x="226" y="171"/>
      <point x="227" y="173" type="curve" smooth="yes"/>
      <point x="245" y="214" type="line"/>
      <point x="483" y="214" type="line"/>
      <point x="526" y="108" type="line"/>
      <point x="532" y="91"/>
      <point x="536" y="76"/>
      <point x="536" y="69" type="curve" smooth="yes"/>
      <point x="536" y="57"/>
      <point x="520" y="54"/>
      <point x="467" y="49" type="curve"/>
      <point x="467" y="0" type="line"/>
      <point x="758" y="0" type="line"/>
      <point x="758" y="50" type="line"/>
      <point x="715" y="50"/>
      <point x="690" y="69"/>
      <point x="662" y="133" type="curve" smooth="yes"/>
    </contour>
    <contour>
      <point x="365" y="499" type="line"/>
      <point x="453" y="287" type="line"/>
      <point x="275" y="287" type="line"/>
    </contour>
    <contour>
      <point x="493" y="870" type="line"/>
      <point x="457" y="870"/>
      <point x="426" y="841"/>
      <point x="426" y="804" type="curve" smooth="yes"/>
      <point x="426" y="769"/>
      <point x="459" y="739"/>
      <point x="493" y="739" type="curve" smooth="yes"/>
      <point x="533" y="739"/>
      <point x="561" y="768"/>
      <point x="561" y="804" type="curve" smooth="yes"/>
      <point x="561" y="841"/>
      <point x="533" y="870"/>
      <point x="493" y="870" type="curve"/>
    </contour>
    <contour>
      <point x="294" y="870" type="line"/>
      <point x="258" y="870"/>
      <point x="227" y="841"/>
      <point x="227" y="804" type="curve" smooth="yes"/>
      <point x="227" y="769"/>
      <point x="260" y="739"/>
      <point x="294" y="739" type="curve" smooth="yes"/>
      <point x="334" y="739"/>
      <point x="362" y="768"/>
      <point x="362" y="804" type="curve" smooth="yes"/>
      <point x="362" y="841"/>
      <point x="334" y="870"/>
      <point x="294" y="870" type="curve"/>
    </contour>
  </outline>
</glyph>
<glyph name="Aring" format="1">
  <unicode hex="00C5"/>
  <advance width="788"/>
  <outline>
    <contour>
      <point x="391" y="927" type="line"/>
      <point x="327" y="927"/>
      <point x="273" y="874"/>
      <point x="273" y="811" type="curve" smooth="yes"/>
      <point x="273" y="757"/>
      <point x="312" y="711"/>
      <point x="365" y="699" type="curve"/>
      <point x="144" y="178" type="line" smooth="yes"/>
      <point x="103" y="81"/>
      <point x="81" y="56"/>
      <point x="30" y="47" type="curve"/>
      <point x="30" y="0" type="line"/>
      <point x="266" y="0" type="line"/>
      <point x="266" y="49" type="line"/>
      <point x="216" y="53"/>
      <point x="199" y="58"/>
      <point x="199" y="74" type="curve" smooth="yes"/>
      <point x="199" y="112"/>
      <point x="226" y="171"/>
      <point x="227" y="173" type="curve" smooth="yes"/>
      <point x="245" y="214" type="line"/>
      <point x="483" y="214" type="line"/>
      <point x="526" y="108" type="line"/>
      <point x="532" y="91"/>
      <point x="536" y="76"/>
      <point x="536" y="69" type="curve" smooth="yes"/>
      <point x="536" y="57"/>
      <point x="520" y="54"/>
      <point x="467" y="49" type="curve"/>
      <point x="467" y="0" type="line"/>
      <point x="758" y="0" type="line"/>
      <point x="758" y="50" type="line"/>
      <point x="715" y="50"/>
      <point x="690" y="69"/>
      <point x="662" y="133" type="curve" smooth="yes"/>
      <point x="416" y="699" type="line"/>
      <point x="467" y="711"/>
      <point x="508" y="756"/>
      <point x="508" y="811" type="curve" smooth="yes"/>
      <point x="508" y="874"/>
      <point x="455" y="927"/>
      <point x="391" y="927" type="curve"/>
    </contour>
    <contour>
      <point x="365" y="499" type="line"/>
      <point x="453" y="287" type="line"/>
      <point x="275" y="287" type="line"/>
    </contour>
    <contour>
      <point x="391" y="858" type="line"/>
      <point x="415" y="858"/>
      <point x="434" y="837"/>
      <point x="434" y="811" type="curve" smooth="yes"/>
      <point x="434" y="784"/>
      <point x="415" y="765"/>
      <point x="391" y="765" type="curve" smooth="yes"/>
      <point x="366" y="765"/>
      <point x="347" y="786"/>
      <point x="347" y="811" type="curve" smooth="yes"/>
      <point x="347" y="837"/>
      <point x="366" y="858"/>
      <point x="391" y="858" type="curve"/>
    </contour>
  </outline>
</glyph>
<glyph name="Ecircumflex" format="1">
  <unicode hex="00CA"/>
  <advance width="686"/>
  <outline>
    <contour>
      <point x="259" y="592" type="line" smooth="yes"/>
      <point x="259" y="618"/>
      <point x="267" y="623"/>
      <point x="298" y="623" type="curve" smooth="yes"/>
      <point x="427" y="623" type="line" smooth="yes"/>
      <point x="509" y="623"/>
      <point x="532" y="602"/>
      <point x="539" y="519" type="curve" name="hr01"/>
      <point x="599" y="519" type="line"/>
      <point x="599" y="694" type="line"/>
      <point x="30" y="694" type="line"/>
      <point x="30" y="645" type="line" name="hr02"/>
      <point x="107" y="640"/>
      <point x="119" y="627"/>
      <point x="119" y="571" type="curve" smooth="yes"/>
      <point x="119" y="124" type="line" smooth="yes"/>
      <point x="119" y="64"/>
      <point x="107" y="58"/>
      <point x="30" y="48" type="curve"/>
      <point x="30" y="0" type="line"/>
      <point x="603" y="0" type="line"/>
      <point x="656" y="201" type="line" name="hr03"/>
      <point x="593" y="201" type="line"/>
      <point x="558" y="106"/>
      <point x="511" y="71"/>
      <point x="421" y="71" type="curve" smooth="yes" name="hr04"/>
      <point x="313" y="71" type="line" smooth="yes"/>
      <point x="261" y="71"/>
      <point x="259" y="75"/>
      <point x="259" y="108" type="curve" smooth="yes"/>
      <point x="259" y="328" type="line"/>
      <point x="374" y="328" type="line" smooth="yes"/>
      <point x="446" y="328"/>
      <point x="472" y="303"/>
      <point x="477" y="232" type="curve"/>
      <point x="533" y="232" type="line"/>
      <point x="533" y="492" type="line"/>
      <point x="477" y="492" type="line"/>
      <point x="472" y="421"/>
      <point x="446" y="397"/>
      <point x="374" y="397" type="curve" smooth="yes"/>
      <point x="259" y="397" type="line"/>
    </contour>
    <contour>
      <point x="301" y="921" type="line"/>
      <point x="154" y="723" type="line"/>
      <point x="225" y="723" type="line"/>
      <point x="340" y="819" type="line"/>
      <point x="454" y="723" type="line"/>
      <point x="529" y="723" type="line"/>
      <point x="382" y="921" type="line"/>
    </contour>
  </outline>
</glyph>
<glyph name="Igrave" format="1">
  <unicode hex="00CC"/>
  <advance width="395"/>
  <outline>
    <contour>
      <point x="266" y="571" type="line" smooth="yes"/>
      <point x="266" y="628"/>
      <point x="285" y="642"/>
      <point x="365" y="645" type="curve"/>
      <point x="365" y="694" type="line"/>
      <point x="30" y="694" type="line"/>
      <point x="30" y="645" type="line"/>
      <point x="111" y="642"/>
      <point x="129" y="628"/>
      <point x="129" y="571" type="curve" smooth="yes"/>
      <point x="129" y="124" type="line" smooth="yes"/>
      <point x="129" y="63"/>
      <point x="111" y="55"/>
      <point x="30" y="48" type="curve"/>
      <point x="30" y="0" type="line"/>
      <point x="365" y="0" type="line"/>
      <point x="365" y="48" type="line"/>
      <point x="290" y="55"/>
      <point x="266" y="63"/>
      <point x="266" y="113" type="curve" smooth="yes"/>
    </contour>
    <contour>
      <point x="160" y="881" type="line"/>
      <point x="151" y="890" type="line" smooth="yes"/>
      <point x="123" y="918"/>
      <point x="116" y="925"/>
      <point x="89" y="925" type="curve" smooth="yes"/>
      <point x="56" y="925"/>
      <point x="34" y="904"/>
      <point x="34" y="877" type="curve" smooth="yes"/>
      <point x="34" y="851"/>
      <point x="44" y="841"/>
      <point x="81" y="817" type="curve" smooth="yes"/>
      <point x="226" y="723" type="line"/>
      <point x="313" y="723" type="line"/>
    </contour>
  </outline>
</glyph>
<glyph name="Iacute" format="1">
  <unicode hex="00CD"/>
  <advance width="396"/>
  <outline>
    <contour>
      <point x="266" y="571" type="line" smooth="yes"/>
      <point x="266" y="628"/>
      <point x="285" y="642"/>
      <point x="365" y="645" type="curve"/>
      <point x="365" y="694" type="line"/>
      <point x="30" y="694" type="line"/>
      <point x="30" y="645" type="line"/>
      <point x="111" y="642"/>
      <point x="129" y="628"/>
      <point x="129" y="571" type="curve" smooth="yes"/>
      <point x="129" y="124" type="line" smooth="yes"/>
      <point x="129" y="63"/>
      <point x="111" y="55"/>
      <point x="30" y="48" type="curve"/>
      <point x="30" y="0" type="line"/>
      <point x="365" y="0" type="line"/>
      <point x="365" y="48" type="line"/>
      <point x="285" y="55"/>
      <point x="266" y="64"/>
      <point x="266" y="124" type="curve" smooth="yes"/>
    </contour>
    <contour>
      <point x="86" y="723" type="line"/>
      <point x="173" y="723" type="line"/>
      <point x="319" y="817" type="line" smooth="yes"/>
      <point x="355" y="841"/>
      <point x="366" y="851"/>
      <point x="366" y="877" type="curve" smooth="yes"/>
      <point x="366" y="904"/>
      <point x="341" y="925"/>
      <point x="311" y="925" type="curve" smooth="yes"/>
      <point x="283" y="925"/>
      <point x="275" y="917"/>
      <point x="245" y="887" type="curve" smooth="yes"/>
    </contour>
  </outline>
</glyph>
<glyph name="Icircumflex" format="1">
  <unicode hex="00CE"/>
  <advance width="437"/>
  <outline>
    <contour>
      <point x="287" y="571" type="line" smooth="yes"/>
      <point x="287" y="628"/>
      <point x="306" y="642"/>
      <point x="386" y="645" type="curve"/>
      <point x="386" y="694" type="line"/>
      <point x="51" y="694" type="line"/>
      <point x="51" y="645" type="line"/>
      <point x="132" y="642"/>
      <point x="150" y="628"/>
      <point x="150" y="571" type="curve" smooth="yes"/>
      <point x="150" y="124" type="line" smooth="yes"/>
      <point x="150" y="63"/>
      <point x="132" y="55"/>
      <point x="51" y="48" type="curve"/>
      <point x="51" y="0" type="line"/>
      <point x="386" y="0" type="line"/>
      <point x="386" y="48" type="line"/>
      <point x="306" y="55"/>
      <point x="287" y="64"/>
      <point x="287" y="124" type="curve" smooth="yes"/>
    </contour>
    <contour>
      <point x="177" y="921" type="line"/>
      <point x="30" y="723" type="line"/>
      <point x="103" y="723" type="line"/>
      <point x="219" y="819" type="line"/>
      <point x="332" y="723" type="line"/>
      <point x="407" y="723" type="line"/>
      <point x="261" y="921" type="line"/>
    </contour>
  </outline>
</glyph>
<glyph name="Eth" format="1">
  <unicode hex="00D0"/>
  <advance width="767"/>
  <outline>
    <contour>
      <point x="30" y="48" type="line"/>
      <point x="30" y="0" type="line"/>
      <point x="297" y="0" type="line" smooth="yes"/>
      <point x="583" y="0"/>
      <point x="737" y="124"/>
      <point x="737" y="346" type="curve" smooth="yes"/>
      <point x="737" y="559"/>
      <point x="610" y="694"/>
      <point x="311" y="694" type="curve" smooth="yes"/>
      <point x="30" y="694" type="line"/>
      <point x="30" y="645" type="line" name="hr01"/>
      <point x="105" y="640"/>
      <point x="121" y="627"/>
      <point x="121" y="571" type="curve" smooth="yes" name="hr02"/>
      <point x="121" y="399" type="line"/>
      <point x="30" y="399" type="line" name="hr03"/>
      <point x="30" y="325" type="line"/>
      <point x="121" y="325" type="line" name="hr04"/>
      <point x="121" y="124" type="line" smooth="yes"/>
      <point x="121" y="65"/>
      <point x="104" y="57"/>
      <point x="30" y="48" type="curve" name="hr05"/>
    </contour>
    <contour>
      <point x="399" y="325" type="line"/>
      <point x="399" y="399" type="line"/>
      <point x="259" y="399" type="line"/>
      <point x="259" y="590" type="line" smooth="yes"/>
      <point x="259" y="621"/>
      <point x="263" y="623"/>
      <point x="309" y="623" type="curve" smooth="yes"/>
      <point x="489" y="623"/>
      <point x="591" y="524"/>
      <point x="591" y="347" type="curve" smooth="yes"/>
      <point x="591" y="170"/>
      <point x="493" y="72"/>
      <point x="317" y="72" type="curve" smooth="yes"/>
      <point x="266" y="72"/>
      <point x="259" y="78"/>
      <point x="259" y="123" type="curve" smooth="yes"/>
      <point x="259" y="325" type="line"/>
    </contour>
  </outline>
</glyph>
<glyph name="Ntilde" format="1">
  <unicode hex="00D1"/>
  <advance width="794"/>
  <outline>
    <contour>
      <point x="230" y="694" type="line"/>
      <point x="30" y="694" type="line"/>
      <point x="30" y="644" type="line"/>
      <point x="85" y="644"/>
      <point x="101" y="635"/>
      <point x="129" y="603" type="curve"/>
      <point x="129" y="124" type="line" smooth="yes"/>
      <point x="129" y="64"/>
      <point x="111" y="55"/>
      <point x="30" y="48" type="curve"/>
      <point x="30" y="0" type="line"/>
      <point x="306" y="0" type="line"/>
      <point x="306" y="48" type="line"/>
      <point x="226" y="55"/>
      <point x="209" y="64"/>
      <point x="209" y="124" type="curve" smooth="yes"/>
      <point x="209" y="504" type="line"/>
      <point x="624" y="-12" type="line" name="hr01"/>
      <point x="667" y="-12" type="line"/>
      <point x="667" y="571" type="line" smooth="yes"/>
      <point x="667" y="628"/>
      <point x="684" y="642"/>
      <point x="764" y="645" type="curve"/>
      <point x="764" y="694" type="line"/>
      <point x="489" y="694" type="line"/>
      <point x="489" y="645" type="line"/>
      <point x="569" y="642"/>
      <point x="587" y="628"/>
      <point x="587" y="571" type="curve" smooth="yes"/>
      <point x="587" y="249" type="line"/>
    </contour>
    <contour>
      <point x="274" y="748" type="line"/>
      <point x="285" y="779"/>
      <point x="301" y="795"/>
      <point x="322" y="795" type="curve" smooth="yes"/>
      <point x="340" y="795"/>
      <point x="364" y="783"/>
      <point x="386" y="773" type="curve"/>
      <point x="409" y="761"/>
      <point x="432" y="751"/>
      <point x="450" y="751" type="curve" smooth="yes" name="hr02"/>
      <point x="521" y="751"/>
      <point x="571" y="801"/>
      <point x="584" y="885" type="curve"/>
      <point x="521" y="885" type="line"/>
      <point x="511" y="854"/>
      <point x="494" y="839"/>
      <point x="473" y="839" type="curve" smooth="yes"/>
      <point x="463" y="839"/>
      <point x="442" y="848"/>
      <point x="420" y="859" type="curve" smooth="yes"/>
      <point x="421" y="858" type="line" smooth="yes"/>
      <point x="395" y="870"/>
      <point x="368" y="883"/>
      <point x="345" y="883" type="curve" smooth="yes" name="hr03"/>
      <point x="274" y="883"/>
      <point x="225" y="832"/>
      <point x="213" y="748" type="curve"/>
    </contour>
  </outline>
</glyph>
<glyph name="Oacute" format="1">
  <unicode hex="00D3"/>
  <advance width="752"/>
  <outline>
    <contour>
      <point x="377" y="708" type="line"/>
      <point x="173" y="708"/>
      <point x="30" y="557"/>
      <point x="30" y="347" type="curve" smooth="yes"/>
      <point x="30" y="138"/>
      <point x="175" y="-12"/>
      <point x="375" y="-12" type="curve" smooth="yes"/>
      <point x="576" y="-12"/>
      <point x="722" y="137"/>
      <point x="722" y="347" type="curve" smooth="yes"/>
      <point x="722" y="556"/>
      <point x="575" y="708"/>
      <point x="377" y="708" type="curve"/>
    </contour>
    <contour>
      <point x="368" y="639" type="line"/>
      <point x="489" y="639"/>
      <point x="571" y="520"/>
      <point x="571" y="343" type="curve" smooth="yes"/>
      <point x="571" y="159"/>
      <point x="501" y="56"/>
      <point x="380" y="56" type="curve" smooth="yes"/>
      <point x="259" y="56"/>
      <point x="182" y="174"/>
      <point x="182" y="353" type="curve" smooth="yes"/>
      <point x="182" y="531"/>
      <point x="250" y="639"/>
      <point x="368" y="639" type="curve"/>
    </contour>
    <contour>
      <point x="266" y="723" type="line"/>
      <point x="353" y="723" type="line"/>
      <point x="498" y="817" type="line" smooth="yes"/>
      <point x="535" y="841"/>
      <point x="545" y="851"/>
      <point x="545" y="877" type="curve" smooth="yes"/>
      <point x="545" y="904"/>
      <point x="523" y="925"/>
      <point x="490" y="925" type="curve" smooth="yes"/>
      <point x="463" y="925"/>
      <point x="456" y="918"/>
      <point x="428" y="890" type="curve" smooth="yes"/>
      <point x="419" y="881" type="line"/>
    </contour>
  </outline>
</glyph>
<glyph name="Ocircumflex" format="1">
  <unicode hex="00D4"/>
  <advance width="752"/>
  <outline>
    <contour>
      <point x="377" y="708" type="line"/>
      <point x="173" y="708"/>
      <point x="30" y="557"/>
      <point x="30" y="347" type="curve" smooth="yes"/>
      <point x="30" y="138"/>
      <point x="175" y="-12"/>
      <point x="375" y="-12" type="curve" smooth="yes"/>
      <point x="576" y="-12"/>
      <point x="722" y="137"/>
      <point x="722" y="347" type="curve" smooth="yes"/>
      <point x="722" y="556"/>
      <point x="575" y="708"/>
      <point x="377" y="708" type="curve"/>
    </contour>
    <contour>
      <point x="368" y="639" type="line"/>
      <point x="489" y="639"/>
      <point x="571" y="520"/>
      <point x="571" y="343" type="curve" smooth="yes"/>
      <point x="571" y="159"/>
      <point x="501" y="56"/>
      <point x="380" y="56" type="curve" smooth="yes"/>
      <point x="259" y="56"/>
      <point x="182" y="174"/>
      <point x="182" y="353" type="curve" smooth="yes"/>
      <point x="182" y="531"/>
      <point x="250" y="639"/>
      <point x="368" y="639" type="curve"/>
    </contour>
    <contour>
      <point x="335" y="921" type="line"/>
      <point x="187" y="723" type="line"/>
      <point x="260" y="723" type="line"/>
      <point x="376" y="819" type="line"/>
      <point x="489" y="723" type="line"/>
      <point x="563" y="723" type="line"/>
      <point x="417" y="921" type="line"/>
    </contour>
  </outline>
</glyph>
<glyph name="Otilde" format="1">
  <unicode hex="00D5"/>
  <advance width="752"/>
  <outline>
    <contour>
      <point x="377" y="708" type="line"/>
      <point x="173" y="708"/>
      <point x="30" y="557"/>
      <point x="30" y="347" type="curve" smooth="yes"/>
      <point x="30" y="138"/>
      <point x="175" y="-12"/>
      <point x="375" y="-12" type="curve" smooth="yes"/>
      <point x="576" y="-12"/>
      <point x="722" y="137"/>
      <point x="722" y="347" type="curve" smooth="yes"/>
      <point x="722" y="556"/>
      <point x="575" y="708"/>
      <point x="377" y="708" type="curve"/>
    </contour>
    <contour>
      <point x="368" y="639" type="line"/>
      <point x="489" y="639"/>
      <point x="571" y="520"/>
      <point x="571" y="343" type="curve" smooth="yes"/>
      <point x="571" y="159"/>
      <point x="501" y="56"/>
      <point x="380" y="56" type="curve" smooth="yes"/>
      <point x="259" y="56"/>
      <point x="182" y="174"/>
      <point x="182" y="353" type="curve" smooth="yes"/>
      <point x="182" y="531"/>
      <point x="250" y="639"/>
      <point x="368" y="639" type="curve"/>
    </contour>
    <contour>
      <point x="252" y="748" type="line"/>
      <point x="263" y="779"/>
      <point x="279" y="795"/>
      <point x="300" y="795" type="curve" smooth="yes"/>
      <point x="318" y="795"/>
      <point x="342" y="783"/>
      <point x="364" y="773" type="curve"/>
      <point x="387" y="761"/>
      <point x="410" y="751"/>
      <point x="428" y="751" type="curve" smooth="yes" name="hr01"/>
      <point x="499" y="751"/>
      <point x="549" y="801"/>
      <point x="562" y="885" type="curve"/>
      <point x="499" y="885" type="line"/>
      <point x="489" y="854"/>
      <point x="472" y="839"/>
      <point x="451" y="839" type="curve" smooth="yes"/>
      <point x="441" y="839"/>
      <point x="420" y="848"/>
      <point x="398" y="859" type="curve" smooth="yes"/>
      <point x="399" y="858" type="line" smooth="yes"/>
      <point x="373" y="870"/>
      <point x="346" y="883"/>
      <point x="323" y="883" type="curve" smooth="yes" name="hr02"/>
      <point x="252" y="883"/>
      <point x="203" y="832"/>
      <point x="191" y="748" type="curve"/>
    </contour>
  </outline>
</glyph>
<glyph name="multiply" format="1">
  <unicode hex="00D7"/>
  <advance width="509"/>
  <outline>
    <contour>
      <point x="30" y="432" type="line"/>
      <point x="186" y="275" type="line"/>
      <point x="30" y="120" type="line"/>
      <point x="97" y="51" type="line"/>
      <point x="254" y="208" type="line"/>
      <point x="409" y="51" type="line"/>
      <point x="479" y="120" type="line"/>
      <point x="322" y="275" type="line"/>
      <point x="479" y="432" type="line"/>
      <point x="409" y="500" type="line"/>
      <point x="254" y="343" type="line"/>
      <point x="97" y="500" type="line"/>
    </contour>
  </outline>
</glyph>
<glyph name="Oslash" format="1">
  <unicode hex="00D8"/>
  <advance width="752"/>
  <outline>
    <contour>
      <point x="376" y="708" type="line"/>
      <point x="175" y="708"/>
      <point x="30" y="556"/>
      <point x="30" y="347" type="curve" smooth="yes"/>
      <point x="30" y="236"/>
      <point x="70" y="142"/>
      <point x="144" y="73" type="curve"/>
      <point x="40" y="-77" type="line"/>
      <point x="133" y="-77" type="line"/>
      <point x="205" y="30" type="line"/>
      <point x="259" y="0"/>
      <point x="312" y="-12"/>
      <point x="376" y="-12" type="curve" smooth="yes"/>
      <point x="576" y="-12"/>
      <point x="722" y="137"/>
      <point x="722" y="347" type="curve" smooth="yes"/>
      <point x="722" y="459"/>
      <point x="684" y="549"/>
      <point x="608" y="620" type="curve"/>
      <point x="710" y="771" type="line"/>
      <point x="619" y="771" type="line"/>
      <point x="546" y="665" type="line"/>
      <point x="495" y="693"/>
      <point x="439" y="708"/>
      <point x="376" y="708" type="curve"/>
    </contour>
    <contour>
      <point x="571" y="347" type="line"/>
      <point x="571" y="162"/>
      <point x="502" y="56"/>
      <point x="380" y="56" type="curve" smooth="yes"/>
      <point x="333" y="56"/>
      <point x="291" y="74"/>
      <point x="257" y="107" type="curve"/>
      <point x="538" y="517" type="line"/>
      <point x="557" y="470"/>
      <point x="571" y="408"/>
      <point x="571" y="347" type="curve"/>
    </contour>
    <contour>
      <point x="182" y="351" type="line"/>
      <point x="182" y="529"/>
      <point x="251" y="639"/>
      <point x="369" y="639" type="curve" smooth="yes"/>
      <point x="415" y="639"/>
      <point x="457" y="622"/>
      <point x="491" y="585" type="curve"/>
      <point x="212" y="174" type="line"/>
      <point x="191" y="222"/>
      <point x="182" y="282"/>
      <point x="182" y="351" type="curve"/>
    </contour>
  </outline>
</glyph>
<glyph name="Ugrave" format="1">
  <unicode hex="00D9"/>
  <advance width="761"/>
  <outline>
    <contour>
      <point x="259" y="571" type="line" smooth="yes"/>
      <point x="259" y="627"/>
      <point x="276" y="639"/>
      <point x="348" y="645" type="curve"/>
      <point x="348" y="694" type="line"/>
      <point x="30" y="694" type="line"/>
      <point x="30" y="645" type="line"/>
      <point x="106" y="638"/>
      <point x="121" y="626"/>
      <point x="121" y="571" type="curve" smooth="yes"/>
      <point x="121" y="249" type="line" smooth="yes"/>
      <point x="121" y="69"/>
      <point x="205" y="-12"/>
      <point x="394" y="-12" type="curve" smooth="yes"/>
      <point x="559" y="-12"/>
      <point x="664" y="66"/>
      <point x="664" y="251" type="curve" smooth="yes"/>
      <point x="664" y="571" type="line" smooth="yes"/>
      <point x="664" y="628"/>
      <point x="682" y="642"/>
      <point x="756" y="645" type="curve"/>
      <point x="756" y="694" type="line"/>
      <point x="491" y="694" type="line"/>
      <point x="491" y="645" type="line"/>
      <point x="566" y="642"/>
      <point x="584" y="627"/>
      <point x="584" y="571" type="curve" smooth="yes"/>
      <point x="584" y="244" type="line" smooth="yes"/>
      <point x="584" y="118"/>
      <point x="531" y="65"/>
      <point x="410" y="65" type="curve" smooth="yes"/>
      <point x="303" y="65"/>
      <point x="259" y="115"/>
      <point x="259" y="238" type="curve" smooth="yes"/>
    </contour>
    <contour>
      <point x="354" y="881" type="line"/>
      <point x="344" y="890" type="line" smooth="yes"/>
      <point x="316" y="918"/>
      <point x="310" y="925"/>
      <point x="282" y="925" type="curve" smooth="yes"/>
      <point x="249" y="925"/>
      <point x="227" y="904"/>
      <point x="227" y="877" type="curve" smooth="yes"/>
      <point x="227" y="851"/>
      <point x="237" y="841"/>
      <point x="274" y="817" type="curve" smooth="yes"/>
      <point x="420" y="723" type="line"/>
      <point x="507" y="723" type="line"/>
    </contour>
  </outline>
</glyph>
<glyph name="Yacute" format="1">
  <unicode hex="00DD"/>
  <advance width="754"/>
  <outline>
    <contour>
      <point x="277" y="630" type="line"/>
      <point x="277" y="641"/>
      <point x="289" y="644"/>
      <point x="348" y="644" type="curve"/>
      <point x="348" y="694" type="line"/>
      <point x="30" y="694" type="line"/>
      <point x="38" y="644" type="line"/>
      <point x="82" y="644"/>
      <point x="107" y="623"/>
      <point x="147" y="565" type="curve" smooth="yes"/>
      <point x="324" y="304" type="line"/>
      <point x="324" y="124" type="line" smooth="yes"/>
      <point x="324" y="64"/>
      <point x="306" y="58"/>
      <point x="233" y="48" type="curve"/>
      <point x="233" y="0" type="line"/>
      <point x="550" y="0" type="line"/>
      <point x="550" y="48" type="line"/>
      <point x="479" y="55"/>
      <point x="461" y="64"/>
      <point x="461" y="124" type="curve" smooth="yes"/>
      <point x="461" y="315" type="line"/>
      <point x="617" y="551" type="line" smooth="yes"/>
      <point x="654" y="607"/>
      <point x="690" y="636"/>
      <point x="749" y="646" type="curve"/>
      <point x="749" y="694" type="line"/>
      <point x="494" y="694" type="line"/>
      <point x="494" y="644" type="line"/>
      <point x="545" y="644"/>
      <point x="562" y="639"/>
      <point x="562" y="627" type="curve" smooth="yes"/>
      <point x="562" y="619"/>
      <point x="557" y="606"/>
      <point x="546" y="591" type="curve"/>
      <point x="421" y="396" type="line"/>
      <point x="296" y="586" type="line" smooth="yes"/>
      <point x="283" y="605"/>
      <point x="277" y="621"/>
      <point x="277" y="630" type="curve"/>
    </contour>
    <contour>
      <point x="280" y="723" type="line"/>
      <point x="368" y="723" type="line"/>
      <point x="513" y="817" type="line"/>
      <point x="513" y="816" type="line"/>
      <point x="549" y="839"/>
      <point x="559" y="851"/>
      <point x="559" y="877" type="curve" smooth="yes"/>
      <point x="559" y="904"/>
      <point x="535" y="925"/>
      <point x="505" y="925" type="curve" smooth="yes"/>
      <point x="479" y="925"/>
      <point x="469" y="919"/>
      <point x="439" y="888" type="curve" smooth="yes"/>
    </contour>
  </outline>
</glyph>
<glyph name="Thorn" format="1">
  <unicode hex="00DE"/>
  <advance width="628"/>
  <outline>
    <contour>
      <point x="326" y="154" type="line"/>
      <point x="494" y="154"/>
      <point x="598" y="232"/>
      <point x="598" y="364" type="curve" smooth="yes"/>
      <point x="598" y="492"/>
      <point x="504" y="560"/>
      <point x="324" y="560" type="curve" smooth="yes"/>
      <point x="259" y="560" type="line"/>
      <point x="259" y="571" type="line" smooth="yes"/>
      <point x="259" y="627"/>
      <point x="274" y="640"/>
      <point x="348" y="645" type="curve"/>
      <point x="348" y="694" type="line"/>
      <point x="30" y="694" type="line"/>
      <point x="30" y="645" type="line"/>
      <point x="105" y="640"/>
      <point x="121" y="627"/>
      <point x="121" y="571" type="curve" smooth="yes"/>
      <point x="121" y="124" type="line" smooth="yes"/>
      <point x="121" y="65"/>
      <point x="104" y="57"/>
      <point x="30" y="48" type="curve"/>
      <point x="30" y="0" type="line" name="hr01"/>
      <point x="348" y="0" type="line"/>
      <point x="348" y="48" type="line"/>
      <point x="274" y="58"/>
      <point x="259" y="64"/>
      <point x="259" y="124" type="curve" smooth="yes"/>
      <point x="259" y="157" type="line"/>
      <point x="289" y="154"/>
      <point x="306" y="154"/>
      <point x="326" y="154" type="curve" name="hr02"/>
    </contour>
    <contour>
      <point x="259" y="471" type="line" smooth="yes"/>
      <point x="259" y="490"/>
      <point x="261" y="491"/>
      <point x="319" y="491" type="curve" smooth="yes"/>
      <point x="404" y="491"/>
      <point x="453" y="441"/>
      <point x="453" y="355" type="curve" smooth="yes"/>
      <point x="453" y="270"/>
      <point x="402" y="225"/>
      <point x="306" y="225" type="curve" smooth="yes"/>
      <point x="292" y="225"/>
      <point x="274" y="225"/>
      <point x="259" y="227" type="curve"/>
    </contour>
  </outline>
</glyph>
<glyph name="uni00DF" format="1">
  <unicode hex="00DF"/>
  <advance width="552"/>
  <outline>
    <contour>
      <point x="326" y="-9" type="line"/>
      <point x="437" y="-9"/>
      <point x="522" y="84"/>
      <point x="522" y="203" type="curve" smooth="yes"/>
      <point x="522" y="297"/>
      <point x="471" y="365"/>
      <point x="373" y="397" type="curve"/>
      <point x="442" y="434"/>
      <point x="476" y="487"/>
      <point x="476" y="553" type="curve" smooth="yes" name="hr01"/>
      <point x="476" y="650"/>
      <point x="402" y="714"/>
      <point x="290" y="714" type="curve" smooth="yes"/>
      <point x="154" y="714"/>
      <point x="96" y="640"/>
      <point x="96" y="471" type="curve" smooth="yes"/>
      <point x="96" y="110" type="line" smooth="yes"/>
      <point x="96" y="62"/>
      <point x="81" y="48"/>
      <point x="30" y="43" type="curve"/>
      <point x="30" y="0" type="line"/>
      <point x="216" y="0" type="line"/>
      <point x="216" y="55" type="line"/>
      <point x="229" y="17"/>
      <point x="271" y="-9"/>
      <point x="326" y="-9" type="curve" name="hr02"/>
    </contour>
    <contour>
      <point x="229" y="362" type="line"/>
      <point x="341" y="360"/>
      <point x="391" y="306"/>
      <point x="391" y="179" type="curve" smooth="yes"/>
      <point x="391" y="97"/>
      <point x="377" y="55"/>
      <point x="348" y="55" type="curve" smooth="yes" name="hr03"/>
      <point x="340" y="55"/>
      <point x="336" y="70"/>
      <point x="334" y="85" type="curve"/>
      <point x="327" y="115"/>
      <point x="319" y="145"/>
      <point x="274" y="145" type="curve" smooth="yes" name="hr04"/>
      <point x="246" y="145"/>
      <point x="225" y="129"/>
      <point x="216" y="107" type="curve"/>
      <point x="216" y="558" type="line" smooth="yes"/>
      <point x="216" y="623"/>
      <point x="240" y="658"/>
      <point x="282" y="658" type="curve" smooth="yes"/>
      <point x="326" y="658"/>
      <point x="352" y="611"/>
      <point x="352" y="533" type="curve" smooth="yes"/>
      <point x="352" y="451"/>
      <point x="318" y="420"/>
      <point x="229" y="416" type="curve"/>
    </contour>
  </outline>
</glyph>
<glyph name="atilde" format="1">
  <unicode hex="00E3"/>
  <advance width="477"/>
  <outline>
    <contour>
      <point x="433" y="107" type="line"/>
      <point x="418" y="85"/>
      <point x="407" y="74"/>
      <point x="402" y="74" type="curve" smooth="yes"/>
      <point x="394" y="74"/>
      <point x="392" y="82"/>
      <point x="392" y="108" type="curve" smooth="yes"/>
      <point x="392" y="324" type="line" smooth="yes"/>
      <point x="392" y="435"/>
      <point x="343" y="491"/>
      <point x="226" y="491" type="curve" smooth="yes"/>
      <point x="134" y="491"/>
      <point x="48" y="433"/>
      <point x="48" y="365" type="curve" smooth="yes"/>
      <point x="48" y="325"/>
      <point x="72" y="299"/>
      <point x="111" y="299" type="curve" smooth="yes"/>
      <point x="151" y="299"/>
      <point x="175" y="327"/>
      <point x="175" y="366" type="curve" smooth="yes"/>
      <point x="175" y="371"/>
      <point x="174" y="378"/>
      <point x="171" y="387" type="curve" smooth="yes"/>
      <point x="169" y="393"/>
      <point x="168" y="399"/>
      <point x="168" y="405" type="curve" smooth="yes"/>
      <point x="168" y="421"/>
      <point x="191" y="434"/>
      <point x="216" y="434" type="curve" smooth="yes" name="hr01"/>
      <point x="254" y="434"/>
      <point x="271" y="408"/>
      <point x="271" y="343" type="curve" smooth="yes"/>
      <point x="271" y="317" type="line"/>
      <point x="89" y="248"/>
      <point x="30" y="203"/>
      <point x="30" y="111" type="curve" smooth="yes"/>
      <point x="30" y="43"/>
      <point x="83" y="-11"/>
      <point x="149" y="-11" type="curve" smooth="yes"/>
      <point x="186" y="-11"/>
      <point x="231" y="11"/>
      <point x="279" y="45" type="curve"/>
      <point x="292" y="11"/>
      <point x="323" y="-11"/>
      <point x="362" y="-11" type="curve" smooth="yes"/>
      <point x="404" y="-11"/>
      <point x="427" y="7"/>
      <point x="477" y="73" type="curve"/>
    </contour>
    <contour>
      <point x="127" y="534" type="line"/>
      <point x="137" y="565"/>
      <point x="154" y="580"/>
      <point x="175" y="580" type="curve" smooth="yes" name="hr02"/>
      <point x="193" y="580"/>
      <point x="217" y="569"/>
      <point x="239" y="558" type="curve" smooth="yes"/>
      <point x="262" y="547"/>
      <point x="285" y="536"/>
      <point x="303" y="536" type="curve" smooth="yes" name="hr03"/>
      <point x="373" y="536"/>
      <point x="424" y="586"/>
      <point x="436" y="670" type="curve"/>
      <point x="374" y="670" type="line"/>
      <point x="363" y="640"/>
      <point x="348" y="624"/>
      <point x="327" y="624" type="curve" smooth="yes"/>
      <point x="316" y="624"/>
      <point x="295" y="634"/>
      <point x="273" y="645" type="curve" smooth="yes"/>
      <point x="274" y="644" type="line" smooth="yes"/>
      <point x="248" y="656"/>
      <point x="222" y="668"/>
      <point x="198" y="668" type="curve" smooth="yes" name="hr04"/>
      <point x="126" y="668"/>
      <point x="77" y="617"/>
      <point x="66" y="534" type="curve"/>
    </contour>
    <contour>
      <point x="203" y="79" type="line"/>
      <point x="175" y="79"/>
      <point x="156" y="105"/>
      <point x="156" y="146" type="curve" smooth="yes"/>
      <point x="156" y="194"/>
      <point x="184" y="222"/>
      <point x="271" y="254" type="curve"/>
      <point x="271" y="110" type="line"/>
      <point x="244" y="90"/>
      <point x="220" y="79"/>
      <point x="203" y="79" type="curve"/>
    </contour>
  </outline>
</glyph>
<glyph name="ccedilla" format="1">
  <unicode hex="00E7"/>
  <advance width="486"/>
  <outline>
    <contour>
      <point x="456" y="171" type="line"/>
      <point x="415" y="195" type="line"/>
      <point x="356" y="115"/>
      <point x="328" y="93"/>
      <point x="276" y="93" type="curve" smooth="yes"/>
      <point x="198" y="93"/>
      <point x="143" y="165"/>
      <point x="143" y="272" type="curve" smooth="yes"/>
      <point x="143" y="367"/>
      <point x="191" y="431"/>
      <point x="263" y="431" type="curve" smooth="yes"/>
      <point x="294" y="431"/>
      <point x="311" y="417"/>
      <point x="311" y="391" type="curve" smooth="yes"/>
      <point x="311" y="389"/>
      <point x="310" y="384"/>
      <point x="309" y="380" type="curve" smooth="yes"/>
      <point x="310" y="382" type="line" smooth="yes"/>
      <point x="308" y="376"/>
      <point x="308" y="374"/>
      <point x="308" y="372" type="curve" smooth="yes"/>
      <point x="308" y="335"/>
      <point x="337" y="307"/>
      <point x="373" y="307" type="curve" smooth="yes" name="hr01"/>
      <point x="409" y="307"/>
      <point x="438" y="333"/>
      <point x="438" y="373" type="curve" smooth="yes"/>
      <point x="438" y="437"/>
      <point x="361" y="491"/>
      <point x="269" y="491" type="curve" smooth="yes"/>
      <point x="126" y="491"/>
      <point x="30" y="386"/>
      <point x="30" y="231" type="curve" smooth="yes"/>
      <point x="30" y="111"/>
      <point x="94" y="15"/>
      <point x="193" y="-6" type="curve"/>
      <point x="159" y="-83" type="line"/>
      <point x="182" y="-104" type="line"/>
      <point x="199" y="-98"/>
      <point x="212" y="-96"/>
      <point x="221" y="-96" type="curve" smooth="yes"/>
      <point x="239" y="-96"/>
      <point x="252" y="-105"/>
      <point x="252" y="-120" type="curve" smooth="yes" name="hr02"/>
      <point x="252" y="-137"/>
      <point x="234" y="-145"/>
      <point x="212" y="-145" type="curve" smooth="yes"/>
      <point x="192" y="-145"/>
      <point x="166" y="-141"/>
      <point x="139" y="-131" type="curve"/>
      <point x="114" y="-189" type="line"/>
      <point x="155" y="-207"/>
      <point x="182" y="-212"/>
      <point x="216" y="-212" type="curve" smooth="yes"/>
      <point x="296" y="-212"/>
      <point x="362" y="-170"/>
      <point x="362" y="-113" type="curve" smooth="yes"/>
      <point x="362" y="-63"/>
      <point x="321" y="-28"/>
      <point x="259" y="-28" type="curve" smooth="yes" name="hr03"/>
      <point x="257" y="-28" type="line"/>
      <point x="265" y="-8" type="line"/>
      <point x="343" y="3"/>
      <point x="397" y="54"/>
      <point x="456" y="171" type="curve"/>
    </contour>
  </outline>
</glyph>
<glyph name="egrave" format="1">
  <unicode hex="00E8"/>
  <advance width="497"/>
  <outline>
    <contour>
      <point x="417" y="200" type="line"/>
      <point x="389" y="134"/>
      <point x="336" y="93"/>
      <point x="277" y="93" type="curve" smooth="yes"/>
      <point x="196" y="93"/>
      <point x="142" y="165"/>
      <point x="135" y="276" type="curve"/>
      <point x="446" y="276" type="line"/>
      <point x="440" y="409"/>
      <point x="363" y="491"/>
      <point x="248" y="491" type="curve" smooth="yes"/>
      <point x="122" y="491"/>
      <point x="30" y="385"/>
      <point x="30" y="234" type="curve" smooth="yes"/>
      <point x="30" y="90"/>
      <point x="116" y="-11"/>
      <point x="243" y="-11" type="curve" smooth="yes"/>
      <point x="344" y="-11"/>
      <point x="423" y="57"/>
      <point x="467" y="185" type="curve"/>
    </contour>
    <contour>
      <point x="358" y="508" type="line"/>
      <point x="201" y="667" type="line"/>
      <point x="192" y="676" type="line" smooth="yes"/>
      <point x="166" y="703"/>
      <point x="157" y="711"/>
      <point x="130" y="711" type="curve" smooth="yes"/>
      <point x="97" y="711"/>
      <point x="76" y="689"/>
      <point x="76" y="662" type="curve" smooth="yes"/>
      <point x="76" y="637"/>
      <point x="85" y="624"/>
      <point x="124" y="602" type="curve"/>
      <point x="123" y="602" type="line"/>
      <point x="270" y="508" type="line"/>
    </contour>
    <contour>
      <point x="226" y="423" type="line"/>
      <point x="267" y="423"/>
      <point x="299" y="393"/>
      <point x="304" y="338" type="curve"/>
      <point x="138" y="338" type="line"/>
      <point x="149" y="389"/>
      <point x="182" y="423"/>
      <point x="226" y="423" type="curve"/>
    </contour>
  </outline>
</glyph>
<glyph name="igrave" format="1">
  <unicode hex="00EC"/>
  <advance width="365"/>
  <outline>
    <contour>
      <point x="64" y="391" type="line"/>
      <point x="68" y="391"/>
      <point x="91" y="392"/>
      <point x="95" y="392" type="curve" smooth="yes"/>
      <point x="103" y="393"/>
      <point x="109" y="393"/>
      <point x="113" y="393" type="curve" smooth="yes"/>
      <point x="134" y="393"/>
      <point x="139" y="383"/>
      <point x="139" y="339" type="curve" smooth="yes"/>
      <point x="139" y="110" type="line" smooth="yes"/>
      <point x="139" y="63"/>
      <point x="126" y="45"/>
      <point x="88" y="45" type="curve" smooth="yes"/>
      <point x="64" y="45" type="line"/>
      <point x="64" y="0" type="line"/>
      <point x="335" y="0" type="line"/>
      <point x="335" y="45" type="line"/>
      <point x="312" y="45" type="line" smooth="yes"/>
      <point x="273" y="45"/>
      <point x="260" y="63"/>
      <point x="260" y="110" type="curve" smooth="yes"/>
      <point x="260" y="501" type="line"/>
      <point x="244" y="492"/>
      <point x="227" y="484"/>
      <point x="227" y="484" type="curve"/>
      <point x="225" y="482"/>
      <point x="219" y="478"/>
      <point x="64" y="433" type="curve"/>
    </contour>
    <contour>
      <point x="313" y="508" type="line"/>
      <point x="156" y="667" type="line"/>
      <point x="146" y="676" type="line"/>
      <point x="120" y="703"/>
      <point x="112" y="711"/>
      <point x="85" y="711" type="curve" smooth="yes"/>
      <point x="52" y="711"/>
      <point x="30" y="689"/>
      <point x="30" y="662" type="curve" smooth="yes"/>
      <point x="30" y="637"/>
      <point x="40" y="624"/>
      <point x="78" y="602" type="curve"/>
      <point x="77" y="602" type="line"/>
      <point x="225" y="508" type="line"/>
    </contour>
  </outline>
</glyph>
<glyph name="iacute" format="1">
  <unicode hex="00ED"/>
  <advance width="362"/>
  <outline>
    <contour>
      <point x="30" y="391" type="line"/>
      <point x="34" y="391"/>
      <point x="57" y="392"/>
      <point x="61" y="392" type="curve" smooth="yes"/>
      <point x="69" y="393"/>
      <point x="75" y="393"/>
      <point x="79" y="393" type="curve" smooth="yes"/>
      <point x="100" y="393"/>
      <point x="105" y="383"/>
      <point x="105" y="339" type="curve" smooth="yes" name="hr01"/>
      <point x="105" y="110" type="line" smooth="yes"/>
      <point x="105" y="63"/>
      <point x="92" y="45"/>
      <point x="54" y="45" type="curve" smooth="yes"/>
      <point x="30" y="45" type="line" name="hr02"/>
      <point x="30" y="0" type="line"/>
      <point x="301" y="0" type="line"/>
      <point x="301" y="45" type="line"/>
      <point x="278" y="45" type="line" smooth="yes"/>
      <point x="239" y="45"/>
      <point x="226" y="63"/>
      <point x="226" y="110" type="curve" smooth="yes"/>
      <point x="226" y="501" type="line"/>
      <point x="210" y="492"/>
      <point x="193" y="484"/>
      <point x="193" y="484" type="curve"/>
      <point x="191" y="482"/>
      <point x="185" y="478"/>
      <point x="30" y="433" type="curve"/>
    </contour>
    <contour>
      <point x="54" y="508" type="line"/>
      <point x="141" y="508" type="line"/>
      <point x="285" y="602" type="line" smooth="yes"/>
      <point x="324" y="627"/>
      <point x="332" y="637"/>
      <point x="332" y="662" type="curve" smooth="yes"/>
      <point x="332" y="689"/>
      <point x="310" y="711"/>
      <point x="278" y="711" type="curve" smooth="yes"/>
      <point x="251" y="711"/>
      <point x="242" y="703"/>
      <point x="216" y="676" type="curve" smooth="yes"/>
      <point x="207" y="667" type="line"/>
    </contour>
  </outline>
</glyph>
<glyph name="icircumflex" format="1">
  <unicode hex="00EE"/>
  <advance width="435"/>
  <outline>
    <contour>
      <point x="83" y="391" type="line"/>
      <point x="87" y="391"/>
      <point x="110" y="392"/>
      <point x="114" y="392" type="curve" smooth="yes"/>
      <point x="122" y="393"/>
      <point x="128" y="393"/>
      <point x="132" y="393" type="curve" smooth="yes"/>
      <point x="153" y="393"/>
      <point x="158" y="383"/>
      <point x="158" y="339" type="curve" smooth="yes" name="hr01"/>
      <point x="158" y="110" type="line" smooth="yes"/>
      <point x="158" y="63"/>
      <point x="145" y="45"/>
      <point x="107" y="45" type="curve" smooth="yes"/>
      <point x="83" y="45" type="line" name="hr02"/>
      <point x="83" y="0" type="line"/>
      <point x="354" y="0" type="line"/>
      <point x="354" y="45" type="line"/>
      <point x="331" y="45" type="line" smooth="yes"/>
      <point x="292" y="45"/>
      <point x="279" y="63"/>
      <point x="279" y="110" type="curve" smooth="yes"/>
      <point x="279" y="501" type="line"/>
      <point x="263" y="492"/>
      <point x="246" y="484"/>
      <point x="246" y="484" type="curve"/>
      <point x="244" y="482"/>
      <point x="238" y="478"/>
      <point x="83" y="433" type="curve"/>
    </contour>
    <contour>
      <point x="178" y="707" type="line"/>
      <point x="30" y="508" type="line"/>
      <point x="102" y="508" type="line"/>
      <point x="218" y="604" type="line"/>
      <point x="331" y="508" type="line"/>
      <point x="405" y="508" type="line"/>
      <point x="259" y="707" type="line"/>
    </contour>
  </outline>
</glyph>
<glyph name="eth" format="1">
  <unicode hex="00F0"/>
  <advance width="534"/>
  <outline>
    <contour>
      <point x="100" y="686" type="line"/>
      <point x="83" y="686"/>
      <point x="78" y="686"/>
      <point x="57" y="683" type="curve"/>
      <point x="57" y="621" type="line"/>
      <point x="100" y="620"/>
      <point x="132" y="612"/>
      <point x="166" y="597" type="curve"/>
      <point x="36" y="544" type="line"/>
      <point x="90" y="489" type="line"/>
      <point x="241" y="552" type="line"/>
      <point x="265" y="533"/>
      <point x="287" y="509"/>
      <point x="304" y="483" type="curve"/>
      <point x="288" y="488"/>
      <point x="271" y="491"/>
      <point x="254" y="491" type="curve" smooth="yes"/>
      <point x="131" y="491"/>
      <point x="30" y="373"/>
      <point x="30" y="232" type="curve" smooth="yes"/>
      <point x="30" y="92"/>
      <point x="126" y="-11"/>
      <point x="263" y="-11" type="curve" smooth="yes"/>
      <point x="401" y="-11"/>
      <point x="504" y="103"/>
      <point x="504" y="252" type="curve" smooth="yes"/>
      <point x="504" y="371"/>
      <point x="437" y="514"/>
      <point x="344" y="595" type="curve"/>
      <point x="460" y="644" type="line"/>
      <point x="405" y="695" type="line"/>
      <point x="274" y="643" type="line"/>
      <point x="214" y="670"/>
      <point x="156" y="686"/>
      <point x="100" y="686" type="curve"/>
    </contour>
    <contour>
      <point x="252" y="427" type="line"/>
      <point x="332" y="427"/>
      <point x="380" y="344"/>
      <point x="380" y="211" type="curve" smooth="yes"/>
      <point x="380" y="109"/>
      <point x="345" y="54"/>
      <point x="283" y="54" type="curve" smooth="yes"/>
      <point x="209" y="54"/>
      <point x="157" y="141"/>
      <point x="157" y="273" type="curve" smooth="yes"/>
      <point x="157" y="369"/>
      <point x="191" y="427"/>
      <point x="252" y="427" type="curve"/>
    </contour>
  </outline>
</glyph>
<glyph name="ntilde" format="1">
  <unicode hex="00F1"/>
  <advance width="577"/>
  <outline>
    <contour>
      <point x="302" y="404" type="line"/>
      <point x="344" y="404"/>
      <point x="361" y="380"/>
      <point x="361" y="318" type="curve" smooth="yes"/>
      <point x="361" y="110" type="line" smooth="yes"/>
      <point x="361" y="62"/>
      <point x="349" y="48"/>
      <point x="298" y="43" type="curve"/>
      <point x="298" y="0" type="line"/>
      <point x="547" y="0" type="line"/>
      <point x="547" y="43" type="line"/>
      <point x="496" y="48"/>
      <point x="482" y="62"/>
      <point x="482" y="110" type="curve" smooth="yes"/>
      <point x="482" y="309" type="line" smooth="yes"/>
      <point x="482" y="447"/>
      <point x="445" y="491"/>
      <point x="347" y="491" type="curve" smooth="yes"/>
      <point x="298" y="491"/>
      <point x="260" y="475"/>
      <point x="215" y="436" type="curve"/>
      <point x="215" y="495" type="line"/>
      <point x="190" y="490" type="line"/>
      <point x="191" y="490" type="line"/>
      <point x="186" y="489"/>
      <point x="174" y="484"/>
      <point x="109" y="462" type="curve"/>
      <point x="110" y="462" type="line"/>
      <point x="99" y="459"/>
      <point x="92" y="457"/>
      <point x="91" y="456" type="curve"/>
      <point x="92" y="456" type="line"/>
      <point x="70" y="448"/>
      <point x="61" y="445"/>
      <point x="30" y="439" type="curve"/>
      <point x="30" y="390" type="line"/>
      <point x="54" y="395"/>
      <point x="57" y="395"/>
      <point x="60" y="395" type="curve" smooth="yes"/>
      <point x="69" y="395" type="line" smooth="yes"/>
      <point x="89" y="395"/>
      <point x="95" y="385"/>
      <point x="95" y="340" type="curve" smooth="yes"/>
      <point x="95" y="110" type="line" smooth="yes"/>
      <point x="95" y="62"/>
      <point x="80" y="48"/>
      <point x="30" y="43" type="curve"/>
      <point x="30" y="0" type="line"/>
      <point x="278" y="0" type="line"/>
      <point x="278" y="43" type="line"/>
      <point x="229" y="48"/>
      <point x="215" y="62"/>
      <point x="215" y="110" type="curve" smooth="yes"/>
      <point x="215" y="359" type="line"/>
      <point x="251" y="394"/>
      <point x="273" y="404"/>
      <point x="302" y="404" type="curve"/>
    </contour>
    <contour>
      <point x="165" y="534" type="line"/>
      <point x="176" y="565"/>
      <point x="191" y="580"/>
      <point x="212" y="580" type="curve" smooth="yes"/>
      <point x="229" y="580"/>
      <point x="251" y="570"/>
      <point x="273" y="559" type="curve" smooth="yes"/>
      <point x="297" y="548"/>
      <point x="320" y="536"/>
      <point x="340" y="536" type="curve" smooth="yes" name="hr01"/>
      <point x="411" y="536"/>
      <point x="462" y="586"/>
      <point x="473" y="670" type="curve"/>
      <point x="411" y="670" type="line"/>
      <point x="401" y="640"/>
      <point x="385" y="624"/>
      <point x="364" y="624" type="curve" smooth="yes"/>
      <point x="353" y="624"/>
      <point x="332" y="634"/>
      <point x="310" y="645" type="curve" smooth="yes"/>
      <point x="311" y="644" type="line" smooth="yes"/>
      <point x="285" y="656"/>
      <point x="258" y="668"/>
      <point x="236" y="668" type="curve" smooth="yes" name="hr02"/>
      <point x="165" y="668"/>
      <point x="115" y="617"/>
      <point x="103" y="534" type="curve"/>
    </contour>
  </outline>
</glyph>
<glyph name="ograve" format="1">
  <unicode hex="00F2"/>
  <advance width="535"/>
  <outline>
    <contour>
      <point x="272" y="491" type="line"/>
      <point x="137" y="491"/>
      <point x="30" y="379"/>
      <point x="30" y="232" type="curve" smooth="yes"/>
      <point x="30" y="93"/>
      <point x="127" y="-11"/>
      <point x="261" y="-11" type="curve" smooth="yes"/>
      <point x="397" y="-11"/>
      <point x="505" y="103"/>
      <point x="505" y="252" type="curve" smooth="yes"/>
      <point x="505" y="389"/>
      <point x="406" y="491"/>
      <point x="272" y="491" type="curve"/>
    </contour>
    <contour>
      <point x="250" y="427" type="line"/>
      <point x="328" y="427"/>
      <point x="377" y="340"/>
      <point x="377" y="211" type="curve" smooth="yes"/>
      <point x="377" y="110"/>
      <point x="343" y="54"/>
      <point x="282" y="54" type="curve" smooth="yes"/>
      <point x="207" y="54"/>
      <point x="157" y="142"/>
      <point x="157" y="273" type="curve" smooth="yes"/>
      <point x="157" y="367"/>
      <point x="190" y="427"/>
      <point x="250" y="427" type="curve"/>
    </contour>
    <contour>
      <point x="380" y="508" type="line"/>
      <point x="223" y="667" type="line"/>
      <point x="214" y="675" type="line" smooth="yes"/>
      <point x="187" y="702"/>
      <point x="179" y="711"/>
      <point x="150" y="711" type="curve" smooth="yes"/>
      <point x="120" y="711"/>
      <point x="96" y="689"/>
      <point x="96" y="662" type="curve" smooth="yes"/>
      <point x="96" y="637"/>
      <point x="107" y="624"/>
      <point x="142" y="602" type="curve" smooth="yes"/>
      <point x="292" y="508" type="line"/>
    </contour>
  </outline>
</glyph>
<glyph name="odieresis" format="1">
  <unicode hex="00F6"/>
  <advance width="535"/>
  <outline>
    <contour>
      <point x="272" y="491" type="line"/>
      <point x="137" y="491"/>
      <point x="30" y="379"/>
      <point x="30" y="232" type="curve" smooth="yes"/>
      <point x="30" y="93"/>
      <point x="127" y="-11"/>
      <point x="261" y="-11" type="curve" smooth="yes"/>
      <point x="397" y="-11"/>
      <point x="505" y="103"/>
      <point x="505" y="252" type="curve" smooth="yes"/>
      <point x="505" y="389"/>
      <point x="406" y="491"/>
      <point x="272" y="491" type="curve"/>
    </contour>
    <contour>
      <point x="250" y="427" type="line"/>
      <point x="328" y="427"/>
      <point x="377" y="340"/>
      <point x="377" y="211" type="curve" smooth="yes"/>
      <point x="377" y="110"/>
      <point x="343" y="54"/>
      <point x="282" y="54" type="curve" smooth="yes"/>
      <point x="207" y="54"/>
      <point x="157" y="142"/>
      <point x="157" y="273" type="curve" smooth="yes"/>
      <point x="157" y="367"/>
      <point x="190" y="427"/>
      <point x="250" y="427" type="curve"/>
    </contour>
    <contour>
      <point x="168" y="655" type="line"/>
      <point x="129" y="655"/>
      <point x="99" y="626"/>
      <point x="99" y="590" type="curve" smooth="yes" name="hr01"/>
      <point x="99" y="555"/>
      <point x="131" y="525"/>
      <point x="168" y="525" type="curve" smooth="yes"/>
      <point x="205" y="525"/>
      <point x="235" y="554"/>
      <point x="235" y="590" type="curve" smooth="yes"/>
      <point x="235" y="626"/>
      <point x="205" y="655"/>
      <point x="168" y="655" type="curve"/>
    </contour>
    <contour>
      <point x="366" y="655" type="line"/>
      <point x="329" y="655"/>
      <point x="298" y="626"/>
      <point x="298" y="590" type="curve" smooth="yes"/>
      <point x="298" y="555"/>
      <point x="330" y="525"/>
      <point x="366" y="525" type="curve" smooth="yes"/>
      <point x="404" y="525"/>
      <point x="434" y="554"/>
      <point x="434" y="590" type="curve" smooth="yes"/>
      <point x="434" y="626"/>
      <point x="404" y="655"/>
      <point x="366" y="655" type="curve"/>
    </contour>
  </outline>
</glyph>
<glyph name="divide" format="1">
  <unicode hex="00F7"/>
  <advance width="599"/>
  <outline>
    <contour>
      <point x="30" y="207" type="line"/>
      <point x="569" y="207" type="line"/>
      <point x="569" y="298" type="line"/>
      <point x="30" y="298" type="line"/>
    </contour>
    <contour>
      <point x="296" y="459" type="line"/>
      <point x="257" y="459"/>
      <point x="228" y="430"/>
      <point x="228" y="394" type="curve" smooth="yes"/>
      <point x="228" y="359"/>
      <point x="259" y="329"/>
      <point x="296" y="329" type="curve" smooth="yes"/>
      <point x="333" y="329"/>
      <point x="363" y="358"/>
      <point x="363" y="394" type="curve" smooth="yes"/>
      <point x="363" y="430"/>
      <point x="333" y="459"/>
      <point x="296" y="459" type="curve"/>
    </contour>
    <contour>
      <point x="297" y="160" type="line"/>
      <point x="260" y="160"/>
      <point x="229" y="131"/>
      <point x="229" y="95" type="curve" smooth="yes"/>
      <point x="229" y="59"/>
      <point x="261" y="30"/>
      <point x="297" y="30" type="curve" smooth="yes"/>
      <point x="335" y="30"/>
      <point x="365" y="58"/>
      <point x="365" y="95" type="curve" smooth="yes"/>
      <point x="365" y="131"/>
      <point x="335" y="160"/>
      <point x="297" y="160" type="curve"/>
    </contour>
  </outline>
</glyph>
<glyph name="uacute" format="1">
  <unicode hex="00FA"/>
  <advance width="535"/>
  <outline>
    <contour>
      <point x="359" y="-18" type="line"/>
      <point x="390" y="-7"/>
      <point x="479" y="25"/>
      <point x="535" y="41" type="curve"/>
      <point x="535" y="80" type="line" name="hr01"/>
      <point x="478" y="83"/>
      <point x="474" y="89"/>
      <point x="474" y="150" type="curve" smooth="yes"/>
      <point x="474" y="480" type="line"/>
      <point x="291" y="480" type="line"/>
      <point x="291" y="433" type="line"/>
      <point x="316" y="433" type="line" smooth="yes"/>
      <point x="348" y="433"/>
      <point x="354" y="421"/>
      <point x="354" y="365" type="curve" smooth="yes"/>
      <point x="354" y="114" type="line"/>
      <point x="321" y="86"/>
      <point x="301" y="77"/>
      <point x="273" y="77" type="curve" smooth="yes"/>
      <point x="232" y="77"/>
      <point x="214" y="100"/>
      <point x="214" y="159" type="curve" smooth="yes"/>
      <point x="214" y="480" type="line"/>
      <point x="30" y="480" type="line"/>
      <point x="30" y="433" type="line"/>
      <point x="54" y="433" type="line" smooth="yes"/>
      <point x="87" y="433"/>
      <point x="94" y="421"/>
      <point x="94" y="365" type="curve" smooth="yes"/>
      <point x="94" y="145" type="line" smooth="yes"/>
      <point x="94" y="41"/>
      <point x="139" y="-11"/>
      <point x="229" y="-11" type="curve" smooth="yes" name="hr02"/>
      <point x="277" y="-11"/>
      <point x="316" y="5"/>
      <point x="359" y="41" type="curve"/>
    </contour>
    <contour>
      <point x="173" y="508" type="line"/>
      <point x="260" y="508" type="line"/>
      <point x="406" y="602" type="line" smooth="yes"/>
      <point x="443" y="626"/>
      <point x="453" y="637"/>
      <point x="453" y="662" type="curve" smooth="yes"/>
      <point x="453" y="689"/>
      <point x="428" y="711"/>
      <point x="399" y="711" type="curve" smooth="yes"/>
      <point x="370" y="711"/>
      <point x="361" y="702"/>
      <point x="333" y="673" type="curve" smooth="yes"/>
    </contour>
  </outline>
</glyph>
<glyph name="thorn" format="1">
  <unicode hex="00FE"/>
  <advance width="564"/>
  <outline>
    <contour>
      <point x="305" y="-11" type="line"/>
      <point x="429" y="-11"/>
      <point x="534" y="109"/>
      <point x="534" y="255" type="curve" smooth="yes"/>
      <point x="534" y="390"/>
      <point x="450" y="491"/>
      <point x="336" y="491" type="curve" smooth="yes"/>
      <point x="290" y="491"/>
      <point x="253" y="475"/>
      <point x="220" y="444" type="curve"/>
      <point x="220" y="720" type="line"/>
      <point x="111" y="686" type="line"/>
      <point x="82" y="676"/>
      <point x="45" y="665"/>
      <point x="30" y="661" type="curve"/>
      <point x="30" y="615" type="line"/>
      <point x="78" y="617" type="line"/>
      <point x="80" y="617" type="line" smooth="yes"/>
      <point x="95" y="617"/>
      <point x="100" y="603"/>
      <point x="100" y="562" type="curve" smooth="yes" name="hr01"/>
      <point x="100" y="-107" type="line" smooth="yes"/>
      <point x="100" y="-155"/>
      <point x="85" y="-169"/>
      <point x="35" y="-174" type="curve"/>
      <point x="35" y="-217" type="line"/>
      <point x="283" y="-217" type="line"/>
      <point x="283" y="-174" type="line"/>
      <point x="233" y="-169"/>
      <point x="220" y="-155"/>
      <point x="220" y="-107" type="curve" smooth="yes"/>
      <point x="220" y="11" type="line"/>
      <point x="247" y="-5"/>
      <point x="275" y="-11"/>
      <point x="305" y="-11" type="curve"/>
    </contour>
    <contour>
      <point x="220" y="340" type="line" smooth="yes"/>
      <point x="220" y="374"/>
      <point x="254" y="399"/>
      <point x="297" y="399" type="curve" smooth="yes"/>
      <point x="367" y="399"/>
      <point x="411" y="331"/>
      <point x="411" y="227" type="curve" smooth="yes"/>
      <point x="411" y="120"/>
      <point x="370" y="53"/>
      <point x="303" y="53" type="curve" smooth="yes"/>
      <point x="250" y="53"/>
      <point x="220" y="92"/>
      <point x="220" y="164" type="curve" smooth="yes"/>
    </contour>
  </outline>
</glyph>
<glyph name="Amacron" format="1">
  <unicode hex="0100"/>
  <advance width="788"/>
  <outline>
    <contour>
      <point x="412" y="708" type="line"/>
      <point x="369" y="708" type="line"/>
      <point x="144" y="178" type="line" smooth="yes"/>
      <point x="103" y="81"/>
      <point x="81" y="56"/>
      <point x="30" y="47" type="curve"/>
      <point x="30" y="0" type="line"/>
      <point x="266" y="0" type="line"/>
      <point x="266" y="49" type="line"/>
      <point x="216" y="53"/>
      <point x="199" y="58"/>
      <point x="199" y="74" type="curve" smooth="yes"/>
      <point x="199" y="112"/>
      <point x="224" y="169"/>
      <point x="225" y="170" type="curve" smooth="yes"/>
      <point x="245" y="214" type="line"/>
      <point x="483" y="214" type="line"/>
      <point x="532" y="92"/>
      <point x="536" y="76"/>
      <point x="536" y="69" type="curve" smooth="yes"/>
      <point x="536" y="57"/>
      <point x="520" y="54"/>
      <point x="467" y="49" type="curve"/>
      <point x="467" y="0" type="line"/>
      <point x="758" y="0" type="line"/>
      <point x="758" y="50" type="line"/>
      <point x="715" y="50"/>
      <point x="690" y="69"/>
      <point x="662" y="133" type="curve" smooth="yes"/>
    </contour>
    <contour>
      <point x="219" y="850" type="line"/>
      <point x="219" y="765" type="line"/>
      <point x="565" y="765" type="line"/>
      <point x="565" y="850" type="line"/>
    </contour>
    <contour>
      <point x="365" y="499" type="line"/>
      <point x="453" y="287" type="line"/>
      <point x="275" y="287" type="line"/>
    </contour>
  </outline>
</glyph>
<glyph name="abreve" format="1">
  <unicode hex="0103"/>
  <advance width="477"/>
  <outline>
    <contour>
      <point x="433" y="107" type="line"/>
      <point x="418" y="85"/>
      <point x="407" y="74"/>
      <point x="402" y="74" type="curve" smooth="yes"/>
      <point x="394" y="74"/>
      <point x="392" y="82"/>
      <point x="392" y="108" type="curve" smooth="yes"/>
      <point x="392" y="324" type="line" smooth="yes"/>
      <point x="392" y="435"/>
      <point x="343" y="491"/>
      <point x="226" y="491" type="curve" smooth="yes"/>
      <point x="134" y="491"/>
      <point x="48" y="433"/>
      <point x="48" y="365" type="curve" smooth="yes"/>
      <point x="48" y="325"/>
      <point x="72" y="299"/>
      <point x="111" y="299" type="curve" smooth="yes"/>
      <point x="151" y="299"/>
      <point x="175" y="327"/>
      <point x="175" y="366" type="curve" smooth="yes"/>
      <point x="175" y="371"/>
      <point x="174" y="378"/>
      <point x="171" y="387" type="curve" smooth="yes"/>
      <point x="169" y="393"/>
      <point x="168" y="399"/>
      <point x="168" y="405" type="curve" smooth="yes"/>
      <point x="168" y="421"/>
      <point x="191" y="434"/>
      <point x="216" y="434" type="curve" smooth="yes" name="hr01"/>
      <point x="254" y="434"/>
      <point x="271" y="408"/>
      <point x="271" y="343" type="curve" smooth="yes"/>
      <point x="271" y="317" type="line"/>
      <point x="89" y="248"/>
      <point x="30" y="203"/>
      <point x="30" y="111" type="curve" smooth="yes"/>
      <point x="30" y="43"/>
      <point x="83" y="-11"/>
      <point x="149" y="-11" type="curve" smooth="yes"/>
      <point x="186" y="-11"/>
      <point x="231" y="11"/>
      <point x="279" y="45" type="curve"/>
      <point x="292" y="11"/>
      <point x="323" y="-11"/>
      <point x="362" y="-11" type="curve" smooth="yes"/>
      <point x="404" y="-11"/>
      <point x="427" y="7"/>
      <point x="477" y="73" type="curve"/>
    </contour>
    <contour>
      <point x="321" y="696" type="line"/>
      <point x="310" y="636"/>
      <point x="274" y="600"/>
      <point x="226" y="600" type="curve" smooth="yes" name="hr02"/>
      <point x="179" y="600"/>
      <point x="144" y="636"/>
      <point x="134" y="696" type="curve" name="hr03"/>
      <point x="68" y="696" type="line"/>
      <point x="75" y="578"/>
      <point x="135" y="508"/>
      <point x="226" y="508" type="curve" smooth="yes"/>
      <point x="320" y="508"/>
      <point x="378" y="578"/>
      <point x="387" y="696" type="curve"/>
    </contour>
    <contour>
      <point x="203" y="79" type="line"/>
      <point x="175" y="79"/>
      <point x="156" y="105"/>
      <point x="156" y="146" type="curve" smooth="yes"/>
      <point x="156" y="194"/>
      <point x="184" y="222"/>
      <point x="271" y="254" type="curve"/>
      <point x="271" y="110" type="line"/>
      <point x="244" y="90"/>
      <point x="220" y="79"/>
      <point x="203" y="79" type="curve"/>
    </contour>
  </outline>
</glyph>
